<svg xmlns="http://www.w3.org/2000/svg" width="168" height="168" fill="none"  xmlns:v="https://vecta.io/nano"><mask id="A" mask-type="alpha" maskUnits="userSpaceOnUse" x="0" y="0" width="168" height="168"><path d="M0 8a8 8 0 0 1 8-8h160v168H8a8 8 0 0 1-8-8V8z" fill="#c4c4c4"/></mask><g mask="url(#A)"><path d="M-27-2h214v172H-27V-2z" fill="#ffc267"/><path fill-rule="evenodd" d="M42 57.006c-5.523 0-10 4.477-10 10v35.706c0 5.522 4.477 10 10 10h17.899l9.33 9.329 9.33-9.329h16.738c5.522 0 10-4.478 10-10V67.006c0-5.523-4.478-10-10-10H42z" fill="#f8f8f8"/><circle cx="105" cy="55.95" r="23" fill="#2eb67d"/><circle cx="105" cy="88.95" r="23" fill="#5c94c8"/><circle cx="105" cy="113.95" r="23" fill="#1b2738"/></g></svg>