<svg xmlns="http://www.w3.org/2000/svg" width="140" height="168" fill="none"  xmlns:v="https://vecta.io/nano"><mask id="A" mask-type="alpha" maskUnits="userSpaceOnUse" x="0" y="0" width="140" height="168"><path d="M0 8a8 8 0 0 1 8-8h132v167.95H8a8 8 0 0 1-8-8V8z" fill="#c4c4c4"/></mask><g mask="url(#A)"><path d="M-27-2.05h172v172H-27v-172z" fill="#5c94c8"/><path d="M107.652 38.03c3.282 9.491 3.216 21.714.753 27.682a13.49 13.49 0 0 0-.288 9.407 37.27 37.27 0 0 1 1.933 11.889c0 20.804-17.001 37.638-37.869 37.359-19.725-.261-36.54-17.03-36.857-36.755-.065-4.36.614-8.561 1.924-12.465 1.032-3.067.967-6.423-.27-9.407-2.473-5.958-2.538-18.2.744-27.71.846-1.701 3.402-1.181 3.523.716l.037.641c.586 9.1 4.043 14.454 8.989 16.304.818.307 1.738.195 2.473-.27 5.773-3.653 12.605-5.763 19.939-5.763a37.18 37.18 0 0 1 19.902 5.735c.753.474 2.026.576 2.817.186 4.833-2.361 8.115-7.288 8.691-16.202l.037-.632c.121-1.896 2.677-2.417 3.523-.716z" fill="#f8f8f8"/><path d="M94.334 80.035l-26.558 51.591-.11-40.33-19.257-.447 26.7-51.434V79.71l19.225.326zM89.428 147.2l-5.714 5.714L78 147.2l5.714-5.714 5.714 5.714z" fill="#ffc267"/><path d="M119.5 153a5.5 5.5 0 1 1 0-11 5.5 5.5 0 1 1 0 11z" fill="#1b2738"/><path d="M51.572 18.8l5.714-5.714L63 18.8l-5.714 5.714-5.714-5.714z" fill="#ffc267"/><path d="M21.5 13a5.5 5.5 0 1 1 0 11 5.5 5.5 0 1 1 0-11z" fill="#1b2738"/></g></svg>