<svg xmlns="http://www.w3.org/2000/svg" xmlns:xlink="http://www.w3.org/1999/xlink" width="140" height="168" fill="none" xmlns:v="https://vecta.io/nano"><mask id="A" mask-type="alpha" maskUnits="userSpaceOnUse" x="0" y="0" width="140" height="168"><path d="M0 8a8 8 0 0 1 8-8h132v167.95H8a8 8 0 0 1-8-8V8z" fill="#c4c4c4"/></mask><g mask="url(#A)"><path d="M163.867-3.886H-23v168.24a8 8 0 0 0 8 8h170.867a8 8 0 0 0 8-8V-3.886z" fill="#1eb2d2"/><mask id="B" mask-type="alpha" maskUnits="userSpaceOnUse" x="-23" y="-4" width="187" height="177"><path d="M163.867-3.886H-23v168.24a8 8 0 0 0 8 8h170.867a8 8 0 0 0 8-8V-3.886z" fill="#1eb4d4"/></mask><g mask="url(#B)"><path d="M18.835-52.785H-7.636a54.34 54.34 0 0 0-43.555 21.852L-68.739-7.412l17.549 23.521A54.35 54.35 0 0 0-7.636 37.961h26.471A54.34 54.34 0 0 0 62.39 16.109L79.939-7.412 62.39-30.933a54.34 54.34 0 0 0-43.555-21.852z" fill="#1b2738"/><path d="M7.019 17.081c13.13 0 23.774-10.648 23.774-23.782S20.149-30.482 7.019-30.482-16.755-19.835-16.755-6.701-6.111 17.081 7.019 17.081z" fill="#f8f8f8"/><path d="M7.02 8.416c8.346 0 15.112-6.768 15.112-15.117S15.367-21.818 7.02-21.818-8.092-15.05-8.092-6.701-1.326 8.416 7.02 8.416z" fill="#ffc267"/><path d="M38.623 340.721h-195.894v-8.453H30.172V110.87h8.45v229.851zm27.317 27.333h-241.668V359.6H57.489V110.87h8.45v257.184zm-54.634-54.517h-155.023v-8.453H2.856V110.87h8.45v202.667z" fill="#fff"/><path d="M18.835 52.853H-7.636a54.34 54.34 0 0 0-43.555 21.852l-17.549 23.521 17.549 23.522c10.26 13.75 26.408 21.851 43.555 21.851h26.471c17.154 0 33.295-8.101 43.555-21.851l17.549-23.522L62.39 74.704a54.34 54.34 0 0 0-43.555-21.852z" fill="#1b2738"/><path d="M7.019 122.719c13.13 0 23.774-10.648 23.774-23.782S20.149 75.155 7.019 75.155-16.755 85.803-16.755 98.937s10.644 23.782 23.774 23.782z" fill="#f8f8f8"/><path d="M7.02 114.054c8.346 0 15.112-6.768 15.112-15.117S15.367 83.82 7.02 83.82-8.092 90.588-8.092 98.937s6.766 15.117 15.112 15.117z" fill="#ffc267"/><path d="M132.656 202.978h26.471c17.154 0 33.295-8.102 43.555-21.852l17.548-23.521-17.548-23.522c-10.26-13.75-26.408-21.851-43.555-21.851h-26.471c-17.154 0-33.295 8.101-43.555 21.851l-17.549 23.522 17.549 23.521c10.26 13.75 26.401 21.852 43.555 21.852z" fill="#1b2738"/><use xlink:href="#D" fill="#f8f8f8"/><path d="M144.472 141.776c-8.346 0-15.112 6.768-15.112 15.117s6.766 15.118 15.112 15.118 15.112-6.768 15.112-15.118-6.766-15.117-15.112-15.117z" fill="#ffc267"/><path d="M112.869-190.529h195.895v8.453H121.319V39.322h-8.45v-229.851zm-27.316-27.332h241.668v8.453H94.003v248.73h-8.45v-257.183z" fill="#fff"/><path d="M132.656 97.34h26.471a54.34 54.34 0 0 0 43.555-21.852l17.548-23.521-17.548-23.521a54.35 54.35 0 0 0-43.555-21.852h-26.471a54.34 54.34 0 0 0-43.555 21.852L71.552 51.967l17.549 23.521a54.34 54.34 0 0 0 43.555 21.852z" fill="#1b2738"/><use xlink:href="#D" y="-105.637" fill="#f8f8f8"/><path d="M144.472 36.138c-8.346 0-15.112 6.768-15.112 15.117s6.766 15.117 15.112 15.117 15.112-6.768 15.112-15.117-6.766-15.117-15.112-15.117z" fill="#ffc267"/></g></g><defs ><path id="D" d="M144.472 133.111c-13.13 0-23.774 10.648-23.774 23.782s10.644 23.782 23.774 23.782 23.774-10.647 23.774-23.782-10.644-23.782-23.774-23.782z"/></defs></svg>