<svg width="140" height="168" viewBox="0 0 140 168" fill="none" xmlns="http://www.w3.org/2000/svg">
<mask id="mask0" mask-type="alpha" maskUnits="userSpaceOnUse" x="0" y="0" width="140" height="168">
<path d="M0 8.00001C0 3.58173 3.58172 0 8 0H140V167.95H8C3.58172 167.95 0 164.369 0 159.95V8.00001Z" fill="#C4C4C4"/>
</mask>
<g mask="url(#mask0)">
<path d="M163.867 -3.88623H-23V164.354C-23 168.772 -19.4183 172.354 -15 172.354H155.867C160.286 172.354 163.867 168.772 163.867 164.354V-3.88623Z" fill="#1EB2D2"/>
<mask id="mask1" mask-type="alpha" maskUnits="userSpaceOnUse" x="-23" y="-4" width="187" height="177">
<path d="M163.867 -3.88623H-23V164.354C-23 168.772 -19.4183 172.354 -15 172.354H155.867C160.286 172.354 163.867 168.772 163.867 164.354V-3.88623Z" fill="#1EB4D4"/>
</mask>
<g mask="url(#mask1)">
<path d="M18.8353 -52.785H-7.63568C-24.79 -52.785 -40.9303 -44.684 -51.1906 -30.9334L-68.7393 -7.41215L-51.1906 16.109C-40.9303 29.8597 -24.783 37.9607 -7.63568 37.9607H18.8353C35.9896 37.9607 52.13 29.8597 62.3902 16.109L79.9389 -7.41215L62.3902 -30.9334C52.13 -44.684 35.9896 -52.785 18.8353 -52.785Z" fill="#1B2738"/>
<path d="M7.01894 17.0813C20.1489 17.0813 30.7929 6.43377 30.7929 -6.70058C30.7929 -19.8349 20.1489 -30.4824 7.01894 -30.4824C-6.111 -30.4824 -16.7549 -19.8349 -16.7549 -6.70058C-16.7549 6.43377 -6.111 17.0813 7.01894 17.0813Z" fill="#F8F8F8"/>
<path d="M7.02035 8.41639C15.3666 8.41639 22.1325 1.64816 22.1325 -6.70086C22.1325 -15.0499 15.3666 -21.8181 7.02035 -21.8181C-1.32587 -21.8181 -8.0918 -15.0499 -8.0918 -6.70086C-8.0918 1.64816 -1.32587 8.41639 7.02035 8.41639Z" fill="#FFC267"/>
<path d="M38.6225 340.721H-157.272V332.268H30.1721V110.87H38.6225V340.721Z" fill="white"/>
<path d="M65.9395 368.054H-175.729V359.6H57.4891V110.87H65.9395V368.054Z" fill="white"/>
<path d="M11.3062 313.537H-143.717V305.084H2.85582V110.87H11.3062V313.537Z" fill="white"/>
<path d="M18.8353 52.8525H-7.63568C-24.79 52.8525 -40.9303 60.9536 -51.1906 74.7042L-68.7393 98.2254L-51.1906 121.747C-40.9303 135.497 -24.783 143.598 -7.63568 143.598H18.8353C35.9896 143.598 52.13 135.497 62.3902 121.747L79.9389 98.2254L62.3902 74.7042C52.13 60.9536 35.9896 52.8525 18.8353 52.8525Z" fill="#1B2738"/>
<path d="M7.01894 122.719C20.1489 122.719 30.7929 112.071 30.7929 98.9369C30.7929 85.8025 20.1489 75.155 7.01894 75.155C-6.111 75.155 -16.7549 85.8025 -16.7549 98.9369C-16.7549 112.071 -6.111 122.719 7.01894 122.719Z" fill="#F8F8F8"/>
<path d="M7.02035 114.054C15.3666 114.054 22.1325 107.286 22.1325 98.9368C22.1325 90.5878 15.3666 83.8196 7.02035 83.8196C-1.32587 83.8196 -8.0918 90.5878 -8.0918 98.9368C-8.0918 107.286 -1.32587 114.054 7.02035 114.054Z" fill="#FFC267"/>
<path d="M132.656 202.978L159.127 202.978C176.281 202.978 192.422 194.876 202.682 181.126L220.23 157.605L202.682 134.083C192.422 120.333 176.274 112.232 159.127 112.232L132.656 112.232C115.502 112.232 99.3612 120.333 89.101 134.083L71.5523 157.605L89.101 181.126C99.3612 194.876 115.502 202.978 132.656 202.978Z" fill="#1B2738"/>
<path d="M144.472 133.111C131.342 133.111 120.698 143.759 120.698 156.893C120.698 170.028 131.342 180.675 144.472 180.675C157.602 180.675 168.246 170.028 168.246 156.893C168.246 143.759 157.602 133.111 144.472 133.111Z" fill="#F8F8F8"/>
<path d="M144.472 141.776C136.126 141.776 129.36 148.544 129.36 156.893C129.36 165.243 136.126 172.011 144.472 172.011C152.818 172.011 159.584 165.243 159.584 156.893C159.584 148.544 152.818 141.776 144.472 141.776Z" fill="#FFC267"/>
<path d="M112.869 -190.529L308.764 -190.529L308.764 -182.076L121.319 -182.076L121.319 39.3222L112.869 39.3222L112.869 -190.529Z" fill="white"/>
<path d="M85.5527 -217.861L327.221 -217.861L327.221 -209.408L94.0031 -209.408L94.0031 39.3221L85.5527 39.3221L85.5527 -217.861Z" fill="white"/>
<path d="M132.656 97.3397L159.127 97.3397C176.281 97.3397 192.422 89.2387 202.682 75.488L220.23 51.9669L202.682 28.4456C192.422 14.695 176.274 6.59396 159.127 6.59396L132.656 6.59396C115.502 6.59395 99.3612 14.695 89.101 28.4456L71.5523 51.9668L89.101 75.488C99.3612 89.2387 115.502 97.3397 132.656 97.3397Z" fill="#1B2738"/>
<path d="M144.472 27.4735C131.342 27.4735 120.698 38.121 120.698 51.2554C120.698 64.3897 131.342 75.0372 144.472 75.0372C157.602 75.0372 168.246 64.3897 168.246 51.2554C168.246 38.121 157.602 27.4735 144.472 27.4735Z" fill="#F8F8F8"/>
<path d="M144.472 36.1382C136.126 36.1382 129.36 42.9064 129.36 51.2554C129.36 59.6044 136.126 66.3727 144.472 66.3727C152.818 66.3727 159.584 59.6045 159.584 51.2554C159.584 42.9064 152.818 36.1382 144.472 36.1382Z" fill="#FFC267"/>
</g>
</g>
</svg>
