<svg xmlns="http://www.w3.org/2000/svg" xmlns:xlink="http://www.w3.org/1999/xlink" width="340" height="400" fill="none"  xmlns:v="https://vecta.io/nano"><rect width="340" height="400" rx="8" fill="#1b2738"/><g fill="#f8f8f8"><path d="M38.953 52.837c0-2.002.433-3.782 1.299-5.341.866-1.578 2.069-2.801 3.609-3.667 1.559-.885 3.32-1.328 5.283-1.328 2.406 0 4.466.635 6.179 1.906s2.858 3.003 3.436 5.197h-5.428c-.404-.847-.982-1.492-1.732-1.934-.731-.443-1.569-.664-2.512-.664-1.521 0-2.752.529-3.696 1.588s-1.415 2.473-1.415 4.244.472 3.185 1.415 4.244 2.175 1.588 3.696 1.588c.943 0 1.78-.221 2.512-.664.751-.443 1.328-1.087 1.732-1.934h5.428c-.578 2.194-1.723 3.927-3.436 5.197-1.713 1.251-3.773 1.877-6.179 1.877-1.963 0-3.724-.433-5.283-1.299a9.44 9.44 0 0 1-3.609-3.667c-.866-1.559-1.299-3.339-1.299-5.341zm30.163 10.394c-1.578 0-3.003-.337-4.273-1.011a7.52 7.52 0 0 1-2.974-2.887c-.712-1.251-1.068-2.714-1.068-4.389 0-1.655.366-3.108 1.097-4.36.731-1.27 1.732-2.242 3.003-2.916s2.695-1.01 4.273-1.01 3.003.337 4.273 1.01 2.271 1.646 3.003 2.916c.731 1.251 1.097 2.704 1.097 4.36s-.375 3.118-1.126 4.389c-.731 1.251-1.742 2.213-3.032 2.887-1.27.674-2.695 1.011-4.273 1.011zm0-4.273a3.17 3.17 0 0 0 2.396-1.039c.674-.693 1.011-1.684 1.011-2.974s-.327-2.281-.982-2.974a3.08 3.08 0 0 0-2.368-1.039 3.11 3.11 0 0 0-2.396 1.039c-.635.674-.953 1.665-.953 2.974 0 1.29.308 2.281.924 2.974a3.08 3.08 0 0 0 2.367 1.039zm31.606-12.242c2.002 0 3.589.606 4.764 1.819 1.193 1.213 1.79 2.897 1.79 5.053V63h-4.909v-8.748c0-1.039-.279-1.838-.837-2.396-.539-.578-1.289-.866-2.252-.866s-1.723.289-2.281.866c-.539.558-.808 1.357-.808 2.396V63h-4.908v-8.748c0-1.039-.279-1.838-.837-2.396-.539-.578-1.29-.866-2.252-.866s-1.723.289-2.281.866c-.539.558-.808 1.357-.808 2.396V63h-4.937V46.89h4.937v2.021c.5-.674 1.155-1.203 1.963-1.588.808-.404 1.723-.606 2.743-.606 1.213 0 2.29.26 3.234.78.962.52 1.713 1.261 2.252 2.223.558-.885 1.318-1.607 2.281-2.165s2.011-.837 3.147-.837zm30.563 0c2.002 0 3.59.606 4.764 1.819 1.193 1.213 1.79 2.897 1.79 5.053V63h-4.908v-8.748c0-1.039-.279-1.838-.838-2.396-.539-.578-1.289-.866-2.252-.866s-1.722.289-2.28.866c-.539.558-.809 1.357-.809 2.396V63h-4.908v-8.748c0-1.039-.279-1.838-.837-2.396-.539-.578-1.29-.866-2.252-.866s-1.723.289-2.281.866c-.539.558-.809 1.357-.809 2.396V63h-4.937V46.89h4.937v2.021c.501-.674 1.155-1.203 1.964-1.588.808-.404 1.722-.606 2.743-.606 1.212 0 2.29.26 3.233.78a5.56 5.56 0 0 1 2.252 2.223c.558-.885 1.319-1.607 2.281-2.165a6.16 6.16 0 0 1 3.147-.837zm25.915.173V63h-4.937v-2.194c-.5.712-1.184 1.29-2.05 1.732-.847.423-1.79.635-2.829.635-1.232 0-2.32-.269-3.263-.808-.943-.558-1.674-1.357-2.194-2.396s-.78-2.262-.78-3.667V46.89h4.909v8.748c0 1.078.279 1.915.837 2.512s1.309.895 2.252.895c.962 0 1.722-.298 2.281-.895s.837-1.434.837-2.512V46.89h4.937zm13.363-.173c1.886 0 3.387.616 4.504 1.848 1.135 1.213 1.703 2.887 1.703 5.024V63h-4.908v-8.748c0-1.078-.279-1.915-.837-2.512s-1.309-.895-2.252-.895-1.694.298-2.252.895-.838 1.434-.838 2.512V63h-4.937V46.89h4.937v2.137c.501-.712 1.174-1.27 2.021-1.675.847-.423 1.8-.635 2.859-.635zm12.121-1.501c-.866 0-1.579-.25-2.137-.751-.539-.52-.808-1.155-.808-1.905 0-.77.269-1.405.808-1.906.558-.52 1.271-.779 2.137-.779.847 0 1.54.26 2.078.779.559.5.838 1.136.838 1.906a2.5 2.5 0 0 1-.838 1.905c-.538.501-1.231.751-2.078.751zm2.454 1.675V63h-4.937V46.89h4.937zm12.557 11.924V63h-2.512c-1.79 0-3.186-.433-4.187-1.299-1-.885-1.501-2.319-1.501-4.302v-6.409h-1.963v-4.1h1.963v-3.927h4.937v3.927h3.234v4.1h-3.234v6.467c0 .481.116.828.347 1.039s.616.318 1.154.318h1.762zm19.206-11.924l-10.105 23.761h-5.312l3.696-8.2-6.554-15.562h5.514l3.725 10.076 3.695-10.076h5.341zm7.067 5.948c0-2.002.433-3.782 1.299-5.341.866-1.578 2.069-2.801 3.609-3.667 1.559-.885 3.32-1.328 5.283-1.328 2.406 0 4.466.635 6.179 1.906s2.858 3.003 3.436 5.197h-5.428c-.404-.847-.982-1.492-1.732-1.934-.732-.443-1.569-.664-2.512-.664-1.521 0-2.753.529-3.696 1.588s-1.415 2.473-1.415 4.244.472 3.185 1.415 4.244 2.175 1.588 3.696 1.588c.943 0 1.78-.221 2.512-.664.75-.443 1.328-1.087 1.732-1.934h5.428c-.578 2.194-1.723 3.927-3.436 5.197-1.713 1.251-3.773 1.877-6.179 1.877-1.963 0-3.724-.433-5.283-1.299-1.54-.885-2.743-2.108-3.609-3.667s-1.299-3.34-1.299-5.341zm21.847 2.079c0-1.655.308-3.108.924-4.36.636-1.251 1.492-2.213 2.57-2.887a6.67 6.67 0 0 1 3.609-1.01c1.136 0 2.127.231 2.974.693.866.462 1.53 1.068 1.992 1.819V46.89h4.937V63h-4.937v-2.281c-.481.751-1.155 1.357-2.021 1.819-.847.462-1.838.693-2.974.693a6.62 6.62 0 0 1-3.58-1.011c-1.078-.693-1.934-1.665-2.57-2.916-.616-1.27-.924-2.733-.924-4.388zm12.069.029c0-1.232-.347-2.204-1.04-2.916a3.28 3.28 0 0 0-2.483-1.068c-.981 0-1.818.356-2.511 1.068-.674.693-1.011 1.655-1.011 2.887s.337 2.214 1.011 2.945c.693.712 1.53 1.068 2.511 1.068a3.28 3.28 0 0 0 2.483-1.068c.693-.712 1.04-1.684 1.04-2.916zm13.446-13.31V63h-4.937V41.635h4.937zm8.514 0V63h-4.937V41.635h4.937z"/><path d="M40.425 88.932h3.522V90h-4.836V79.938h1.314v8.994zm4.427-2.916c0-.808.164-1.516.491-2.122.327-.616.775-1.092 1.343-1.429a3.74 3.74 0 0 1 1.92-.505c.693 0 1.294.149 1.804.448s.89.674 1.14 1.126v-1.444h1.328V90H51.55v-1.472c-.26.462-.65.847-1.169 1.155-.51.298-1.107.448-1.79.448-.703 0-1.338-.173-1.905-.52s-1.015-.832-1.343-1.458-.491-1.338-.491-2.136zm6.698.014c0-.597-.12-1.116-.361-1.559s-.568-.78-.982-1.011c-.404-.241-.852-.361-1.343-.361a2.66 2.66 0 0 0-1.343.346c-.404.231-.727.568-.967 1.011s-.361.962-.361 1.559c0 .606.12 1.136.361 1.588.241.443.563.784.967 1.025.404.231.852.346 1.343.346s.938-.115 1.343-.346c.414-.241.741-.582.982-1.025.241-.452.361-.977.361-1.574zm6.349 4.1c-.606 0-1.15-.101-1.631-.303-.481-.212-.861-.501-1.141-.866a2.34 2.34 0 0 1-.462-1.285h1.357c.038.395.221.717.549.967.337.25.775.375 1.314.375.5 0 .895-.111 1.184-.332s.433-.5.433-.837a.81.81 0 0 0-.462-.765c-.308-.173-.784-.342-1.429-.505-.587-.154-1.068-.308-1.444-.462a2.74 2.74 0 0 1-.953-.707c-.26-.318-.39-.731-.39-1.242a1.87 1.87 0 0 1 .361-1.112c.241-.337.582-.602 1.025-.794.443-.202.948-.303 1.516-.303.876 0 1.583.221 2.122.664s.828 1.049.866 1.819H59.4c-.029-.414-.197-.746-.505-.996-.298-.25-.703-.375-1.213-.375-.472 0-.847.101-1.126.303s-.419.467-.419.794c0 .26.082.476.245.65a2.11 2.11 0 0 0 .635.404 13.91 13.91 0 0 0 1.068.332c.568.154 1.03.308 1.386.462.356.144.659.366.91.664.26.298.395.688.404 1.169a2 2 0 0 1-.361 1.169c-.241.346-.582.621-1.025.823-.433.192-.934.289-1.501.289zm6.344-6.958v4.663c0 .385.082.659.245.823.164.154.448.231.852.231h.967V90h-1.184c-.731 0-1.28-.168-1.646-.505s-.549-.89-.549-1.66v-4.663h-1.025v-1.083h1.025v-1.992h1.314v1.992h2.064v1.083h-2.064zm9.107 0v4.663c0 .385.082.659.245.823.164.154.448.231.852.231h.967V90H74.23c-.731 0-1.28-.168-1.646-.505s-.549-.89-.549-1.66v-4.663h-1.025v-1.083h1.025v-1.992h1.314v1.992h2.064v1.083H73.35zm7.583-1.227c.597 0 1.136.13 1.617.39a2.63 2.63 0 0 1 1.126 1.14c.279.51.419 1.131.419 1.862V90h-1.299v-4.475c0-.789-.197-1.391-.592-1.805-.395-.423-.933-.635-1.617-.635-.693 0-1.246.216-1.66.65-.404.433-.606 1.063-.606 1.891V90h-1.314V79.318h1.314v3.898c.26-.404.616-.717 1.068-.938.462-.221.977-.332 1.545-.332zm12.323.144V90h-1.314v-1.169c-.25.404-.602.722-1.054.953-.443.221-.933.332-1.472.332-.616 0-1.169-.125-1.66-.375-.491-.26-.881-.645-1.169-1.155-.279-.51-.419-1.131-.419-1.862v-4.634h1.299v4.461c0 .78.197 1.381.592 1.804.394.414.933.621 1.617.621.703 0 1.256-.217 1.66-.65s.606-1.064.606-1.891v-4.345h1.314zm3.532 1.285c.231-.452.558-.804.982-1.054.433-.25.958-.375 1.573-.375v1.357h-.346c-1.472 0-2.209.799-2.209 2.396V90h-1.314v-7.911h1.314v1.285zm6.872 6.756c-.606 0-1.15-.101-1.631-.303-.481-.212-.862-.501-1.141-.866-.279-.375-.433-.804-.462-1.285h1.357a1.34 1.34 0 0 0 .549.967c.337.25.775.375 1.314.375.5 0 .895-.111 1.183-.332s.433-.5.433-.837a.81.81 0 0 0-.462-.765c-.308-.173-.784-.342-1.429-.505-.587-.154-1.068-.308-1.443-.462-.366-.164-.684-.399-.953-.707-.26-.318-.39-.731-.39-1.242 0-.404.12-.775.361-1.112s.582-.602 1.025-.794c.443-.202.948-.303 1.516-.303.876 0 1.583.221 2.122.664s.827 1.049.866 1.819h-1.314c-.029-.414-.197-.746-.505-.996-.298-.25-.703-.375-1.213-.375-.471 0-.846.101-1.126.303s-.418.467-.418.794a.91.91 0 0 0 .245.65c.173.164.385.298.635.404a13.86 13.86 0 0 0 1.069.332c.567.154 1.029.308 1.385.462a2.29 2.29 0 0 1 .91.664c.26.298.395.688.404 1.169a2 2 0 0 1-.361 1.169c-.24.346-.582.621-1.025.823-.433.192-.933.289-1.501.289zm4.251-4.114c0-.808.163-1.516.491-2.122.327-.616.774-1.092 1.342-1.429.578-.337 1.222-.505 1.934-.505a3.53 3.53 0 0 1 1.718.433c.53.279.934.65 1.213 1.112v-4.186h1.328V90h-1.328v-1.487c-.26.472-.645.861-1.155 1.169-.51.298-1.107.448-1.79.448-.702 0-1.342-.173-1.92-.52a3.64 3.64 0 0 1-1.342-1.458c-.328-.625-.491-1.338-.491-2.136zm6.698.014c0-.597-.12-1.116-.361-1.559s-.568-.78-.982-1.011c-.404-.241-.851-.361-1.342-.361a2.66 2.66 0 0 0-1.343.347c-.404.231-.726.568-.967 1.01s-.361.962-.361 1.559c0 .606.121 1.136.361 1.588a2.62 2.62 0 0 0 .967 1.025 2.66 2.66 0 0 0 1.343.346c.491 0 .938-.115 1.342-.346.414-.241.741-.582.982-1.025.241-.452.361-.977.361-1.574zm3.057-.014c0-.808.164-1.516.491-2.122.327-.616.775-1.092 1.343-1.429.577-.337 1.217-.505 1.919-.505.693 0 1.295.149 1.805.448s.89.674 1.14 1.126v-1.444h1.328V90h-1.328v-1.472c-.259.462-.649.847-1.169 1.155-.51.298-1.107.448-1.79.448-.702 0-1.338-.173-1.905-.52s-1.016-.832-1.343-1.458-.491-1.338-.491-2.136zm6.698.014c0-.597-.12-1.116-.36-1.559s-.568-.78-.982-1.011c-.404-.241-.852-.361-1.343-.361s-.938.115-1.342.347a2.51 2.51 0 0 0-.967 1.01c-.241.443-.361.962-.361 1.559 0 .606.12 1.136.361 1.588.24.443.563.784.967 1.025.404.231.852.346 1.342.346s.939-.115 1.343-.346c.414-.241.741-.582.982-1.025.24-.452.36-.977.36-1.574zm10.362-3.941l-4.764 11.635h-1.357l1.559-3.811-3.19-7.824h1.458l2.483 6.409 2.454-6.409h1.357zm8.619 8.041c-.741 0-1.414-.168-2.021-.505-.596-.337-1.068-.813-1.414-1.429-.337-.626-.506-1.347-.506-2.165 0-.808.174-1.521.52-2.136.356-.626.837-1.102 1.444-1.429.606-.337 1.285-.505 2.035-.505s1.429.168 2.036.505a3.55 3.55 0 0 1 1.429 1.415c.356.616.534 1.333.534 2.151s-.183 1.54-.549 2.165c-.356.616-.842 1.092-1.458 1.429s-1.299.505-2.05.505zm0-1.155c.472 0 .915-.111 1.329-.332s.745-.553.996-.996c.259-.443.389-.982.389-1.617s-.125-1.174-.375-1.617-.577-.77-.982-.982a2.69 2.69 0 0 0-1.313-.332 2.72 2.72 0 0 0-1.328.332c-.395.212-.713.539-.953.982s-.361.982-.361 1.617c0 .645.115 1.189.346 1.631.241.443.559.775.953.996.395.212.828.318 1.299.318zm9.003-5.803h-1.66V90h-1.313v-6.828h-1.025v-1.083h1.025v-.563c0-.885.226-1.53.678-1.934.462-.414 1.198-.621 2.209-.621v1.097c-.578 0-.987.115-1.227.346-.231.221-.347.592-.347 1.112v.563h1.66v1.083zm12.598 2.57a7.69 7.69 0 0 1-.043.794h-6.323c.048.779.313 1.391.794 1.833.491.433 1.083.65 1.776.65.568 0 1.039-.13 1.415-.39.385-.27.654-.626.808-1.068h1.415c-.212.76-.635 1.381-1.271 1.862-.635.471-1.424.707-2.367.707-.751 0-1.424-.168-2.021-.505-.587-.337-1.049-.813-1.386-1.429-.337-.626-.505-1.347-.505-2.165s.163-1.535.491-2.151a3.41 3.41 0 0 1 1.371-1.415c.597-.337 1.28-.505 2.05-.505.751 0 1.415.164 1.992.491a3.34 3.34 0 0 1 1.328 1.357c.318.568.476 1.213.476 1.934zm-1.356-.274c0-.501-.111-.929-.333-1.285-.221-.366-.524-.64-.909-.823-.375-.192-.794-.289-1.256-.289-.664 0-1.232.212-1.703.635-.462.423-.727 1.01-.794 1.761h4.995zm6.035 3.32l2.454-6.698h1.401L170.375 90h-1.53l-3.104-7.911h1.415l2.468 6.698zm12.365-3.046a7.69 7.69 0 0 1-.043.794h-6.323c.048.779.313 1.391.794 1.833.491.433 1.083.65 1.776.65.567 0 1.039-.13 1.414-.39.385-.27.655-.626.809-1.068h1.415a3.44 3.44 0 0 1-1.271 1.862c-.635.471-1.424.707-2.367.707-.751 0-1.425-.168-2.021-.505-.587-.337-1.049-.813-1.386-1.429-.337-.626-.505-1.347-.505-2.165s.163-1.535.49-2.151.785-1.087 1.372-1.415c.596-.337 1.28-.505 2.05-.505.75 0 1.414.164 1.992.491a3.34 3.34 0 0 1 1.328 1.357c.318.568.476 1.213.476 1.934zm-1.357-.274c0-.501-.11-.929-.332-1.285-.221-.366-.524-.64-.909-.823-.375-.192-.794-.289-1.256-.289-.664 0-1.232.212-1.703.635-.462.423-.727 1.01-.794 1.761h4.994zm4.405-2.093a2.53 2.53 0 0 1 .982-1.054c.433-.25.957-.375 1.573-.375v1.357h-.346c-1.473 0-2.209.799-2.209 2.396V90h-1.314v-7.911h1.314v1.285zm10.885-1.285l-4.764 11.635h-1.357l1.56-3.811-3.191-7.824h1.458l2.483 6.409 2.454-6.409h1.357zm14.683-.144c.615 0 1.164.13 1.645.39.481.25.862.63 1.141 1.14s.418 1.131.418 1.862V90h-1.299v-4.475c0-.789-.197-1.391-.592-1.805-.385-.423-.909-.635-1.573-.635-.684 0-1.227.221-1.632.664-.404.433-.606 1.063-.606 1.891V90h-1.299v-4.475c0-.789-.197-1.391-.592-1.805-.385-.423-.909-.635-1.573-.635-.684 0-1.227.221-1.632.664-.404.433-.606 1.063-.606 1.891V90h-1.314v-7.911h1.314v1.14c.26-.414.606-.731 1.039-.953.443-.221.929-.332 1.458-.332.664 0 1.252.149 1.762.448s.89.736 1.14 1.314a2.59 2.59 0 0 1 1.097-1.299c.51-.308 1.078-.462 1.704-.462zm8.809 8.185c-.741 0-1.414-.168-2.021-.505-.596-.337-1.068-.813-1.414-1.429-.337-.626-.506-1.347-.506-2.165 0-.808.174-1.521.52-2.136.356-.626.837-1.102 1.444-1.429.606-.337 1.284-.505 2.035-.505s1.429.168 2.036.505a3.55 3.55 0 0 1 1.429 1.415c.356.616.534 1.333.534 2.151s-.183 1.54-.549 2.165c-.356.616-.842 1.092-1.458 1.429s-1.299.505-2.05.505zm0-1.155a2.77 2.77 0 0 0 1.328-.332c.414-.221.746-.553.996-.996.26-.443.39-.982.39-1.617s-.125-1.174-.375-1.617-.578-.77-.982-.982a2.69 2.69 0 0 0-1.313-.332c-.482 0-.924.111-1.328.332-.395.212-.713.539-.953.982s-.361.982-.361 1.617c0 .645.115 1.189.346 1.631.241.443.559.775.953.996.395.212.828.318 1.299.318zm9.638-7.03c.963 0 1.742.294 2.339.881.597.578.895 1.415.895 2.512V90h-1.299v-4.475c0-.789-.198-1.391-.592-1.805-.395-.423-.934-.635-1.617-.635-.693 0-1.246.216-1.66.65-.404.433-.606 1.063-.606 1.891V90h-1.314v-7.911h1.314v1.126a2.62 2.62 0 0 1 1.053-.938c.453-.221.948-.332 1.487-.332zm6.982 1.227v4.663c0 .385.082.659.246.823.163.154.447.231.851.231h.968V90h-1.184c-.732 0-1.28-.168-1.646-.505s-.548-.89-.548-1.66v-4.663h-1.025v-1.083h1.025v-1.992h1.313v1.992h2.065v1.083h-2.065zm7.583-1.227c.596 0 1.135.13 1.617.39.481.25.856.63 1.126 1.14.279.51.418 1.131.418 1.862V90h-1.299v-4.475c0-.789-.197-1.391-.592-1.805-.394-.423-.933-.635-1.617-.635-.693 0-1.246.216-1.66.65-.404.433-.606 1.063-.606 1.891V90h-1.314V79.318h1.314v3.898a2.6 2.6 0 0 1 1.068-.938c.462-.221.977-.332 1.545-.332zM40.584 112.199c.096.549.318.972.664 1.271.356.298.832.447 1.429.447.799 0 1.386-.312 1.761-.938.385-.626.568-1.679.548-3.161-.202.433-.539.774-1.011 1.024-.472.241-.996.361-1.573.361-.645 0-1.222-.13-1.732-.389a2.95 2.95 0 0 1-1.184-1.17c-.289-.51-.433-1.126-.433-1.847 0-1.03.298-1.858.895-2.483.597-.636 1.444-.953 2.541-.953 1.347 0 2.291.438 2.829 1.313.549.876.823 2.18.823 3.913 0 1.212-.111 2.213-.332 3.002-.212.789-.578 1.391-1.097 1.805-.51.414-1.213.62-2.108.62-.982 0-1.747-.264-2.295-.794s-.861-1.203-.938-2.021h1.213zm2.035-2.107c.645 0 1.174-.197 1.588-.592.414-.404.621-.948.621-1.631 0-.722-.202-1.304-.606-1.747s-.972-.664-1.703-.664c-.674 0-1.213.212-1.617.635-.395.424-.592.982-.592 1.675 0 .702.197 1.265.592 1.689s.967.635 1.718.635zm6.004 4.995c-.25 0-.462-.087-.635-.26s-.26-.385-.26-.635.087-.462.26-.636.385-.259.635-.259a.8.8 0 0 1 .606.259c.173.174.26.385.26.636s-.087.462-.26.635a.8.8 0 0 1-.606.26zm0-6.179c-.25 0-.462-.087-.635-.26s-.26-.385-.26-.635.087-.462.26-.635.385-.26.635-.26a.8.8 0 0 1 .606.26c.173.173.26.385.26.635s-.087.462-.26.635a.8.8 0 0 1-.606.26zm2.438.765c0-1.655.269-2.945.808-3.869.539-.933 1.482-1.4 2.829-1.4 1.338 0 2.276.467 2.815 1.4.539.924.808 2.214.808 3.869 0 1.684-.269 2.993-.808 3.927s-1.477 1.4-2.815 1.4c-1.347 0-2.29-.467-2.829-1.4s-.808-2.243-.808-3.927zm5.962 0c0-.837-.058-1.544-.173-2.122-.106-.587-.332-1.058-.678-1.415-.337-.356-.828-.534-1.472-.534-.654 0-1.155.178-1.501.534-.337.357-.563.828-.678 1.415-.106.578-.159 1.285-.159 2.122 0 .866.053 1.593.159 2.18.115.587.342 1.059.678 1.415.346.356.847.534 1.501.534.645 0 1.136-.178 1.472-.534.346-.356.573-.828.678-1.415.116-.587.173-1.314.173-2.18zm3.103 0c0-1.655.27-2.945.808-3.869.539-.933 1.482-1.4 2.829-1.4 1.338 0 2.276.467 2.815 1.4.539.924.808 2.214.808 3.869 0 1.684-.269 2.993-.808 3.927s-1.477 1.4-2.815 1.4c-1.347 0-2.29-.467-2.829-1.4s-.808-2.243-.808-3.927zm5.962 0c0-.837-.058-1.544-.173-2.122-.106-.587-.332-1.058-.678-1.415-.337-.356-.828-.534-1.472-.534-.654 0-1.155.178-1.501.534-.337.357-.563.828-.679 1.415-.106.578-.159 1.285-.159 2.122 0 .866.053 1.593.159 2.18.116.587.342 1.059.679 1.415.346.356.847.534 1.501.534.645 0 1.136-.178 1.472-.534.346-.356.573-.828.678-1.415.115-.587.173-1.314.173-2.18zm9.267 3.089h-4.388L70.158 115h-1.386l3.638-10.004h1.516L77.549 115h-1.386l-.808-2.238zm-.375-1.068l-1.819-5.081-1.819 5.081h3.638zm14.361-6.684V115h-1.314v-7.449L84.707 115h-.924l-3.335-7.463V115h-1.314v-9.99h1.415l3.696 8.258 3.696-8.258h1.4zm12.804 2.873c0 .837-.289 1.535-.866 2.093-.568.549-1.439.823-2.613.823h-1.934V115h-1.314v-10.062h3.248c1.136 0 1.997.275 2.584.823.597.549.895 1.256.895 2.122zm-3.479 1.834c.731 0 1.27-.159 1.617-.477s.519-.77.519-1.357c0-1.241-.712-1.862-2.136-1.862h-1.934v3.696h1.934zm8.302 5.384c-.664 0-1.261-.115-1.79-.346-.52-.241-.929-.568-1.227-.982-.299-.423-.452-.909-.462-1.458h1.4c.048.472.241.871.578 1.198.346.318.846.476 1.501.476.625 0 1.116-.153 1.472-.461.366-.318.549-.722.549-1.213 0-.385-.106-.698-.318-.938s-.476-.424-.794-.549-.745-.26-1.284-.404c-.664-.173-1.199-.347-1.603-.52a2.67 2.67 0 0 1-1.025-.808c-.279-.376-.418-.876-.418-1.502 0-.548.139-1.034.418-1.458s.669-.75 1.17-.981c.51-.231 1.092-.347 1.746-.347.943 0 1.713.236 2.31.708.606.471.948 1.097 1.025 1.876h-1.444c-.048-.385-.25-.721-.606-1.01-.356-.299-.828-.448-1.415-.448-.548 0-.996.145-1.342.433-.347.279-.52.674-.52 1.184 0 .366.101.664.303.895.212.231.467.409.765.534a16.63 16.63 0 0 0 1.285.404c.664.183 1.198.366 1.603.549a2.59 2.59 0 0 1 1.039.823c.289.366.433.866.433 1.501 0 .491-.13.953-.39 1.386s-.645.784-1.155 1.054-1.111.404-1.804.404zm11.475-10.163v1.069h-2.743V115h-1.313v-8.993h-2.758v-1.069h6.814z"/></g><path d="M158.628 345.422h1v1h-1v-1zm0-.002h-1v-1h1v1zm-82.775.002l-1 .006-.006-1.006h1.005v1zm0 .084h1v1h-1v-1zm-27.853 0v1h-1v-1h1zm22.525-11.42l.969.245-.386 1.525-1.217-.996.634-.774zm82.248-11.142l.147.989-.681.102-.338-.601.872-.49zM178 345.42h1v1h-1v-1zm-20.372.002h0v-.002l2 .001v.001h-2zm-81.775-1h82.775v2H75.853v-2zm1 .995v.089h-2v-.078l2-.011zm-1 1.089H48v-2h27.853v2zm-28.853-1c0-8.531 6.643-15.515 14.927-15.515v2c-7.102 0-12.927 6.01-12.927 13.515h-2zm14.927-15.515c3.488 0 6.695 1.244 9.232 3.321l-1.267 1.548c-2.198-1.801-4.963-2.869-7.965-2.869v-2zM113.874 301c-20.383 0-37.526 14.155-42.38 33.331l-1.939-.49C74.624 313.816 92.536 299 113.874 299v2zm38.027 22.434C144.363 310.027 130.153 301 113.874 301v-2c17.041 0 31.898 9.451 39.77 23.454l-1.743.98zm.724-1.479a22.62 22.62 0 0 1 3.332-.246v2a20.55 20.55 0 0 0-3.037.224l-.295-1.978zm3.332-.246c12.756 0 23.043 10.642 23.043 23.711h-2c0-12.021-9.448-21.711-21.043-21.711v-2zM178 346.42h-19.372v-2H178v2z" fill="url(#A)"/><path d="M299.102 263.518h1v1h-1v-1zm0-.001h-1v-1h1v1zm-33.747.001l-1 .006-.005-1.006h1.005v1zm0 .034h1v1h-1v-1zm-11.355 0v1h-1v-1h1zm9.183-4.656l.97.246-.386 1.525-1.217-.997.633-.774zm33.532-4.542l.147.989-.681.102-.338-.601.872-.49zM307 263.517h1v1h-1v-1zm-8.898.001h0v-.001l2 .001h-2zm-32.747-1h33.747v2h-33.747v-2zm1 .995v.039h-2v-.028l2-.011zm-1 1.039H254v-2h11.355v2zm-12.355-1c0-3.781 2.951-6.918 6.678-6.918v2c-2.546 0-4.678 2.162-4.678 4.918h-2zm6.678-6.918c1.566 0 3.004.56 4.139 1.489l-1.267 1.547c-.797-.652-1.792-1.036-2.872-1.036v-2zM280.856 246c-8.026 0-14.788 5.575-16.703 13.142l-1.939-.491c2.13-8.415 9.66-14.651 18.642-14.651v2zm14.987 8.844c-2.974-5.29-8.576-8.844-14.987-8.844v-2c7.173 0 13.422 3.979 16.731 9.864l-1.744.98zm.725-1.479a9.85 9.85 0 0 1 1.445-.107v2c-.391 0-.775.029-1.151.085l-.294-1.978zm1.445-.107c5.544 0 9.987 4.621 9.987 10.259h-2c0-4.59-3.603-8.259-7.987-8.259v-2zM307 264.517h-7.898v-2H307v2z" fill="url(#B)"/><path d="M244.136 276.952l-.789-1.612c-2.208-5.321-29.332-13.384-31.539-13.545l-1.735.161c-3.312.645-6.939 3.709-14.035 9.998-1.419 1.29-3.312 1.612-5.047.645-9.304-5.321-20.658-15.964-26.335-22.413-6.15-6.934-13.562-18.382-17.031-27.573-.631-1.774 0-3.709 1.261-4.999 8.043-7.417 11.512-10.964 11.827-14.834.158-2.258-4.573-30.798-9.461-33.539l-1.42-.968c-3.154-2.096-7.885-5.159-13.089-4.031-1.261.323-2.523.807-3.627 1.452-3.469 2.257-12.142 8.384-16.085 16.285-2.365 4.999-3.469 50.308 29.647 88.523 32.802 37.893 73.33 39.505 79.322 38.215h.158l.473-.161c8.201-3.064 15.139-10.965 17.82-14.351 4.889-5.966 1.577-13.222-.315-17.253z" fill="url(#C)"/><g fill-rule="evenodd"><path d="M282.772 170.721a12.44 12.44 0 0 1 8.747-3.564c-6.831 0-12.366-5.439-12.369-12.157 0 3.359-1.388 6.397-3.622 8.597-2.241 2.203-5.333 3.56-8.747 3.56 3.414 0 6.509 1.364 8.747 3.564a12.14 12.14 0 0 1 2.729 4.047v52.231h2v-52.715a12.17 12.17 0 0 1 2.515-3.563z" fill="url(#D)"/><path d="M66.991 233.721c2.241-2.203 5.333-3.564 8.747-3.564-6.831 0-12.366-5.439-12.369-12.157 0 3.359-1.388 6.397-3.622 8.597-2.241 2.203-5.333 3.56-8.747 3.56 3.414 0 6.509 1.364 8.747 3.564 1.167 1.145 2.102 2.519 2.729 4.047v52.231h2v-52.715c.619-1.335 1.475-2.541 2.516-3.563z" fill="url(#E)"/></g><path d="M222 204.001a6.98 6.98 0 0 0-7 6.999 6.97 6.97 0 0 0-2.05-4.947 6.98 6.98 0 0 0-4.95-2.052c1.932 0 3.682-.782 4.95-2.05S215 198.934 215 197c.002 3.868 3.134 7.001 7 7.001z" fill="#caf6d7"/><path fill="#e65678" d="M104.999 264l2.999 2.999-2.999 2.999-2.999-2.999z"/><path d="M269 306l4 7h-8l4-7z" fill="#caf6d7"/><defs><linearGradient id="A" x1="113" y1="300" x2="113" y2="345.506" xlink:href="#F"><stop stop-color="#82add4"/><stop offset="1" stop-color="#82add4" stop-opacity="0"/></linearGradient><linearGradient id="B" x1="280.5" y1="245" x2="280.5" y2="261" xlink:href="#F"><stop stop-color="#82add4"/><stop offset="1" stop-color="#82add4" stop-opacity="0"/></linearGradient><linearGradient id="C" x1="181.363" y1="156.786" x2="181.363" y2="309" xlink:href="#F"><stop stop-color="#82add4"/><stop offset="1" stop-color="#325270"/></linearGradient><linearGradient id="D" x1="279.15" y1="155" x2="279.15" y2="228.999" xlink:href="#F"><stop stop-color="#82add4"/><stop offset="1" stop-color="#82add4" stop-opacity="0"/></linearGradient><linearGradient id="E" x1="63.369" y1="218" x2="63.369" y2="291.999" xlink:href="#F"><stop stop-color="#82add4"/><stop offset="1" stop-color="#82add4" stop-opacity="0"/></linearGradient><linearGradient id="F" gradientUnits="userSpaceOnUse"/></defs></svg>