<svg xmlns="http://www.w3.org/2000/svg" xmlns:xlink="http://www.w3.org/1999/xlink" width="340" height="337" fill="none" xmlns:v="https://vecta.io/nano"><g fill="#e65678"><path d="M59.522 36.326c0-8.19 6.641-14.831 14.831-14.831s14.831 6.64 14.831 14.831H59.522z"/><path d="M.124 36.327c0-16.407 13.302-29.709 29.709-29.709S59.538 19.92 59.538 36.327H.124zM0 336.612h41.536v-41.536H0v41.536z"/></g><path d="M41.536 295.157h120.28V175.742H41.536v119.415z" fill="#ffc267"/><path d="M161.816 175.661h177.392V0H161.816v175.661z" fill="#2eb67d"/><path d="M133.26 229.4l-36.429 56.158-.122-43.524H68.361l36.586-55.989v43.485l28.313-.13z" fill="#1eb4d4"/><path d="M30.286 315.411c0-5.496-4.262-9.951-9.518-9.951s-9.519 4.455-9.519 9.951 4.262 9.951 9.519 9.951 9.519-4.455 9.519-9.951z" fill="#111b29"/><g fill="#1eb4d4"><path d="M268.448 252.711c0-9.757-7.911-17.668-17.668-17.668s-17.667 7.911-17.667 17.668h35.335z"/><path d="M339.208 252.712c0-19.545-15.847-35.392-35.392-35.392s-35.386 15.847-35.386 35.392h70.778z"/></g><path d="M21.718 87.902L10.921 77.106.124 87.902l10.797 10.797 10.797-10.797z" fill="#2eb67d"/><path d="M106.164 97.752V78.059H86.471v19.693h19.693z" fill="#1eb4d4"/><path d="M53.798 77.345c-5.634 0-10.201 4.567-10.201 10.201s4.567 10.201 10.201 10.201 10.201-4.567 10.201-10.201-4.567-10.201-10.201-10.201z" fill="#e65678"/><path d="M255.522 315.903l-10.797-10.797-10.796 10.797 10.796 10.797 10.797-10.797z" fill="#2eb67d"/><path d="M339.581 326.107v-19.694h-19.694v19.694h19.694z" fill="#1eb4d4"/><path d="M287.948 305.346c-5.634 0-10.201 4.567-10.201 10.201s4.567 10.2 10.201 10.2 10.201-4.567 10.201-10.2-4.567-10.201-10.201-10.201z" fill="#e65678"/><path d="M312.693 87.884c-17.183 0-32.737 6.982-43.987 18.231s-18.195 26.805-18.195 43.951a62 62 0 0 0-18.196-43.951c-11.25-11.25-26.804-18.231-43.986-18.231 17.182 0 32.736-6.945 43.986-18.195a62 62 0 0 0 18.196-43.987c-.037 34.365 27.817 62.182 62.182 62.182z" fill="#f8f8f8"/><g fill="#2eb67d"><path d="M13.391 249.069l-11.903-7.033v-14.039l11.903-7.032 11.903 7.032v14.039l-11.903 7.033zm-10.541-7.81l10.545 6.23 10.545-6.23v-12.488l-10.545-6.23-10.545 6.23v12.488z"/><use xlink:href="#B"/><use xlink:href="#B" y="25.847"/><use xlink:href="#B" x="-10.886" y="19.046"/><use xlink:href="#B" x="10.881" y="19.046"/><use xlink:href="#B" x="-10.886" y="6.8"/><use xlink:href="#B" x="10.881" y="6.8"/><path d="M25.783 242.158H.997l12.393-21.782 12.393 21.782zm-22.445-1.362h20.107l-10.055-17.67-10.051 17.67z"/></g><defs ><path id="B" d="M13.392 224.474c1.316 0 2.382-1.067 2.382-2.382a2.38 2.38 0 1 0-4.764 0c0 1.315 1.067 2.382 2.382 2.382z"/></defs></svg>