<svg xmlns="http://www.w3.org/2000/svg" width="32" height="32" fill="none"  stroke="#1b2738" stroke-width="2" stroke-linecap="round" stroke-linejoin="round" xmlns:v="https://vecta.io/nano"><path d="M26 8V2.491a1.5 1.5 0 0 0-.447-1.056c-.283-.279-.664-.436-1.061-.435H2.5c-.395-.001-.775.154-1.056.432S1.003 2.087 1 2.483v18.025a1.51 1.51 0 0 0 .447 1.057A1.5 1.5 0 0 0 2.508 22H5M1 6h25m4.848 25l.133-1.497a4 4 0 0 0-3.116-4.267l-4.868-1.081V16.5a2.67 2.67 0 0 0-.819-1.743c-.481-.459-1.115-.722-1.78-.737-.321.003-.638.07-.933.196a2.42 2.42 0 0 0-1.3 1.344 2.43 2.43 0 0 0-.166.94v12.267L16.03 27.29c-.394-.294-.88-.436-1.37-.401a2.04 2.04 0 0 0-1.298.593 2.05 2.05 0 0 0-.594 1.298c-.036.49.107.976.4 1.37l.633.844M7.533 18.459a2.96 2.96 0 0 0 2.477 1.167c1.519 0 2.751-.924 2.751-2.063s-1.232-2.063-2.75-2.063-2.749-.924-2.749-2.064 1.231-2.063 2.749-2.063a2.96 2.96 0 0 1 1.38.277c.431.202.807.505 1.097.883"/><path d="M10.011 19.625V21m0-11v1.373"/></svg>