<svg xmlns="http://www.w3.org/2000/svg" width="28" height="33" fill="none"  stroke="#000" stroke-width="2" stroke-linejoin="round" xmlns:v="https://vecta.io/nano"><path d="M4 1.619h20v6.014H4V1.619z"/><g stroke-linecap="round"><path d="M14 7.633v18.042"/><path d="M4 25.675v-6.014c0-.532.211-1.042.586-1.418A2 2 0 0 1 6 17.656h16a2 2 0 0 1 1.414.587c.375.376.586.886.586 1.418v6.014"/></g><path d="M1 28.682a3.03 3.03 0 0 0 .228 1.151 3.01 3.01 0 0 0 .65.976 3 3 0 0 0 .973.652c.364.151.754.229 1.148.229s.784-.078 1.148-.229a3 3 0 0 0 .973-.652c.279-.279.5-.611.65-.976a3.03 3.03 0 0 0 .002-2.302 3.01 3.01 0 0 0-.65-.976 3 3 0 0 0-.973-.652c-.364-.151-.754-.229-1.148-.229s-.784.078-1.148.229a3 3 0 0 0-.973.652c-.279.279-.5.611-.65.976A3.03 3.03 0 0 0 1 28.682h0zm10 0a3.01 3.01 0 0 0 .228 1.151 3.03 3.03 0 0 0 .65.976 3 3 0 0 0 .973.652c.364.151.754.229 1.148.229s.784-.078 1.148-.229a3 3 0 0 0 .973-.652c.279-.279.5-.611.65-.976a3.01 3.01 0 0 0 0-2.301 3.03 3.03 0 0 0-.65-.976 3 3 0 0 0-.973-.652c-.364-.151-.754-.229-1.148-.229s-.784.078-1.148.229a3 3 0 0 0-.973.652c-.279.279-.5.611-.65.976a3.01 3.01 0 0 0-.228 1.15h0zm10 0a3.01 3.01 0 0 0 .228 1.151 3.03 3.03 0 0 0 .65.976 3 3 0 0 0 .973.652c.364.151.754.229 1.148.229s.784-.078 1.148-.229a3 3 0 0 0 .973-.652c.279-.279.5-.611.65-.976a3.01 3.01 0 0 0 0-2.301 3.03 3.03 0 0 0-.65-.976 3 3 0 0 0-.973-.652c-.364-.151-.754-.229-1.148-.229s-.784.078-1.148.229a3 3 0 0 0-.973.652c-.279.279-.5.611-.65.976a3.01 3.01 0 0 0-.228 1.15h0z"/></svg>