<svg xmlns="http://www.w3.org/2000/svg" width="33" height="34" fill="none"  stroke="#1b2738" stroke-width="2" stroke-linejoin="round" xmlns:v="https://vecta.io/nano"><path d="M15.013 15.956h16v16.138h-16V15.956z"/><path d="M19.013 19.991h8m-8 4.034h8m-8 4.035h3m7.978-16.138a6.52 6.52 0 0 0-1.802-1.879 6.46 6.46 0 0 0-2.387-1.018 6.43 6.43 0 0 0-2.592.006c-.855.178-1.665.528-2.383 1.029a10.12 10.12 0 0 0-2.523-5.026c-1.297-1.4-2.963-2.397-4.801-2.877a9.92 9.92 0 0 0-5.582.169c-1.807.59-3.41 1.686-4.622 3.162a10.13 10.13 0 0 0-2.22 5.169 10.17 10.17 0 0 0 .874 5.564 10.06 10.06 0 0 0 3.696 4.223c1.605 1.025 3.465 1.568 5.365 1.566" stroke-linecap="round"/></svg>