<svg xmlns="http://www.w3.org/2000/svg" width="32" height="32" fill="none"  stroke="#1b2738" stroke-width="2" stroke-linejoin="round" xmlns:v="https://vecta.io/nano"><path d="M11.586 25.585a2 2 0 0 1-2.828 0l-7.172-7.171A2 2 0 0 1 1 17a2 2 0 0 1 .586-1.415l14-14A2 2 0 0 1 17.001 1h7.171a2 2 0 0 1 2 2v7.172a2 2 0 0 1-.585 1.413" stroke-linecap="round"/><path d="M21.171 5.5a.5.5 0 0 0-.354.854.5.5 0 0 0 .854-.354.5.5 0 0 0-.5-.5zm-7 17.5a8 8 0 0 0 .609 3.061 7.98 7.98 0 0 0 1.734 2.595 8 8 0 0 0 11.314.001 8 8 0 0 0 0-11.314 8 8 0 0 0-11.314 0c-.743.743-1.332 1.625-1.734 2.595A8 8 0 0 0 14.171 23h0z"/><path d="M27.829 17.343L16.517 28.656" stroke-linecap="round"/></svg>