<svg width="32" height="32" viewBox="0 0 32 32" fill="none" xmlns="http://www.w3.org/2000/svg">
<path d="M15.0005 23.001C15.0005 25.1227 15.8433 27.1575 17.3436 28.6578C18.8439 30.1581 20.8788 31.001 23.0005 31.001C25.1222 31.001 27.1571 30.1581 28.6573 28.6578C30.1576 27.1575 31.0005 25.1227 31.0005 23.001C31.0005 20.8792 30.1576 18.8444 28.6573 17.3441C27.1571 15.8438 25.1222 15.001 23.0005 15.001C20.8788 15.001 18.8439 15.8438 17.3436 17.3441C15.8433 18.8444 15.0005 20.8792 15.0005 23.001Z" stroke="#1B2738" stroke-width="2" stroke-linecap="round" stroke-linejoin="round"/>
<path d="M26.5365 23.001H23.0005V19.4663" stroke="#1B2738" stroke-width="2" stroke-linecap="round" stroke-linejoin="round"/>
<path d="M13.9924 30.8675C11.2213 30.4931 8.61004 29.3515 6.45328 27.5718C4.29653 25.792 2.68015 23.4448 1.78657 20.7951C0.892994 18.1455 0.75779 15.2988 1.39622 12.5763C2.03465 9.85391 3.42129 7.3641 5.39966 5.38792C7.37803 3.41174 9.86937 2.02785 12.5925 1.39244C15.3156 0.757022 18.1622 0.895376 20.8109 1.79188C23.4595 2.68839 25.8049 4.30737 27.5823 6.4661C29.3597 8.62482 30.4984 11.2374 30.8698 14.0089" stroke="#1B2738" stroke-width="2" stroke-linecap="round" stroke-linejoin="round"/>
<path d="M12.3858 30.5621C10.3578 27.5861 9.00049 22.1781 9.00049 16.0008C9.00049 9.82345 10.3578 4.41679 12.3858 1.43945" stroke="#1B2738" stroke-width="2" stroke-linecap="round" stroke-linejoin="round"/>
<path d="M1.03369 15.001H13.731" stroke="#1B2738" stroke-width="2" stroke-linecap="round" stroke-linejoin="round"/>
<path d="M3.99902 7.00098H28.0004" stroke="#1B2738" stroke-width="2" stroke-linecap="round" stroke-linejoin="round"/>
<path d="M2.7312 23.001H11.0005" stroke="#1B2738" stroke-width="2" stroke-linecap="round" stroke-linejoin="round"/>
<path d="M19.615 1.43945C21.3333 4.34295 22.381 7.59371 22.6817 10.9541" stroke="#1B2738" stroke-width="2" stroke-linecap="round" stroke-linejoin="round"/>
</svg>
