<svg xmlns="http://www.w3.org/2000/svg" width="33" height="33" fill="none"  stroke="#1b2738" stroke-width="2" xmlns:v="https://vecta.io/nano"><g stroke-linecap="round" stroke-linejoin="round"><path d="M21.987 12.849A34.78 34.78 0 0 1 16 13.35c-8.284 0-15-2.71-15-6.052s6.716-6.052 15-6.052 15.013 2.708 15.013 6.052a3.94 3.94 0 0 1-.641 1.764 3.9 3.9 0 0 1-1.381 1.261m2.022 5.045V7.299"/><path d="M1 7.299v8.069c0 3.193 6.133 5.807 13.899 6.036"/><path d="M1 15.368v8.069c0 3.739 8.4 6.685 18 5.933"/></g><path d="M27.015 13.351l-7.881 9.255c-.062.073-.102.163-.114.258a.51.51 0 0 0 .042.28c.04.087.104.161.185.213s.174.079.27.079h3.5v8.069l7.88-9.257c.062-.073.102-.163.115-.258s-.001-.192-.041-.28a.5.5 0 0 0-.184-.213c-.08-.052-.174-.079-.269-.079h-3.5v-8.069z" stroke-linejoin="round"/></svg>