<svg xmlns="http://www.w3.org/2000/svg" width="32" height="32" fill="none"  stroke="#1b2738" stroke-width="2" stroke-linejoin="round" xmlns:v="https://vecta.io/nano"><path d="M15.001 23.001a8 8 0 0 0 8 8 8 8 0 0 0 8-8 8 8 0 0 0-8-8 8 8 0 0 0-8 8z"/><g stroke-linecap="round"><path d="M26.537 23.001h-3.536v-3.535m-9.009 11.402A15 15 0 0 1 5.4 5.388a15 15 0 0 1 25.47 8.621"/><path d="M12.386 30.562C10.358 27.586 9 22.178 9 16.001s1.357-11.584 3.385-14.561"/><path d="M1.034 15.001h12.697m-9.732-8H28"/><path d="M2.731 23.001H11m8.615-21.562c1.718 2.904 2.766 6.154 3.067 9.515"/></g></svg>