<svg width="30" height="32" viewBox="0 0 30 32" fill="none" xmlns="http://www.w3.org/2000/svg">
<path d="M7 12C7 12.7956 7.84286 13.5587 9.34315 14.1213C10.8434 14.6839 12.8783 15 15 15C17.1217 15 19.1566 14.6839 20.6569 14.1213C22.1571 13.5587 23 12.7956 23 12C23 11.2044 22.1571 10.4413 20.6569 9.87868C19.1566 9.31607 17.1217 9 15 9C12.8783 9 10.8434 9.31607 9.34315 9.87868C7.84286 10.4413 7 11.2044 7 12V12Z" stroke="#111B29" stroke-width="2" stroke-linecap="round" stroke-linejoin="round"/>
<path d="M7 11.9961V15.9961C7 17.6534 10.5813 18.9961 15 18.9961C19.4187 18.9961 23 17.6534 23 15.9961V11.9961" stroke="#111B29" stroke-width="2" stroke-linecap="round" stroke-linejoin="round"/>
<path d="M7 15.9961V19.9961C7 21.6534 10.5813 22.9961 15 22.9961C19.4187 22.9961 23 21.6534 23 19.9961V15.9961" stroke="#111B29" stroke-width="2" stroke-linecap="round" stroke-linejoin="round"/>
<path d="M29 29C29 29.5304 28.7893 30.0391 28.4142 30.4142C28.0391 30.7893 27.5304 31 27 31H3C2.46957 31 1.96086 30.7893 1.58579 30.4142C1.21071 30.0391 1 29.5304 1 29V3C1 2.46957 1.21071 1.96086 1.58579 1.58579C1.96086 1.21071 2.46957 1 3 1H23C23.5222 1.00006 24.0238 1.2044 24.3973 1.56933L28.3973 5.412C28.5882 5.59842 28.7399 5.82116 28.8434 6.06709C28.9469 6.31302 29.0001 6.57718 29 6.844V29Z" stroke="#111B29" stroke-width="2" stroke-linecap="round" stroke-linejoin="round"/>
</svg>
