<svg width="32" height="32" viewBox="0 0 32 32" fill="none" xmlns="http://www.w3.org/2000/svg">
<path d="M11.5862 25.5853C11.2112 25.9603 10.7026 26.1709 10.1722 26.1709C9.64191 26.1709 9.13329 25.9603 8.75824 25.5853L1.58624 18.4147C1.40039 18.2289 1.25295 18.0084 1.15236 17.7657C1.05177 17.5229 1 17.2628 1 17C1 16.7372 1.05177 16.4771 1.15236 16.2343C1.25295 15.9916 1.40039 15.7711 1.58624 15.5853L15.5862 1.58533C15.772 1.39964 15.9926 1.25238 16.2353 1.15195C16.4781 1.05151 16.7382 0.999881 17.0009 1H24.1716C24.702 1 25.2107 1.21071 25.5858 1.58579C25.9609 1.96086 26.1716 2.46957 26.1716 3V10.172C26.1715 10.7021 25.9609 11.2104 25.5862 11.5853" stroke="#1B2738" stroke-width="2" stroke-linecap="round" stroke-linejoin="round"/>
<path d="M21.1714 5.5C21.0725 5.5 20.9758 5.52932 20.8936 5.58427C20.8114 5.63921 20.7473 5.71729 20.7094 5.80866C20.6716 5.90002 20.6617 6.00055 20.681 6.09754C20.7003 6.19454 20.7479 6.28363 20.8178 6.35355C20.8878 6.42348 20.9769 6.4711 21.0738 6.49039C21.1708 6.50969 21.2714 6.49978 21.3627 6.46194C21.4541 6.4241 21.5322 6.36001 21.5871 6.27778C21.6421 6.19556 21.6714 6.09889 21.6714 6C21.6714 5.86739 21.6187 5.74021 21.5249 5.64645C21.4312 5.55268 21.304 5.5 21.1714 5.5Z" stroke="#1B2738" stroke-width="2" stroke-linecap="round" stroke-linejoin="round"/>
<path d="M14.1714 23C14.1714 24.0506 14.3783 25.0909 14.7803 26.0615C15.1824 27.0321 15.7717 27.914 16.5145 28.6569C17.2574 29.3997 18.1393 29.989 19.1099 30.391C20.0805 30.7931 21.1208 31 22.1714 31C23.222 31 24.2622 30.7931 25.2329 30.391C26.2035 29.989 27.0854 29.3997 27.8282 28.6569C28.5711 27.914 29.1604 27.0321 29.5624 26.0615C29.9645 25.0909 30.1714 24.0506 30.1714 23C30.1714 21.9494 29.9645 20.9091 29.5624 19.9385C29.1604 18.9679 28.5711 18.086 27.8282 17.3431C27.0854 16.6003 26.2035 16.011 25.2329 15.609C24.2622 15.2069 23.222 15 22.1714 15C21.1208 15 20.0805 15.2069 19.1099 15.609C18.1393 16.011 17.2574 16.6003 16.5145 17.3431C15.7717 18.086 15.1824 18.9679 14.7803 19.9385C14.3783 20.9091 14.1714 21.9494 14.1714 23V23Z" stroke="#1B2738" stroke-width="2" stroke-linecap="round" stroke-linejoin="round"/>
<path d="M27.8291 17.3428L16.5171 28.6561" stroke="#1B2738" stroke-width="2" stroke-linecap="round" stroke-linejoin="round"/>
</svg>
