<svg width="32" height="28" viewBox="0 0 32 28" fill="none" xmlns="http://www.w3.org/2000/svg">
<path d="M1 1H31V27H1V1Z" stroke="#111B29" stroke-width="2" stroke-linecap="round" stroke-linejoin="round"/>
<path d="M1 7H31" stroke="#111B29" stroke-width="2" stroke-linecap="round" stroke-linejoin="round"/>
<path d="M9 1V7" stroke="#111B29" stroke-width="2" stroke-linecap="round" stroke-linejoin="round"/>
<path d="M15 1V7" stroke="#111B29" stroke-width="2" stroke-linecap="round" stroke-linejoin="round"/>
<path d="M13 20C13 20.7956 13.3161 21.5587 13.8787 22.1213C14.4413 22.6839 15.2044 23 16 23C16.7956 23 17.5587 22.6839 18.1213 22.1213C18.6839 21.5587 19 20.7956 19 20C19 19.2044 18.6839 18.4413 18.1213 17.8787C17.5587 17.3161 16.7956 17 16 17C15.2044 17 14.4413 17.3161 13.8787 17.8787C13.3161 18.4413 13 19.2044 13 20Z" stroke="#111B29" stroke-width="2" stroke-linecap="round" stroke-linejoin="round"/>
<path d="M6 21H8" stroke="#111B29" stroke-width="2" stroke-linecap="round" stroke-linejoin="round"/>
<path d="M8.92798 13.9277L10.5626 15.5624" stroke="#111B29" stroke-width="2" stroke-linecap="round" stroke-linejoin="round"/>
<path d="M16 11V13" stroke="#111B29" stroke-width="2" stroke-linecap="round" stroke-linejoin="round"/>
<path d="M22 14L18.1213 17.8787" stroke="#111B29" stroke-width="2" stroke-linecap="round" stroke-linejoin="round"/>
<path d="M26 21H24" stroke="#111B29" stroke-width="2" stroke-linecap="round" stroke-linejoin="round"/>
</svg>
