<svg xmlns="http://www.w3.org/2000/svg" xmlns:xlink="http://www.w3.org/1999/xlink" width="30" height="32" fill="none" xmlns:v="https://vecta.io/nano"><g stroke="#111b29" stroke-width="2" stroke-linecap="round" stroke-linejoin="round"><use xlink:href="#B"/><use xlink:href="#B" y="6"/><path d="M17 3.83a12.72 12.72 0 0 0-16 0m3.332 3.471C5.653 6.233 7.3 5.65 8.999 5.65a7.43 7.43 0 0 1 4.667 1.65M11.499 31h-5a4 4 0 0 1-4-4V15a4 4 0 0 1 4-4h5a4 4 0 0 1 4 4m4.001 5l-2.232-1.673a2.09 2.09 0 0 0-2.394-.08c-.238.155-.443.357-.6.594h0a2.09 2.09 0 0 0 0 2.32l2.192 3.289a6 6 0 0 0 2.764 2.243L22.5 28v3m-4.739-18.316l5.532 2.371a6 6 0 0 1 3.152 3.152l1.569 3.66a6 6 0 0 1 .485 2.364V31"/></g><defs ><path id="B" d="M8.999 17c.209 0-.5-.077-.5.5a.5.5 0 0 0 .309.462.5.5 0 0 0 .545-.108.5.5 0 0 0 .108-.545.5.5 0 0 0-.462-.309"/></defs></svg>