<svg xmlns="http://www.w3.org/2000/svg" width="32" height="33" fill="none"  stroke="#111b29" stroke-width="2" xmlns:v="https://vecta.io/nano"><path d="M27 17.005v-10a2 2 0 0 0-2-2h-4m-16 20v4a2 2 0 0 0 2 2h18a2 2 0 0 0 2-2v-4m-16-20H7a2 2 0 0 0-2 2v10m-4 4h7.691a.5.5 0 0 0 .448-.276l2.341-4.684a.5.5 0 0 1 .917.052l3.179 8.744a.5.5 0 0 0 .934.032l3.067-6.9a.5.5 0 0 1 .904-.02l1.387 2.776a.5.5 0 0 0 .448.276H31" stroke-linecap="round" stroke-linejoin="round"/><path d="M18.94 3.005a2.92 2.92 0 0 0-2.94-2 2.92 2.92 0 0 0-2.933 2H12a1 1 0 0 0-1 1v4a1 1 0 0 0 1 1h8a1 1 0 0 0 1-1v-4a1 1 0 0 0-1-1h-1.06z" stroke-linejoin="round"/></svg>