<svg xmlns="http://www.w3.org/2000/svg" width="30" height="32" fill="none"  stroke="#111b29" stroke-width="2" stroke-linejoin="round" xmlns:v="https://vecta.io/nano"><path d="M7 12c0 .796.843 1.559 2.343 2.121S12.878 15 15 15s4.157-.316 5.657-.879S23 12.796 23 12s-.843-1.559-2.343-2.121S17.122 9 15 9s-4.157.316-5.657.879S7 11.204 7 12h0z"/><g stroke-linecap="round"><path d="M7 11.996v4c0 1.657 3.581 3 8 3s8-1.343 8-3v-4"/><path d="M7 15.996v4c0 1.657 3.581 3 8 3s8-1.343 8-3v-4"/></g><path d="M29 29a2 2 0 0 1-2 2H3a2 2 0 0 1-2-2V3a2 2 0 0 1 2-2h20a2 2 0 0 1 1.397.569l4 3.843A2 2 0 0 1 29 6.844V29z"/></svg>