<svg xmlns="http://www.w3.org/2000/svg" width="24.554" height="24"  xmlns:v="https://vecta.io/nano"><path d="M12.297 0C6.251-.003 1.101 4.392.152 10.363S2.737 22.108 8.486 23.98h.3c.565.035 1.051-.394 1.086-.959.003-.042.003-.085 0-.127v-1.332c-.025-.143-.106-.27-.226-.353s-.267-.114-.409-.087c-2.745.594-3.329-1.127-3.37-1.239-.344-.91-.959-1.693-1.762-2.243-.048-.042-.1-.08-.154-.113a.64.64 0 0 1 .389-.072c.523.072.971.414 1.178.9.824 1.435 2.636 1.961 4.1 1.188a.51.51 0 0 0 .3-.369c.039-.474.242-.919.574-1.26a.51.51 0 0 0-.277-.891c-2.428-.277-4.907-1.127-4.907-5.316A4.1 4.1 0 0 1 6.376 8.86a.51.51 0 0 0 .092-.543 3.61 3.61 0 0 1 .01-2.458A5.67 5.67 0 0 1 9.06 7.033a.5.5 0 0 0 .43.072c.915-.246 1.859-.371 2.807-.372s1.899.128 2.817.379a.5.5 0 0 0 .42-.072c.748-.603 1.635-1.008 2.581-1.178a3.66 3.66 0 0 1 0 2.438.51.51 0 0 0 .092.543 4.1 4.1 0 0 1 1.076 2.817c0 4.19-2.489 5.03-4.927 5.306-.281.029-.486.281-.457.562.013.132.078.254.18.339.459.474.687 1.125.625 1.782v3.257c-.01.324.125.636.369.85a1.23 1.23 0 0 0 1.086.195c5.711-1.907 9.2-7.671 8.242-13.616S18.318.015 12.297 0z" fill="#fff"/></svg>