<svg xmlns="http://www.w3.org/2000/svg" width="140" height="168" fill="none"  xmlns:v="https://vecta.io/nano"><mask id="A" mask-type="alpha" maskUnits="userSpaceOnUse" x="0" y="0" width="140" height="168"><path d="M0 8a8 8 0 0 1 8-8h132v167.95H8a8 8 0 0 1-8-8V8z" fill="#c4c4c4"/></mask><g mask="url(#A)"><path d="M-27-2.05h172v172H-27v-172z" fill="#e65678"/><path d="M107.658 96.913a7.8 7.8 0 0 0-2.27-.862V72.948c.775-.195 1.55-.445 2.298-.89 4.126-2.419 5.538-7.673 3.157-11.816-2.409-4.142-7.643-5.56-11.769-3.169-.748.445-1.357.973-1.911 1.585L77.225 47.093c.222-.779.388-1.585.388-2.447C77.612 39.864 73.763 36 69 36s-8.612 3.864-8.612 8.646c0 .862.166 1.668.388 2.447L40.837 58.631c-.554-.584-1.191-1.14-1.911-1.557-4.126-2.419-9.388-1.001-11.769 3.142s-.969 9.425 3.157 11.816c.748.417 1.495.695 2.298.89v23.131c-.775.195-1.551.445-2.271.862-4.126 2.419-5.538 7.674-3.157 11.816s7.615 5.56 11.769 3.17c.72-.417 1.329-.974 1.883-1.557l19.938 11.565c-.221.779-.388 1.585-.388 2.447 0 4.782 3.849 8.646 8.612 8.646s8.612-3.864 8.612-8.646c0-.946-.194-1.863-.471-2.697l19.828-11.482c.609.667 1.274 1.279 2.105 1.751 4.126 2.391 9.387.973 11.769-3.169s.969-9.48-3.185-11.844zm-64.689 5.45c-.194-.779-.443-1.557-.858-2.28s-.969-1.362-1.551-1.918l26.031-45.289c.775.222 1.551.389 2.382.389H69c.831 0 1.606-.167 2.354-.389l26.058 45.289c-.582.556-1.108 1.168-1.551 1.891-.415.723-.692 1.501-.858 2.28H42.969v.028zm52.144-40.174c-.609 2.168-.388 4.587.803 6.672 1.219 2.113 3.185 3.503 5.372 4.059v23.103l-.332.083-26.031-45.261c.083-.083.166-.139.249-.222l19.938 11.566zM62.825 50.624l.222.222-26.031 45.261-.332-.083V72.921c2.188-.556 4.182-1.946 5.4-4.059 1.218-2.085 1.412-4.504.803-6.7l19.938-11.538zm12.489 67.891c-1.578-1.723-3.822-2.835-6.341-2.835a8.55 8.55 0 0 0-6.175 2.641l-19.911-11.51.083-.334h52.006l.166.556-19.828 11.482z" fill="#fff"/></g></svg>