<svg xmlns="http://www.w3.org/2000/svg" width="24.005" height="24"  xmlns:v="https://vecta.io/nano"><path d="M12.005 5.847c-3.398 0-6.153 2.755-6.153 6.153s2.755 6.153 6.153 6.153 6.153-2.755 6.153-6.153c.002-1.633-.645-3.199-1.8-4.353s-2.721-1.802-4.353-1.8zm0 10.154a4 4 0 1 1 0-8 4 4 0 0 1 4 4 4.01 4.01 0 0 1-4 4zm7.84-10.406c0 .793-.642 1.435-1.435 1.435s-1.435-.642-1.435-1.435.642-1.435 1.435-1.435a1.43 1.43 0 0 1 1.436 1.435zm4.075 1.457a7.1 7.1 0 0 0-1.939-5.029A7.15 7.15 0 0 0 16.952.084c-1.981-.112-7.921-.112-9.9 0a7.14 7.14 0 0 0-5.029 1.933C.743 3.375.047 5.18.084 7.046c-.112 1.981-.112 7.921 0 9.9a7.1 7.1 0 0 0 1.939 5.029 7.16 7.16 0 0 0 5.029 1.939c1.981.112 7.921.112 9.9 0a7.1 7.1 0 0 0 5.031-1.939 7.15 7.15 0 0 0 1.939-5.029c.112-1.979.112-7.913-.001-9.894zm-2.559 12.023a4.05 4.05 0 0 1-2.286 2.281c-1.58.627-5.329.482-7.074.482s-5.5.139-7.074-.482a4.05 4.05 0 0 1-2.277-2.281c-.627-1.58-.482-5.329-.482-7.074s-.139-5.5.482-7.074a4.05 4.05 0 0 1 2.281-2.281c1.58-.627 5.329-.482 7.074-.482s5.5-.139 7.074.482a4.05 4.05 0 0 1 2.281 2.281c.627 1.58.482 5.329.482 7.074s.146 5.499-.481 7.074z" fill="#fff"/></svg>