<svg xmlns="http://www.w3.org/2000/svg" xmlns:xlink="http://www.w3.org/1999/xlink" width="421" height="422" fill="none" xmlns:v="https://vecta.io/nano"><g fill="#2eb67d"><path d="M105.36 158.218c0-29.095-23.588-52.676-52.677-52.676S0 129.123 0 158.218h105.36z"/><path d="M157.728 158.219c0-14.463-11.725-26.188-26.187-26.188s-26.188 11.725-26.188 26.188h52.375z"/></g><path d="M344.532 183.853L193.897 422l-.504-184.57H76.17L227.454 0v184.407l117.078-.554z" fill="#ffc267"/><g fill="#f8f8f8"><path d="M301.715 315.187c0-32.871 26.647-59.518 59.518-59.518s59.517 26.647 59.517 59.518H301.715z"/><path d="M242.543 315.186c0-16.338 13.247-29.586 29.585-29.586s29.586 13.248 29.586 29.586h-59.171z"/></g><g fill="#1eb4d4"><path d="M297.873 157.244c0-9.68-7.848-17.528-17.528-17.528s-17.527 7.848-17.527 17.528h35.055z"/><path d="M368.067 157.287c0-19.39-15.721-35.111-35.111-35.111s-35.112 15.721-35.112 35.111h70.223zM122.704 367.516c0-9.679 7.848-17.527 17.528-17.527a17.53 17.53 0 0 1 17.527 17.527h-35.055z"/><path d="M52.506 367.517c0-19.39 15.721-35.111 35.112-35.111s35.105 15.721 35.105 35.111H52.506z"/></g><path d="M122.87 290.187l8.446 8.447 8.447-8.447-8.447-8.446-8.446 8.446z" fill="#2eb67d"/><path d="M17.618 282.482v15.406h15.407v-15.406H17.618z" fill="#1eb4d4"/><path d="M17.617 43.757v15.407h15.407V43.757H17.617z" fill="#2eb67d"/><path d="M78.044 298.446a7.98 7.98 0 1 0 0-15.96 7.98 7.98 0 1 0 0 15.96zm219.563-220.25l-8.447-8.446-8.446 8.446 8.446 8.446 8.447-8.446z" fill="#f8f8f8"/><path d="M402.863 85.9V70.493h-15.406V85.9h15.406z" fill="#2eb67d"/><path d="M342.429 85.894a7.98 7.98 0 1 0 0-15.96 7.98 7.98 0 1 0 0 15.96zM127.714 37.288c1.485-3.594 1.523-10.957-.453-16.671-.51-1.026-2.052-.711-2.121.428l-.026.378c-.346 5.368-2.322 8.333-5.236 9.755-.478.233-1.24.176-1.699-.113-3.468-2.19-7.577-3.455-11.983-3.455a22.39 22.39 0 0 0-12.008 3.468 1.71 1.71 0 0 1-1.492.164c-2.977-1.114-5.06-4.336-5.412-9.818l-.025-.384c-.075-1.139-1.611-1.454-2.121-.428-1.976 5.727-1.938 13.097-.447 16.69.743 1.8.787 3.82.164 5.664-.787 2.354-1.196 4.884-1.158 7.508.189 11.876 10.315 21.977 22.197 22.134 12.568.17 22.808-9.969 22.808-22.499 0-2.505-.409-4.909-1.165-7.162-.623-1.831-.566-3.852.177-5.658zm-21.839 29.938c-9.151-.17-16.615-7.634-16.791-16.791-.176-9.705 7.722-17.616 17.439-17.439 9.151.17 16.615 7.634 16.792 16.791.176 9.711-7.729 17.616-17.44 17.439zm2.97-18.95l-4.009-6.231c-.642-1.007-1.995-1.297-2.995-.648a2.16 2.16 0 0 0-.995 1.869c0 .415.151.824.378 1.171l2.738 4.261c.201.315.169.724-.082.994l-4.23 4.663c-.799.887-.736 2.253.151 3.065a2.14 2.14 0 0 0 1.492.56 2.2 2.2 0 0 0 1.567-.711l3.134-3.688c.24-.283.686-.264.894.044l2.222 3.203c.157.245.352.478.591.642a2.16 2.16 0 0 0 2.423.076c.636-.397 1.014-1.083 1.014-1.857 0-.415-.139-.825-.365-1.177l-3.928-6.237z" fill="#1eb4d4"/><g fill="#2eb67d"><path d="M316.319 403.298l-20.347-12.021V367.28l20.347-12.021 20.347 12.021v23.997l-20.347 12.021zM298.3 389.949l18.025 10.649 18.025-10.649v-21.348l-18.025-10.648-18.025 10.648v21.348z"/><use xlink:href="#B"/><use xlink:href="#B" y="44.181"/><use xlink:href="#B" x="-18.607" y="32.556"/><use xlink:href="#B" x="18.6" y="32.556"/><use xlink:href="#C"/><use xlink:href="#C" x="37.207"/><path d="M337.502 391.485h-42.369l21.185-37.233 21.184 37.233zm-38.366-2.329h34.369l-17.187-30.203-17.182 30.203z"/></g><defs ><path id="B" d="M316.321 361.257c2.249 0 4.072-1.823 4.072-4.072s-1.823-4.072-4.072-4.072-4.072 1.823-4.072 4.072 1.823 4.072 4.072 4.072z"/><path id="C" d="M297.714 372.88c2.249 0 4.072-1.823 4.072-4.072s-1.823-4.072-4.072-4.072-4.072 1.824-4.072 4.072 1.823 4.072 4.072 4.072z"/></defs></svg>