<svg xmlns="http://www.w3.org/2000/svg" width="24" height="24"  xmlns:v="https://vecta.io/nano"><path d="M22.286 0H1.709A1.72 1.72 0 0 0 0 1.73v20.54A1.72 1.72 0 0 0 1.709 24h20.577c.95-.007 1.716-.78 1.714-1.73V1.73C24.002.78 23.236.007 22.286 0zM7.254 20.571H3.7V9.118h3.559v11.453zM5.475 7.554c-.834 0-1.587-.503-1.906-1.274s-.143-1.658.448-2.248 1.478-.766 2.249-.447 1.273 1.072 1.273 1.907c-.001 1.139-.924 2.062-2.063 2.062zm15.112 13.017H17.03V15c0-1.329-.027-3.037-1.848-3.037-1.854 0-2.137 1.446-2.137 2.941v5.668H9.488V9.118H12.9v1.564h.048c.698-1.189 1.992-1.899 3.37-1.848 3.6 0 4.27 2.373 4.27 5.459z" fill="#fff"/></svg>