<svg xmlns="http://www.w3.org/2000/svg" fill="#202020" height="40" width="106"  xmlns:v="https://vecta.io/nano"><path d="M45.612 22.512h-1.946c-.294 0-.528-.234-.528-.528v-6.132c0-.294-.234-.528-.528-.528h-1.712c-.294 0-.528.234-.528.528v15.575c0 .294.234.528.528.528h1.712c.294 0 .528-.234.528-.528v-6.058c0-.294.234-.528.528-.528h1.946c.294 0 .528.234.528.528v6.058c0 .294.234.528.528.528h1.712c.294 0 .528-.234.528-.528V15.851c0-.294-.234-.528-.528-.528h-1.712c-.294 0-.528.234-.528.528v6.132a.53.53 0 0 1-.528.528zm8.632-6.755l-2.763 15.575c-.06.324.189.622.518.622h1.697a.53.53 0 0 0 .523-.443l.453-2.857c.04-.259.264-.443.523-.443h2.145a.53.53 0 0 1 .523.438l.493 2.872a.53.53 0 0 0 .523.438H60.6c.334 0 .582-.304.518-.627l-2.962-15.575c-.05-.249-.264-.428-.518-.428h-2.872a.52.52 0 0 0-.523.428zm2.529 10.12h-1.055a.53.53 0 0 1-.523-.612l.503-5.714a.53.53 0 0 1 1.04-.01l.553 5.714c.06.324-.189.622-.518.622zm11.801-3.57h-1.886c-.363 0-.558-.169-.558-.528v-3.594c0-.358.194-.528.558-.528h1.085c.363 0 .558.169.558.528v1.707c0 .294.234.528.528.528h1.737c.294 0 .528-.234.528-.528v-2.071c0-1.633-.906-2.494-2.623-2.494h-2.534c-1.717 0-2.623.861-2.623 2.494v4.266c0 1.648.891 2.524 2.573 2.524h1.911c.363 0 .528.159.528.528v3.957c0 .368-.164.533-.528.533h-1.085c-.363 0-.558-.169-.558-.533V27.39c0-.294-.234-.528-.528-.528H63.92c-.294 0-.528.234-.528.528v2.071c0 1.633.906 2.494 2.623 2.494h2.509c1.732 0 2.653-.861 2.653-2.494v-4.654c-.005-1.638-.901-2.499-2.603-2.499zm10.473 6.79c0 .368-.159.533-.558.533h-1.473c-.363 0-.558-.169-.558-.533V15.851c0-.294-.234-.528-.528-.528h-1.737c-.294 0-.528.234-.528.528v13.604c0 1.633.916 2.494 2.653 2.494h2.872c1.732 0 2.653-.861 2.653-2.494V15.851c0-.294-.234-.528-.528-.528H79.58c-.294 0-.528.234-.528.528v13.246zm13.818-6.207v-5.072c0-1.633-.906-2.494-2.623-2.494h-4.993c-.294 0-.528.234-.528.528v15.575c0 .294.234.528.528.528h1.712c.294 0 .528-.234.528-.528v-5.49c0-.294.234-.528.528-.528a.53.53 0 0 1 .493.343l2.175 5.854a.52.52 0 0 0 .493.343h1.842c.373 0 .627-.373.493-.717l-2.111-5.436c-.105-.264.03-.548.284-.677.776-.373 1.18-1.135 1.18-2.23zm-2.768-4.709v4.395c0 .358-.194.528-.558.528h-1.528c-.294 0-.528-.234-.528-.528v-4.4c0-.294.234-.528.528-.528h1.528c.363 0 .558.174.558.533zm11.932-2.857h-2.872a.53.53 0 0 0-.518.438l-2.763 15.575c-.06.323.189.622.518.622h1.697a.53.53 0 0 0 .523-.443l.453-2.857c.04-.259.264-.443.523-.443h2.145a.53.53 0 0 1 .523.438l.493 2.872a.53.53 0 0 0 .522.438h1.723c.333 0 .582-.304.517-.627l-2.961-15.575c-.055-.259-.269-.438-.523-.438zm-.866 10.553h-1.055a.53.53 0 0 1-.523-.612l.503-5.212a.53.53 0 0 1 1.04-.01l.553 5.212a.53.53 0 0 1-.518.622zM33.307 13.796c1.1-2.666 1.129-8.126-.336-12.365-.378-.76-1.52-.527-1.574.32l-.017.282c-.258 3.982-1.723 6.182-3.882 7.237-.353.174-.922.129-1.258-.083a16.61 16.61 0 0 0-8.889-2.562A16.59 16.59 0 0 0 8.444 9.2a1.25 1.25 0 0 1-1.104.12c-2.209-.826-3.753-3.218-4.015-7.283l-.017-.286c-.054-.847-1.196-1.08-1.574-.32C.269 5.679.298 11.147 1.403 13.809c.552 1.333.581 2.832.12 4.202a16.69 16.69 0 0 0-.859 5.568C.805 32.39 8.316 39.88 17.127 39.996a16.69 16.69 0 0 0 16.915-16.687 16.65 16.65 0 0 0-.864-5.311c-.461-1.366-.419-2.865.129-4.202zM17.11 36.002c-6.789-.125-12.323-5.663-12.452-12.452a12.7 12.7 0 0 1 12.934-12.934c6.789.125 12.323 5.663 12.452 12.452A12.7 12.7 0 0 1 17.11 36.002zm2.205-14.055l-2.973-4.621c-.477-.747-1.478-.963-2.221-.482-.465.299-.743.805-.739 1.387 0 .307.112.61.278.868l2.03 3.16a.61.61 0 0 1-.062.739l-3.139 3.459a1.61 1.61 0 0 0 .112 2.271 1.6 1.6 0 0 0 1.109.415 1.62 1.62 0 0 0 1.163-.527l2.325-2.736c.178-.212.506-.195.664.033l1.648 2.375c.116.183.262.353.44.477.569.403 1.27.39 1.798.058.469-.295.752-.801.752-1.378 0-.307-.104-.61-.27-.872z"/></svg>