<svg width="79" height="78" viewBox="0 0 79 78" fill="none" xmlns="http://www.w3.org/2000/svg">
<path d="M53.2906 46.2475C53.6928 42.8992 53.5725 42.408 56.0662 42.9501L56.6994 43.0061C58.6172 43.0933 61.1262 42.6975 62.5992 42.0129C65.7719 40.5411 67.6528 38.0824 64.5247 38.7282C57.3885 40.2 56.8979 37.7846 56.8979 37.7846C64.4337 26.604 67.5841 12.4117 64.8651 8.93742C57.4496 -0.538518 44.6126 3.94238 44.3976 4.05883L44.3288 4.07219C42.9188 3.77885 41.3414 3.6045 39.5686 3.57587C36.3393 3.52305 33.8889 4.4228 32.0302 5.83223C32.0302 5.83223 9.13004 -3.60236 10.1952 17.6969C10.4217 22.2281 16.69 51.9826 24.1661 42.9953C26.8984 39.7094 29.5391 36.9306 29.5391 36.9306C30.8505 37.8018 32.4203 38.2459 34.0671 38.0862L34.1943 37.978C34.1549 38.3859 34.172 38.7849 34.2459 39.257C32.3197 41.4096 32.8861 41.7876 29.0351 42.5798C25.1396 43.3828 27.4284 44.812 28.9219 45.1855C30.7341 45.6392 34.9242 46.2812 37.7564 42.3164L37.6438 42.7688C38.3997 43.3733 38.3482 47.1129 38.4551 49.7848C38.562 52.4566 38.7414 54.9497 39.2861 56.4209C39.8308 57.8907 40.4734 61.6774 45.534 60.5931C49.7629 59.6858 52.996 58.3813 53.2906 46.2475Z" fill="black"/>
<path d="M43.8863 63.2338C41.6478 63.2338 40.1906 62.3685 39.3049 61.5323C37.9686 60.2718 37.4386 58.6473 37.1224 57.6769L36.9855 57.2716C36.348 55.5504 36.1323 53.0726 36.0044 49.8821C35.9853 49.4036 35.9713 48.9092 35.9566 48.3855C35.9458 48.0031 35.9325 47.5233 35.9134 47.02C35.118 47.4012 34.2666 47.6703 33.37 47.8243C31.792 48.0941 30.0956 48.0063 28.3266 47.564C27.0788 47.2523 25.782 46.6058 25.0433 45.6068C22.8894 47.4934 20.8347 47.237 19.7154 46.8641C17.741 46.2055 15.9739 44.3558 14.3125 41.2073C13.1296 38.9656 11.9849 36.0436 10.9102 32.5242C9.03941 26.3946 7.85078 19.9386 7.74515 17.8197C7.413 11.1849 9.19849 6.44055 13.052 3.71905C19.1319 -0.575414 28.3425 1.94947 31.7003 3.0961C33.9561 1.7363 36.6101 1.0739 39.6097 1.12226C41.2208 1.14835 42.7543 1.29025 44.179 1.5435C45.6648 1.07645 48.6008 0.405777 51.9611 0.447137C58.1524 0.52095 63.283 2.93384 66.7973 7.42492C69.305 10.6294 68.0655 17.3577 67.1028 21.084C65.7493 26.324 63.3765 31.8987 60.4622 36.7512C61.2538 36.7569 62.3998 36.6615 64.03 36.3255C67.2459 35.6612 68.1858 37.3856 68.4409 38.1575C69.4635 41.2544 65.0189 43.5941 63.6323 44.2374C61.8558 45.0627 58.9599 45.5648 56.5877 45.456L56.484 45.449L55.8611 45.3942L55.7994 45.9135L55.7402 46.4219C55.5811 52.5712 54.7023 56.4654 52.8946 59.0393C51.0003 61.7366 48.3666 62.4932 46.0472 62.9901C45.2576 63.16 44.5386 63.2338 43.8863 63.2338ZM39.1764 40.8522C40.6214 42.0084 40.7481 44.184 40.8607 48.25C40.8747 48.7571 40.888 49.2375 40.9059 49.6861C40.9606 51.044 41.0885 54.2243 41.5861 55.5682C41.6567 55.7578 41.7197 55.9513 41.7859 56.1549C42.3407 57.8551 42.6194 58.7071 45.019 58.193C47.0342 57.7616 48.0694 57.3741 48.8801 56.2198C50.0586 54.5412 50.7178 51.1668 50.8387 46.1871L53.2897 46.2469L50.8552 45.9548L50.9265 45.3471C51.16 43.344 51.328 41.8958 52.6674 40.9388C53.7415 40.1708 54.9664 40.2452 55.9419 40.4208C54.8703 39.6121 54.5738 38.6614 54.4949 38.272L54.2907 37.2654L54.8646 36.4127C58.1734 31.5029 60.9026 25.4688 62.3521 19.8572C63.841 14.0909 63.3867 11.0284 62.933 10.4493C56.9224 2.7684 46.4978 5.93914 45.4097 6.29992L45.2251 6.39919L44.3025 6.57163L43.8297 6.47364C42.5272 6.20321 41.0802 6.05367 39.5282 6.02822C37.0905 5.9875 35.1243 6.56336 33.5119 7.78698L32.3933 8.63519L31.0946 8.10005C28.3215 6.96614 20.1742 4.68624 15.8753 7.73099C13.4891 9.42103 12.4023 12.733 12.6441 17.5747C12.7236 19.1731 13.8105 25.2238 15.601 31.0931C18.0769 39.2036 20.3269 41.8971 21.2661 42.2108C21.4297 42.2661 21.8553 41.9352 22.2785 41.4275C25.0312 38.1167 27.649 35.3571 27.759 35.2406L29.1786 33.7472L30.8948 34.8875C31.5864 35.3475 32.3494 35.6078 33.1333 35.6568L37.2267 32.166L36.6337 38.2173C36.6203 38.3535 36.6139 38.538 36.6674 38.8816L36.8456 40.0289L36.0737 40.893L35.9846 40.9929L38.2334 42.0313L39.1764 40.8522Z" fill="black"/>
<path d="M64.5273 38.7285C57.3904 40.2003 56.8998 37.7842 56.8998 37.7842C64.435 26.6036 67.5847 12.4107 64.8664 8.9371C57.4502 -0.538846 44.6133 3.94269 44.3988 4.05914L44.3295 4.07123C42.9194 3.77916 41.342 3.60481 39.5686 3.57618C36.3393 3.52336 33.8895 4.42247 32.0309 5.8319C32.0309 5.8319 9.13003 -3.60205 10.1952 17.6972C10.4217 22.2284 16.69 51.9829 24.1661 42.9956C26.8984 39.7097 29.5384 36.931 29.5384 36.931C30.8499 37.8021 32.4196 38.2462 34.0658 38.0865L34.1937 37.9783C34.1542 38.3862 34.1721 38.7852 34.2446 39.2573C32.3191 41.4099 32.8842 41.7879 29.0345 42.5801C25.1383 43.3831 27.4272 44.8123 28.9218 45.1858C30.7334 45.6395 34.9242 46.2815 37.7558 42.3167L37.6425 42.7691C38.3972 43.3736 38.9272 46.7009 38.8381 49.717C38.749 52.7331 38.6899 54.8037 39.2848 56.4212C39.8798 58.038 40.4722 61.6777 45.5334 60.5935C49.7623 59.6867 51.9538 57.3381 52.2592 53.421C52.4755 50.6358 52.9649 51.0475 52.996 48.557L53.3893 47.3779C53.8417 43.602 53.4612 42.3841 56.0669 42.9511L56.7 43.0065C58.6178 43.0943 61.1274 42.6978 62.6005 42.0132C65.7732 40.5407 67.6547 38.0827 64.5273 38.7285Z" fill="#336791"/>
<path d="M44.1424 61.722C39.923 61.7226 38.5868 58.3814 38.0395 57.0152C37.2397 55.0134 37.0666 47.2427 37.2448 40.8701C37.2575 40.4183 37.631 40.0613 38.0854 40.0753C38.5365 40.0881 38.8922 40.4641 38.8801 40.9159C38.6746 48.2659 38.9666 54.9262 39.5584 56.4075C40.483 58.7186 41.8848 60.7402 45.8496 59.8913C49.6134 59.0839 51.0228 57.6566 51.6502 54.0182C52.1325 51.2254 53.0845 43.2811 53.2016 41.7132C53.2353 41.2627 53.626 40.9242 54.0778 40.9585C54.5283 40.9923 54.8661 41.3849 54.8324 41.8347C54.7102 43.4662 53.7621 51.3959 53.2614 54.2962C52.5201 58.5945 50.6041 60.5442 46.192 61.4904C45.443 61.6501 44.7615 61.722 44.1424 61.722ZM21.2664 45.4038C20.8636 45.4044 20.4984 45.3306 20.1821 45.225C17.4415 44.3106 14.8314 39.8475 12.4236 31.9586C10.591 25.9531 9.42972 19.6854 9.32791 17.6486C9.02567 11.61 10.5814 7.33715 13.9507 4.94971C20.6167 0.226372 31.8311 4.72445 32.3051 4.91789C32.7232 5.08906 32.9236 5.56629 32.7524 5.98435C32.5819 6.40177 32.104 6.60284 31.6866 6.43167V6.43231C31.5784 6.38777 20.8248 2.07994 14.8931 6.2866C12.0119 8.32979 10.689 12.1247 10.9607 17.5678C11.0466 19.2832 12.1315 25.4014 13.9876 31.482C16.1371 38.524 18.5837 42.9686 20.6994 43.6737C21.0309 43.785 22.0414 44.1216 23.4871 42.3845C26.2054 39.1139 28.7029 36.5037 28.7278 36.4776C29.0402 36.1512 29.5581 36.141 29.8839 36.4528C30.2097 36.7653 30.2212 37.2832 29.9088 37.609C29.8839 37.6345 27.4246 40.2058 24.7445 43.43C23.475 44.9558 22.2578 45.4038 21.2664 45.4038ZM56.8489 38.5132C56.6917 38.5132 56.5326 38.468 56.3927 38.3732C56.0179 38.1212 55.9186 37.6128 56.1712 37.238C63.7885 25.9346 66.4623 12.2775 64.1722 9.35171C61.2897 5.66874 57.2192 3.74453 52.0746 3.63445C48.265 3.55173 45.2369 4.52465 44.7424 4.69455L44.6184 4.74481C44.1208 4.90135 43.739 4.62837 43.5952 4.30958C43.4246 3.93225 43.5646 3.48619 43.9184 3.27176L44.1386 3.1814L44.1278 3.18458L44.1392 3.18076C44.9798 2.87342 48.0538 1.95077 51.8621 1.99468C57.5552 2.05449 62.2575 4.2504 65.4607 8.34315C66.9764 10.2801 66.9796 14.7425 65.4703 20.5858C63.9317 26.5429 61.0365 32.9461 57.5278 38.1524C57.37 38.3872 57.1117 38.5132 56.8489 38.5132ZM57.2377 43.7456C55.9371 43.7456 54.7713 43.563 54.0733 43.1443C53.3555 42.7148 53.2187 42.13 53.2009 41.8201C53.0049 38.3815 54.9024 37.7827 55.8702 37.5097C55.7353 37.3061 55.5432 37.0662 55.3453 36.8187C54.7809 36.1137 54.0084 35.1477 53.4128 33.7033C53.3199 33.4781 53.0272 32.9531 52.6887 32.3461C50.8542 29.057 47.0376 22.2122 49.4893 18.7067C50.6245 17.0848 52.8834 16.4466 56.2126 16.8029C55.2333 13.8192 50.5691 4.4852 39.5037 4.30385C36.1751 4.24786 33.4454 5.27168 31.3945 7.34224C26.8023 11.9803 26.969 20.372 26.9709 20.4553C26.983 20.9071 26.626 21.2825 26.1749 21.294C25.7231 21.308 25.3477 20.9497 25.3362 20.498C25.326 20.1257 25.1542 11.3198 30.2326 6.19115C32.6093 3.79098 35.7374 2.60617 39.5304 2.6679C46.6113 2.78434 51.1679 6.38331 53.7443 9.38288C56.5517 12.651 57.9287 16.2563 58.042 17.4589C58.1266 18.3536 57.4846 18.533 57.3548 18.5591L57.0601 18.5661C53.7927 18.0431 51.6967 18.4058 50.83 19.6447C48.965 22.3095 52.5754 28.784 54.1172 31.5494C54.5111 32.2544 54.7949 32.7641 54.9247 33.0791C55.4312 34.3072 56.0917 35.1325 56.6224 35.7955C57.0888 36.379 57.4935 36.8842 57.6385 37.4786C57.7054 37.5963 58.6586 39.0051 64.3122 37.8381C65.7292 37.546 66.5787 37.7961 66.8383 38.5813C67.3493 40.1269 64.4827 41.9289 62.8958 42.6664C61.4717 43.3275 59.202 43.7456 57.2377 43.7456ZM54.8318 41.6852C55.0106 41.8666 55.9078 42.1783 57.7664 42.0988C59.4183 42.0275 61.1612 41.668 62.2073 41.1832C63.5448 40.5621 64.4369 39.8679 64.8995 39.3939L64.6424 39.4409C61.0275 40.1873 58.4708 40.0881 57.0436 39.1451C56.9412 39.0782 56.8502 39.0082 56.7668 38.9395C56.6122 39.0006 56.469 39.0407 56.3672 39.0693C55.5572 39.2965 54.7198 39.5313 54.8318 41.6852ZM31.4811 46.2533C30.5832 46.2533 29.6383 46.1317 28.673 45.8893C27.6734 45.6392 25.9872 44.8865 26.0133 43.6501C26.0419 42.2623 28.0596 41.8462 28.82 41.6897C31.5638 41.1246 31.7426 40.8981 32.6004 39.8094C32.8504 39.4918 33.1616 39.0967 33.5854 38.6226C34.2153 37.9182 34.9038 37.5606 35.6317 37.5606C36.1382 37.5606 36.5544 37.7331 36.8286 37.8463C37.7042 38.209 38.4347 39.0859 38.735 40.1358C39.0061 41.0826 38.8769 41.9938 38.3711 42.7014C36.7116 45.0258 34.3292 46.2533 31.4811 46.2533ZM27.7797 43.7208C28.0265 43.911 28.5203 44.1655 29.0695 44.3036C29.9056 44.5123 30.7162 44.6186 31.4811 44.6186C33.8113 44.6186 35.6814 43.6533 37.0405 41.7514C37.3237 41.3543 37.2391 40.851 37.1633 40.5857C37.0043 40.0308 36.6097 39.5262 36.2031 39.3569C35.9823 39.2653 35.7997 39.1953 35.6317 39.1953C35.5414 39.1953 35.2671 39.1953 34.8045 39.7126C34.4138 40.1492 34.1332 40.5055 33.8844 40.8205C32.8167 42.1764 32.3274 42.6365 29.1496 43.2913C28.3746 43.4516 27.9769 43.6132 27.7797 43.7208ZM34.0677 39.9487C33.6706 39.9487 33.3226 39.6592 33.2602 39.2551C33.2392 39.1196 33.2258 38.9828 33.2195 38.8454C31.1362 38.8059 29.1267 37.9125 27.6015 36.3205C25.6728 34.3078 24.7947 31.5195 25.1931 28.6707C25.6257 25.577 25.4641 22.846 25.3769 21.3786C25.3528 20.9707 25.3356 20.6761 25.3369 20.4719C25.3381 20.2135 25.3432 19.527 27.6371 18.3644C28.4529 17.9508 30.0888 17.2292 31.8756 17.0441C34.837 16.7386 36.7886 18.0571 37.3727 20.7576C38.9495 28.0497 37.4974 31.2752 36.4373 33.6301C36.2394 34.0679 36.053 34.4828 35.9041 34.8837L35.7724 35.2381C35.2124 36.7398 34.7282 38.0372 34.8771 39.007C34.9452 39.4537 34.6391 39.8704 34.193 39.9398L34.0677 39.9487ZM26.9773 20.6978L27.0097 21.2819C27.1001 22.8059 27.2681 25.6425 26.8125 28.8979C26.4841 31.2472 27.2019 33.5411 28.7819 35.1897C30.0303 36.4929 31.6745 37.2119 33.3639 37.2119H33.3989C33.5885 36.4146 33.9022 35.5734 34.2401 34.6667L34.3712 34.3148C34.5398 33.8618 34.7371 33.4233 34.9458 32.9595C35.9664 30.6917 37.2365 27.869 35.7736 21.1031C35.4835 19.7637 34.781 18.988 33.6261 18.7322C31.2539 18.2079 27.7192 19.9921 26.9773 20.6978ZM31.9125 20.351C31.8718 20.6399 32.4425 21.4117 33.1858 21.5148C33.9283 21.6185 34.564 21.0153 34.6041 20.7264C34.6442 20.4369 34.074 20.1187 33.3302 20.015C32.5876 19.9113 31.952 20.0615 31.9125 20.351ZM33.3569 21.7999L33.1482 21.7852C32.6869 21.721 32.2205 21.4302 31.9017 21.007C31.7897 20.8588 31.6064 20.5699 31.6427 20.3128C31.6949 19.9355 32.1543 19.7102 32.8727 19.7102C33.0337 19.7102 33.2004 19.7223 33.369 19.7452C33.761 19.7999 34.1256 19.9132 34.3947 20.0634C34.8612 20.3242 34.8955 20.6144 34.8745 20.7652C34.8166 21.1807 34.1536 21.7999 33.3569 21.7999ZM32.1836 20.3993C32.2071 20.5775 32.6481 21.1661 33.2233 21.2456L33.3563 21.2552C33.887 21.2552 34.284 20.8371 34.3305 20.7003C34.2815 20.6074 33.9404 20.3752 33.2927 20.2861C33.1495 20.2657 33.0076 20.2555 32.8721 20.2555C32.4572 20.2549 32.2351 20.3484 32.1836 20.3993ZM54.5314 19.7611C54.5715 20.0506 54.002 20.8225 53.2582 20.9256C52.515 21.0286 51.8793 20.4261 51.8386 20.1365C51.7991 19.8477 52.3693 19.5289 53.1125 19.4258C53.8557 19.3214 54.4907 19.4729 54.5314 19.7611ZM53.087 21.0732C52.3712 21.0732 51.7546 20.5164 51.7037 20.1556C51.6451 19.7223 52.3584 19.3927 53.094 19.2909C53.2556 19.268 53.416 19.2565 53.5706 19.2565C54.205 19.2565 54.625 19.443 54.667 19.7427C54.6943 19.9374 54.5454 20.2371 54.2884 20.5069C54.1191 20.685 53.7628 20.9937 53.2779 21.0605L53.087 21.0732ZM53.57 19.5289C53.4281 19.5289 53.2805 19.5397 53.1309 19.56C52.3915 19.6625 51.9518 19.9596 51.9728 20.1187C51.9977 20.2931 52.4692 20.8008 53.0864 20.8008L53.2385 20.79C53.6419 20.7334 53.9448 20.4706 54.0892 20.3185C54.3157 20.0799 54.4061 19.8559 54.3953 19.7789C54.3819 19.679 54.1096 19.5289 53.57 19.5289ZM55.6024 36.3612C55.4458 36.3612 55.288 36.3167 55.148 36.2231C54.7726 35.9711 54.6721 35.464 54.9234 35.0886C56.6644 32.488 56.3456 29.8352 56.0376 27.2709C55.9059 26.1777 55.7703 25.0482 55.806 23.9633C55.8416 22.8479 55.9829 21.9278 56.1203 21.0369C56.2826 19.9826 56.4359 18.9855 56.3723 17.8032C56.3475 17.3527 56.6936 16.9677 57.1448 16.9423C57.5972 16.9181 57.9809 17.2642 58.0057 17.7154C58.0782 19.0669 57.9045 20.1944 57.7365 21.2857C57.6067 22.1276 57.4725 22.998 57.44 24.0155C57.4088 24.9757 57.5317 25.9957 57.6615 27.0749C57.9898 29.8027 58.3608 32.8946 56.2826 35.9979C56.1248 36.2333 55.8658 36.3612 55.6024 36.3612Z" fill="white"/>
<path d="M0.379883 63.4973C1.07537 63.3815 1.98466 63.2822 3.14338 63.2822C4.56554 63.2822 5.60845 63.6131 6.27021 64.2087C6.88234 64.7381 7.24631 65.5488 7.24631 66.542C7.24631 67.5512 6.94788 68.3454 6.38538 68.9244C5.62436 69.7351 4.38355 70.1487 2.9773 70.1487C2.54716 70.1487 2.1501 70.1321 1.81985 70.0494V74.5169H0.379883V63.4973ZM1.81985 68.8741C2.13419 68.9568 2.53125 68.9899 3.01103 68.9899C4.74752 68.9899 5.80698 68.1462 5.80698 66.6076C5.80698 65.1352 4.7647 64.4238 3.17647 64.4238C2.54779 64.4238 2.06802 64.4734 1.81985 64.5396V68.8741ZM15.965 70.4458C15.965 73.4072 13.9129 74.6983 11.9773 74.6983C9.81001 74.6983 8.13906 73.11 8.13906 70.5782C8.13906 67.898 9.89273 66.3263 12.1096 66.3263C14.4099 66.3257 15.965 67.9973 15.965 70.4458ZM9.61212 70.5285C9.61212 72.2822 10.6213 73.6057 12.0441 73.6057C13.4338 73.6057 14.4754 72.2988 14.4754 70.4954C14.4754 69.1388 13.7978 67.4182 12.0765 67.4182C10.3553 67.4182 9.61212 69.0065 9.61212 70.5285ZM17.6023 73.0267C18.0324 73.3079 18.7934 73.6057 19.5214 73.6057C20.5802 73.6057 21.0765 73.0763 21.0765 72.4146C21.0765 71.7197 20.6636 71.3392 19.5876 70.9421C18.1482 70.4293 17.4699 69.6352 17.4699 68.6756C17.4699 67.3852 18.5122 66.3263 20.2328 66.3263C21.0434 66.3263 21.7555 66.558 22.2022 66.8227L21.8382 67.8815C21.5239 67.683 20.9448 67.4182 20.2003 67.4182C19.34 67.4182 18.8603 67.9146 18.8603 68.5102C18.8603 69.1719 19.3407 69.4697 20.383 69.8668C21.7727 70.3962 22.4841 71.091 22.4841 72.2822C22.4841 73.6885 21.3921 74.6811 19.4896 74.6811C18.6127 74.6811 17.8021 74.466 17.2396 74.1351L17.6023 73.0267ZM26.1066 64.2081V66.5077H28.1905V67.6161H26.1066V71.9341C26.1066 72.9268 26.3872 73.4893 27.1985 73.4893C27.579 73.4893 27.8602 73.4397 28.0422 73.39L28.1084 74.4819C27.8278 74.5977 27.3805 74.6805 26.8186 74.6805C26.1403 74.6805 25.5937 74.4654 25.2463 74.0683C24.8333 73.6382 24.6838 72.9268 24.6838 71.9838V67.6161H23.443V66.5077H24.6838V64.5886L26.1066 64.2081ZM36.6286 66.5083C36.5949 67.0874 36.5624 67.7326 36.5624 68.7087V73.3576C36.5624 75.194 36.1985 76.319 35.4209 77.0145C34.6433 77.7424 33.5183 77.974 32.5091 77.974C31.5496 77.974 30.4907 77.7424 29.8449 77.3122L30.2089 76.2038C30.7383 76.5347 31.5655 76.8325 32.5581 76.8325C34.0471 76.8325 35.139 76.0549 35.139 74.0365V73.1431H35.1059C34.6592 73.8876 33.7989 74.4832 32.5581 74.4832C30.5728 74.4832 29.15 72.7957 29.15 70.5782C29.15 67.8649 30.9203 66.3263 32.7567 66.3263C34.147 66.3263 34.908 67.0543 35.2554 67.716H35.2885L35.3547 66.5083H36.6286ZM35.1231 69.6682C35.1231 69.4201 35.1065 69.205 35.0404 69.0065C34.7757 68.1627 34.0643 67.4679 33.0055 67.4679C31.6151 67.4679 30.6231 68.6425 30.6231 70.4954C30.6231 72.0671 31.4172 73.3741 32.9889 73.3741C33.8823 73.3741 34.6929 72.8116 35.0073 71.8851C35.09 71.637 35.1237 71.3557 35.1237 71.1076V69.6682H35.1231ZM38.878 69.0065C38.878 68.0635 38.8614 67.2528 38.8118 66.5083H40.0863L40.1353 68.08H40.2015C40.5655 67.0046 41.4423 66.3263 42.4184 66.3263C42.5838 66.3263 42.699 66.3429 42.8314 66.376V67.7491C42.6831 67.716 42.5336 67.6995 42.3357 67.6995C41.3099 67.6995 40.5814 68.4771 40.3835 69.569C40.3504 69.7675 40.3173 69.9991 40.3173 70.2473V74.5157H38.878V69.0065ZM44.9337 70.7767C44.9668 72.7454 46.2235 73.5561 47.6794 73.5561C48.7223 73.5561 49.3504 73.3741 49.8963 73.1425L50.1445 74.1848C49.6316 74.4164 48.7548 74.6811 47.4809 74.6811C45.0158 74.6811 43.5434 73.0598 43.5434 70.6443C43.5434 68.2289 44.9662 66.3257 47.2989 66.3257C49.9129 66.3257 50.6077 68.6253 50.6077 70.0978C50.6077 70.3955 50.5746 70.6272 50.5581 70.7761H44.9337V70.7767ZM49.2021 69.7344C49.218 68.808 48.821 67.3686 47.1837 67.3686C45.7113 67.3686 45.0661 68.7252 44.9496 69.7344H49.2021Z" fill="black"/>
<path d="M52.2621 72.7616C52.9073 73.1587 53.8503 73.4896 54.8429 73.4896C56.3154 73.4896 57.1757 72.712 57.1757 71.587C57.1757 70.5447 56.5801 69.9491 55.0746 69.3701C53.2547 68.7249 52.1297 67.7819 52.1297 66.2102C52.1297 64.4731 53.5691 63.1826 55.7363 63.1826C56.8779 63.1826 57.7051 63.4473 58.2014 63.7286L57.8043 64.9032C57.4404 64.7047 56.6959 64.3738 55.6867 64.3738C54.1646 64.3738 53.5856 65.2837 53.5856 66.0447C53.5856 67.087 54.2633 67.5999 55.8025 68.1955C57.6885 68.924 58.6481 69.8333 58.6481 71.4712C58.6481 73.1918 57.3742 74.6808 54.7437 74.6808C53.6683 74.6808 52.4937 74.3664 51.8975 73.9694L52.2621 72.7616ZM69.8153 76.1532C68.3098 75.7561 66.8374 75.3094 65.547 74.8627C65.3153 74.78 65.0837 74.6973 64.8687 74.6973C62.2216 74.598 59.9551 72.6458 59.9551 69.0558C59.9551 65.4822 62.1389 63.1826 65.1499 63.1826C68.1775 63.1826 70.1469 65.5319 70.1469 68.8241C70.1469 71.6863 68.8233 73.5227 66.9704 74.1679V74.2341C68.0788 74.5153 69.2866 74.78 70.2296 74.9455L69.8153 76.1532ZM68.6242 68.8903C68.6242 66.6569 67.4667 64.3566 65.1003 64.3566C62.6683 64.3566 61.4771 66.6066 61.4937 69.0227C61.4771 71.3885 62.7841 73.5227 65.0341 73.5227C67.3344 73.5227 68.6242 71.4381 68.6242 68.8903ZM72.0151 63.3646H73.455V73.3076H78.2197V74.5153H72.0151V63.3646Z" fill="#336791"/>
</svg>
