<svg viewBox="0 0 98 79" fill="none" xmlns="http://www.w3.org/2000/svg">
<path d="M66.2629 25.5361L55.5507 29.0341L46.2311 33.1472L43.6239 33.8356C42.9599 34.4672 42.2636 35.1069 41.5106 35.7546C40.6847 36.4671 39.9155 37.115 39.3243 37.5845C38.6685 38.1027 37.6969 39.0743 37.203 39.6896C36.4662 40.6126 35.8832 41.5923 35.6322 42.3454C35.1868 43.7058 35.4055 45.0822 36.2638 46.3535C37.3649 47.9728 39.5593 49.6245 42.1178 50.75C43.4215 51.325 45.6157 52.0618 47.2675 52.4747C50.0122 53.1711 55.3239 53.9241 58.2468 54.0375C58.8378 54.0618 59.6314 54.0618 59.6637 54.0375C59.7285 53.9969 60.182 53.1306 60.7084 52.0538C62.5059 48.3858 63.8014 44.9446 64.5057 42.0054C64.9268 40.2242 65.2587 37.8518 65.4772 35.0422C65.534 34.2568 65.5582 31.6253 65.5096 30.7345C65.4367 29.2771 65.3072 28.0951 65.1049 26.9372C65.0725 26.7671 65.0643 26.6132 65.0806 26.6052C65.1129 26.5809 65.21 26.5485 66.5298 26.1679L66.2628 25.5364V25.5362H66.2629V25.5361ZM63.8176 26.9694C63.9148 26.9694 64.1738 29.4551 64.2386 31.026C64.2548 31.3579 64.2466 31.5766 64.2305 31.5766C64.1658 31.5766 62.8621 30.8074 61.9311 30.2245C61.1214 29.7143 59.583 28.6941 59.3401 28.4998C59.259 28.4431 59.267 28.435 59.9311 28.2083C61.0565 27.8276 63.7286 26.9694 63.8176 26.9694ZM58.3603 28.7669C58.4332 28.7669 58.6193 28.8721 59.0647 29.1475C60.7326 30.1919 62.9998 31.4551 63.9714 31.8762C64.271 32.0057 64.3033 31.9571 63.6152 32.4268C62.1415 33.4308 60.3034 34.4186 58.0524 35.4145C57.6558 35.5927 57.3238 35.7302 57.3158 35.7302C57.2996 35.7302 57.3481 35.5279 57.4128 35.285C57.9553 33.2687 58.263 31.2283 58.2793 29.5927C58.2874 28.783 58.2874 28.783 58.3603 28.7588C58.344 28.7669 58.3521 28.7669 58.3603 28.7669ZM57.2349 29.196C57.2833 29.2445 57.251 31.0583 57.1862 31.5522C57.0404 32.7344 56.8137 33.8355 56.4414 35.0745C56.3523 35.3739 56.2712 35.625 56.2552 35.6412C56.2226 35.6816 55.1133 34.5966 54.749 34.1756C54.1174 33.4468 53.6236 32.7181 53.2592 32.0056C53.073 31.6413 52.7816 30.9288 52.8058 30.9045C52.9353 30.8154 57.2024 29.1637 57.2349 29.196ZM51.9394 31.2769C51.9474 31.2769 51.9555 31.2769 51.9637 31.285C51.9798 31.3012 52.0366 31.4308 52.0852 31.5765C52.3442 32.2809 52.9271 33.3173 53.4293 33.9813C53.9798 34.7101 54.7005 35.4873 55.2996 35.9974C55.494 36.1593 55.672 36.3131 55.6962 36.3375C55.7449 36.3861 55.7611 36.3779 54.4412 36.88C52.9111 37.4629 51.243 38.0459 49.3321 38.6612C48.8756 38.8084 48.4196 38.9569 47.9639 39.1066C47.8909 39.1309 47.9153 39.0904 48.1258 38.7585C49.0731 37.2767 50.5143 34.3699 51.324 32.3133C51.4617 31.957 51.5993 31.6008 51.6237 31.5198C51.6561 31.4064 51.6965 31.366 51.8017 31.3092C51.8584 31.2932 51.9151 31.2769 51.9394 31.2769ZM50.3201 31.949C50.3444 31.9652 49.9314 32.8315 49.5265 33.625C48.7411 35.1553 47.8829 36.6615 46.7331 38.4913C46.5388 38.807 46.3526 39.0986 46.3283 39.131C46.2879 39.1877 46.2716 39.1714 46.1421 38.9205C45.8668 38.378 45.64 37.6816 45.5185 37.0419C45.397 36.4103 45.4214 35.3092 45.5591 34.6291C45.6642 34.1271 45.6562 34.1352 45.8991 34.0137C46.9355 33.4874 50.2877 31.9166 50.3201 31.949ZM64.2872 32.5158V32.8559C64.2872 34.6615 64.0929 37.1391 63.8094 38.9448C63.7608 39.2605 63.7202 39.5196 63.7123 39.5278C63.7123 39.5278 63.4775 39.4631 63.2022 39.382C61.9877 39.0014 60.6679 38.4427 59.4776 37.787C58.6921 37.3578 57.5505 36.6533 57.583 36.6209C57.5909 36.6128 57.9311 36.4347 58.3277 36.2242C59.9149 35.3983 61.437 34.5077 62.7568 33.6251C63.2508 33.2931 63.9956 32.7588 64.1577 32.613L64.2872 32.5158ZM44.2068 34.9124C44.2392 34.9124 44.2311 34.9771 44.1825 35.2686C44.1501 35.4792 44.1097 35.8679 44.0936 36.135C44.0287 37.3171 44.2231 38.1917 44.8061 39.39C44.968 39.722 45.0976 39.9973 45.0894 40.0053C45.0327 40.0539 39.6727 41.6248 37.9884 42.0863C37.4864 42.2239 37.0493 42.3454 37.0167 42.3534C36.9601 42.3696 36.952 42.3616 36.9763 42.2238C37.1625 41.0337 38.0694 39.479 39.3324 38.1673C40.1746 37.2928 40.8466 36.7828 41.9964 36.1268C42.8223 35.6573 44.0935 34.9529 44.1906 34.9205C44.1907 34.9124 44.1988 34.9124 44.2068 34.9124ZM56.8381 37.1714C56.8461 37.1634 57.0404 37.2687 57.2752 37.4063C59.008 38.4103 61.4208 39.3415 63.4773 39.8192L63.6637 39.8597L63.4045 40.0053C62.3277 40.6045 58.7893 42.0781 55.1701 43.4304C54.6437 43.6246 54.1256 43.819 54.0283 43.8595C53.9311 43.8999 53.842 43.9242 53.842 43.9162C53.842 43.908 53.9879 43.6246 54.174 43.2765C55.1861 41.3818 56.2064 39.0742 56.7246 37.471C56.7895 37.3172 56.8298 37.1796 56.8381 37.1714ZM55.5507 37.5925C55.5589 37.6008 55.494 37.7707 55.413 37.965C54.7086 39.6734 53.7854 41.5358 52.6033 43.6248C52.3038 44.1592 52.0528 44.5884 52.0445 44.5884C52.0366 44.5884 51.7936 44.4425 51.5021 44.2644C49.7855 43.2118 48.2633 41.9163 47.2675 40.6613L47.1217 40.4831L47.8584 40.2807C50.4981 39.5601 52.7408 38.7828 54.9676 37.8274C55.2834 37.6978 55.5426 37.5925 55.5507 37.5925ZM63.5504 40.386C63.5504 40.386 63.5585 40.3941 63.5504 40.386C63.5585 40.5722 63.1455 42.2402 62.8054 43.4465C62.5221 44.4586 62.279 45.2522 61.8338 46.6529C61.6395 47.2684 61.4696 47.7783 61.4614 47.7783C61.4533 47.7783 61.4047 47.7703 61.3561 47.7542C58.9514 47.3168 56.7976 46.7096 54.7734 45.8999C54.2065 45.6732 53.3968 45.3088 53.3483 45.2683C53.3321 45.252 53.818 45.0254 54.4333 44.7582C58.1174 43.1469 61.9391 41.317 63.2508 40.5317C63.4046 40.4345 63.5261 40.386 63.5504 40.386ZM45.0814 41.0176C45.0976 41.0337 44.0692 42.5155 42.6279 44.5316C42.1259 45.236 41.543 46.0619 41.3244 46.3695C41.1058 46.6772 40.7738 47.1631 40.5876 47.4546L40.2474 47.9809L39.883 47.6732C39.4538 47.3169 38.709 46.5558 38.377 46.1348C37.6806 45.2685 37.2111 44.3535 37.0249 43.5196C36.9358 43.1309 36.9358 42.9365 37.0167 42.9123C37.1381 42.8799 39.3 42.3698 41.3243 41.9001C42.4498 41.6411 43.7533 41.3334 44.223 41.22C44.6926 41.1065 45.0733 41.0176 45.0814 41.0176ZM46.1177 41.4143L46.3767 41.7058C47.5428 43.0094 48.733 43.9731 50.1743 44.815C50.4334 44.9608 50.6277 45.0903 50.6114 45.0985C50.5549 45.139 45.6076 46.8958 43.3162 47.6894C42.0288 48.1428 40.9681 48.5071 40.9601 48.5071C40.952 48.5071 40.8791 48.4586 40.798 48.4019L40.6523 48.2966L40.8871 47.9566C41.6482 46.8554 42.6038 45.649 44.6846 43.139L46.1177 41.4143ZM52.5791 46.0376C52.5871 46.0295 52.9434 46.159 53.3806 46.3211C54.4333 46.7178 55.2671 46.9687 56.3846 47.2522C57.7611 47.6004 59.7529 47.9405 60.927 48.0376C61.1052 48.0537 61.2023 48.07 61.1699 48.0943C61.1131 48.1267 59.923 48.5235 59.0485 48.7987C57.6558 49.2359 53.405 50.4909 49.9395 51.4869C49.2998 51.6731 48.7492 51.827 48.7168 51.835C48.636 51.8513 48.3687 51.7783 48.3687 51.7459C48.3687 51.7298 48.563 51.4788 48.7978 51.2035C49.9637 49.8108 51.1217 48.2562 52.0852 46.7826C52.3523 46.3776 52.5791 46.0457 52.5791 46.0376ZM51.154 46.0782C51.162 46.0862 50.5872 47.0092 49.5833 48.5962C49.1541 49.2682 48.6763 50.0293 48.5063 50.2966C48.3443 50.5556 48.1014 50.9606 47.9638 51.1872L47.729 51.6002L47.6076 51.5678C47.316 51.4868 45.2675 50.7661 44.725 50.5475C44.0529 50.2803 43.3566 49.9565 42.8384 49.6812C42.1907 49.333 41.3811 48.8148 41.4458 48.7987C41.4619 48.7906 42.5712 48.4909 43.9072 48.1266C47.4537 47.163 49.4211 46.6044 50.7087 46.1995C50.9435 46.1267 51.1459 46.0699 51.154 46.0782ZM61.2346 48.4423H61.2427C61.2751 48.5234 59.9635 52.167 59.4856 53.3167C59.3805 53.5758 59.3401 53.6407 59.2833 53.6324C59.1457 53.6244 57.243 53.3572 56.085 53.1871C54.0689 52.8795 50.6844 52.2883 49.8343 52.0941L49.6399 52.0536L50.8462 51.7782C53.4373 51.1952 54.6842 50.8795 55.9473 50.4908C57.5424 50.005 59.1214 49.3977 60.7164 48.6529C60.9674 48.5395 61.178 48.4504 61.2346 48.4423Z" fill="url(#paint0_linear)"/>
<path d="M55.2183 0.564868C55.0402 0.54071 52.1657 1.5771 50.3116 2.33002C47.8096 3.35035 45.8664 4.32204 44.668 5.16393C44.2228 5.47985 43.664 6.03846 43.575 6.25704C43.5426 6.33802 43.5264 6.43517 43.5264 6.53233L44.6114 7.56065L47.1943 8.38653L53.3399 9.48774L60.3679 10.6942L60.4408 10.0869C60.4166 10.0869 60.4003 10.0789 60.3762 10.0789L59.4529 9.93307L59.2668 9.60113C58.3114 7.91693 57.2588 5.82791 56.6434 4.41904C56.1658 3.32593 55.7123 2.06294 55.4613 1.15604C55.3236 0.605454 55.3075 0.573082 55.2185 0.565017V0.56483H55.2183V0.564868ZM55.0886 0.977938H55.0969C55.1049 0.985928 55.1373 1.21279 55.1698 1.47983C55.3073 2.61356 55.5585 3.70648 55.9552 4.88868C56.2547 5.77937 56.2547 5.73083 55.9066 5.6255C55.0807 5.39886 51.3804 4.75919 48.7004 4.38674C48.2712 4.33002 47.9068 4.27338 47.9068 4.26532C47.8744 4.23295 49.8419 3.20455 50.7083 2.7998C51.8176 2.28958 54.862 1.01837 55.0886 0.977938ZM47.2832 4.60532L47.5992 4.71046C49.3156 5.29353 53.6311 6.11945 56.0118 6.31375C56.2789 6.33806 56.5057 6.3624 56.5137 6.3624C56.5217 6.37047 56.2952 6.49193 56.0036 6.62952C54.8539 7.20441 53.5908 7.90887 52.7163 8.45139C52.4573 8.61325 52.2223 8.74288 52.19 8.74288C52.1576 8.74288 51.9877 8.71047 51.8095 8.68617L51.4857 8.63752L50.6761 7.84397C49.251 6.45948 48.1336 5.39072 47.7044 4.98579L47.2832 4.60532ZM46.9595 4.85627L48.1011 6.28138C48.7245 7.06678 49.3561 7.83595 49.4939 8.00591C49.6314 8.17606 49.7448 8.31376 49.7367 8.32182C49.7043 8.34609 48.0851 8.03025 47.2267 7.83602C46.3441 7.63354 45.9798 7.53638 45.4373 7.36642L44.9919 7.22062V7.10718C45 6.56466 45.6883 5.75503 46.8542 4.92922L46.9595 4.85627ZM56.6595 6.79956C56.692 6.79956 56.7323 6.8724 56.8295 7.09102C57.1048 7.69824 57.9632 9.33391 58.1736 9.64964C58.2385 9.755 58.3517 9.76307 57.2102 9.57683C54.4654 9.13138 53.5827 8.9858 53.5827 8.9696C53.5827 8.96153 53.6637 8.90482 53.7689 8.8481C54.6192 8.37858 55.4774 7.77934 56.2386 7.13967C56.4248 6.9858 56.5948 6.84007 56.6271 6.81572C56.6352 6.79956 56.6515 6.79149 56.6595 6.79956Z" fill="url(#paint1_linear)"/>
<path d="M43.6323 6.14355C43.6323 6.14355 43.4543 6.42706 43.6243 6.84812C43.7297 7.10713 44.0373 7.42286 44.3854 7.74681C44.3854 7.74681 47.9885 11.2608 48.4258 11.7629C50.4175 14.0624 51.284 16.3295 51.3649 19.455C51.4135 21.463 51.0329 23.2281 50.0856 25.2767C48.4014 28.9527 44.8468 33.0093 39.3652 37.5112L40.167 37.244C40.6851 36.8552 41.3896 36.4424 43.0413 35.5355C46.8549 33.4464 51.1463 31.5274 56.4093 29.5518C63.9878 26.7016 76.4492 23.3656 83.5419 22.2808L84.2789 22.1674L84.1654 21.9892C83.5178 20.9852 83.0723 20.3618 82.5379 19.6978C80.9834 17.7707 79.0969 16.2081 76.7892 14.9126C73.6152 13.1394 69.5099 11.7548 64.3118 10.7265C63.3321 10.5321 61.1783 10.1597 59.4294 9.89251C55.721 9.31776 53.3243 8.92094 50.6848 8.4675C49.7375 8.3055 48.3204 8.06265 47.3812 7.86028C46.8954 7.75491 45.9643 7.53633 45.2356 7.28535C44.6526 7.05852 43.8105 6.8318 43.6323 6.14355ZM45.7215 8.16787C45.7294 8.15988 45.859 8.2083 46.0291 8.26502C46.3368 8.37016 46.7335 8.49166 47.2032 8.6213C47.5586 8.71905 47.9149 8.81351 48.272 8.90466C48.7578 9.02604 49.1626 9.13944 49.1707 9.13944C49.2275 9.19615 50.0453 11.8113 50.3206 12.8153C50.4257 13.196 50.5068 13.5198 50.4987 13.5198C50.4904 13.528 50.4014 13.3902 50.2962 13.204C49.3488 11.536 47.8509 9.84382 46.1181 8.48349C45.8915 8.3217 45.7215 8.17593 45.7215 8.16787ZM49.7051 9.26904C49.7456 9.26904 49.9238 9.29335 50.1423 9.34188C51.5188 9.64955 53.9884 10.1192 55.5672 10.3864C55.8344 10.4269 56.045 10.4755 56.045 10.4916C56.045 10.5079 55.9478 10.5645 55.8263 10.6293C55.5592 10.7669 54.4822 11.4065 54.126 11.6495C53.2272 12.2486 52.4176 12.8964 51.8346 13.4793C51.5998 13.7142 51.3973 13.9085 51.3973 13.9085C51.3973 13.9085 51.3488 13.7709 51.3082 13.6008C51.0169 12.4753 50.4095 10.8073 49.8589 9.63331C49.7698 9.44714 49.6969 9.27707 49.6969 9.26094C49.6969 9.2771 49.6969 9.26904 49.7051 9.26904ZM56.717 10.605C56.7656 10.6212 56.8466 10.8965 57.0085 11.5037C57.3081 12.6778 57.4458 13.9895 57.3972 15.2122C57.3809 15.5522 57.3648 15.868 57.3485 15.9085L57.3243 15.9894L56.9032 15.8518C56.0368 15.5765 54.6281 15.1635 53.4217 14.8235C52.7333 14.6373 52.1748 14.4672 52.1748 14.4511C52.1748 14.4024 53.1788 13.3984 53.6079 13.0179C54.4255 12.2972 56.6441 10.5807 56.717 10.605ZM57.2757 10.6859C57.3 10.6617 60.6278 11.2365 62.142 11.528C63.2675 11.7466 64.903 12.0867 65.0002 12.1273C65.0487 12.1434 64.8787 12.2405 64.3361 12.4834C62.1986 13.447 60.6115 14.3133 59.0328 15.366C58.6198 15.6413 58.2716 15.868 58.2636 15.868C58.2555 15.868 58.2474 15.6332 58.2474 15.3498C58.2474 13.8114 57.9397 12.2568 57.3728 10.9451C57.3162 10.8155 57.2676 10.6941 57.2757 10.6859ZM65.8827 12.3863C65.907 12.4106 65.8017 13.0665 65.7045 13.4551C65.4131 14.6616 64.6277 16.4511 63.6643 18.1352C63.4941 18.4348 63.3403 18.6777 63.324 18.6857C63.308 18.6938 63.0893 18.5723 62.8383 18.4266C61.8991 17.876 60.8303 17.3578 59.6643 16.8719C59.3405 16.7343 59.057 16.6209 59.0489 16.6049C58.9921 16.5562 61.5994 14.8316 62.9759 14.0057C64.069 13.3418 65.8503 12.3539 65.8827 12.3863ZM66.498 12.4835C66.5709 12.4835 68.0446 12.8884 68.8137 13.1151C70.7165 13.6819 72.9026 14.4834 74.3277 15.1312L74.9187 15.3985L74.5059 15.4955C71.0243 16.2971 68.0446 17.2203 65.1701 18.3862C64.9353 18.4833 64.7247 18.5643 64.7087 18.5643C64.6925 18.5643 64.7734 18.3781 64.8787 18.1513C65.7451 16.3134 66.3038 14.3944 66.4413 12.7587C66.4495 12.6048 66.4737 12.4835 66.498 12.4835ZM51.8265 15.8518C51.8507 15.8275 52.9763 16.0947 53.5835 16.2646C54.5066 16.5238 56.4659 17.1796 56.4659 17.2283C56.4659 17.2363 56.2474 17.4226 55.9884 17.6494C54.9277 18.5319 53.9074 19.4629 52.6847 20.6451C52.3203 20.9934 52.0127 21.2768 51.9966 21.2768C51.9803 21.2768 51.9724 21.2281 51.9803 21.1633C52.1665 19.803 52.1261 18.0541 51.867 16.2809C51.8426 16.0541 51.8184 15.8599 51.8265 15.8518ZM75.4776 15.8762C75.4936 15.8923 74.9593 16.7343 74.6193 17.212C74.1335 17.9083 73.4208 18.8315 71.8095 20.8557C70.9595 21.9244 70.0039 23.131 69.6883 23.5358C69.3642 23.9406 69.0972 24.2806 69.089 24.2806C69.0809 24.2806 68.9758 24.135 68.8624 23.9568C67.9555 22.5965 66.8704 21.4063 65.583 20.3375C65.3401 20.135 65.073 19.9164 64.984 19.8516C64.8949 19.7869 64.8219 19.7221 64.8219 19.714C64.8219 19.6898 66.1983 19.0986 67.243 18.6776C69.0729 17.9327 71.5665 17.042 73.437 16.4671C74.4168 16.1595 75.4613 15.8599 75.4776 15.8762ZM76.101 16.038C76.1333 16.03 76.3277 16.1271 76.5625 16.2646C78.5301 17.3901 80.4571 18.8395 81.9794 20.3294C82.4085 20.7505 83.4692 21.8517 83.4529 21.8597C83.4529 21.8597 83.0805 21.8921 82.6433 21.9244C79.2345 22.1836 74.8704 22.9041 70.6761 23.9162C70.3927 23.9809 70.1418 24.0376 70.1255 24.0376C70.1095 24.0376 70.4251 23.7219 70.822 23.3414C73.2834 20.969 74.4089 19.4711 75.7367 16.7991C75.9228 16.4024 76.0849 16.0623 76.101 16.038C76.0929 16.038 76.0929 16.038 76.101 16.038ZM58.0691 17.8842C58.1826 17.9084 59.2352 18.4025 60.0286 18.7991C60.7574 19.1633 61.8505 19.7464 61.9072 19.7949C61.9152 19.803 61.5265 20.0054 61.049 20.2403C59.5266 21.0014 58.2231 21.7219 56.8627 22.5479C56.4741 22.7827 56.1502 22.9771 56.1422 22.9771C56.1098 22.9771 56.1178 22.9446 56.3365 22.5479C57.0652 21.2201 57.6481 19.6331 57.9802 18.0865C58.0125 17.9651 58.0449 17.8842 58.0691 17.8842ZM57.0165 18.0784C57.0409 18.1028 56.7656 19.0986 56.5956 19.6411C56.2635 20.6695 55.7049 21.9568 55.1625 22.9285C55.0328 23.1551 54.8385 23.4871 54.7332 23.6733L54.5309 23.9972L54.0774 23.5601C53.5512 23.0499 53.1219 22.7341 52.5715 22.4507C52.3527 22.3374 52.1828 22.2402 52.1828 22.2241C52.1828 22.1593 53.5673 20.9043 54.628 19.9974C55.3891 19.3415 56.9923 18.0542 57.0165 18.0784ZM63.4537 20.7262L63.8505 20.9852C64.7572 21.5764 65.8259 22.3617 66.6439 23.0499C67.1053 23.4304 67.9959 24.2321 68.1742 24.4264L68.2712 24.5318L67.6155 24.7179C63.9071 25.7462 61.0408 26.6611 57.6967 27.8919C57.3243 28.0295 57.0085 28.1429 56.9841 28.1429C56.9357 28.1429 56.8951 28.1833 57.7292 27.4141C59.8668 25.4467 61.7613 23.2766 63.1703 21.1633L63.4537 20.7262ZM61.7614 21.1472C61.7776 21.1633 60.6683 22.726 60.0043 23.6086C59.2108 24.6612 57.8019 26.4263 56.8303 27.576C56.4256 28.0538 56.0775 28.4505 56.0612 28.4586C56.0368 28.4667 56.0288 28.3453 56.0288 28.159C56.0288 27.1792 55.7778 26.1347 55.3405 25.2441C55.1543 24.8717 55.1219 24.7826 55.1625 24.7422C55.3163 24.6045 57.6725 23.2604 59.1623 22.4589C60.1663 21.9245 61.7369 21.131 61.7614 21.1472ZM51.5268 23.6572C51.5512 23.6572 51.7374 23.7543 51.948 23.8678C52.4661 24.1511 52.9277 24.4669 53.3406 24.807C53.3567 24.8232 53.1463 24.9933 52.871 25.1956C52.1018 25.7462 50.9358 26.6288 50.2558 27.1713C49.5431 27.7381 49.519 27.7543 49.5999 27.6328C50.1343 26.815 50.4014 26.3535 50.6849 25.7625C50.9358 25.2362 51.1868 24.6127 51.3649 24.0702C51.4297 23.8354 51.5107 23.6572 51.5268 23.6572ZM54.2556 25.7948C54.296 25.7868 54.3447 25.8596 54.5632 26.1835C55.0247 26.8716 55.381 27.7948 55.4702 28.5397L55.4862 28.7017L54.3771 29.1308C52.3932 29.9 50.5634 30.6611 49.3245 31.2278C48.9764 31.3898 48.3691 31.6812 47.9724 31.8757C47.5756 32.078 47.2518 32.2319 47.2518 32.2238C47.2518 32.2157 47.5027 32.0295 47.8104 31.8027C50.2315 30.0458 52.3285 28.1186 53.8993 26.1916C54.0694 25.9891 54.2233 25.8029 54.2393 25.7948L54.2556 25.7948ZM53.0006 26.1025C53.033 26.1349 52.11 27.1793 51.4784 27.819C49.9157 29.4142 48.3692 30.6611 46.4501 31.8757C46.2073 32.0295 45.9887 32.1671 45.9643 32.1834C45.9076 32.2157 45.9805 32.1347 46.8226 31.2197C47.357 30.6449 47.7618 30.1591 48.2234 29.56C48.531 29.1633 48.5877 29.1066 49.0331 28.7907C50.2234 27.9324 52.9682 26.0701 53.0006 26.1025Z" fill="url(#paint2_radial)"/>
<path d="M17.9384 59.6293C17.789 59.6293 17.6396 59.6435 17.4916 59.6435C14.4747 59.8043 12.4399 61.132 11.2502 63.7248C10.2327 66.0697 10.3438 69.1349 11.2616 71.4942C12.329 73.7995 14.0536 75.0162 16.9323 75.4757C17.5414 75.5755 17.9498 75.9099 19.1295 77.2873L20.581 78.9878H23.2135L21.463 77.2232C20.4954 76.2556 19.7127 75.4131 19.7127 75.3391C19.7127 75.2651 20.0829 75.1029 20.531 74.9663C22.0081 74.5193 23.2347 73.3782 24.0928 71.6293C24.7872 70.2249 24.8869 69.7907 24.9865 68.0434C25.2469 62.8423 22.5047 59.5907 17.9382 59.6278L17.9384 59.6293ZM20.2464 73.2304C18.9657 73.8507 17.1061 73.9746 15.8921 73.5292C14.637 73.0682 13.4218 71.7647 12.8752 70.2891C12.2677 68.6754 12.3544 65.6985 13.0489 64.3579C14.1659 62.2234 15.6431 61.2416 17.8018 61.2416C21.0035 61.2416 22.8249 63.2026 23.0626 66.8881C23.2505 69.9647 22.2202 72.2728 20.2478 73.2291L20.2464 73.2304ZM65.7229 64.0719C64.6187 64.0719 63.7734 64.5189 63.2041 65.3995L62.7573 66.0968V64.2839H60.8462V75.1557H62.756V71.6807C62.756 68.5031 62.7957 68.1317 63.2397 67.2622C63.8517 66.0697 64.9046 65.4751 65.9222 65.7597L66.6052 65.9589V64.0748H65.7229V64.0719ZM54.4954 63.9723C54.1211 63.9723 53.724 64.0221 53.3286 64.109C50.7714 64.7777 49.3299 67.2252 49.4181 69.744C49.4181 71.853 49.8278 72.9073 50.8454 74.0131C52.9302 75.7235 54.8156 75.86 57.3599 74.9423C57.794 74.7573 58.2664 74.5439 58.2664 74.5439V72.8335L57.3599 73.3031C55.3008 74.1995 53.7497 74.1995 52.5073 73.1436C51.7149 72.3367 51.3661 71.3691 51.2054 70.265H58.911V68.7991C58.911 65.8108 57.1123 63.9239 54.4939 63.9723H54.4954ZM51.379 68.7394C51.379 68.7394 51.6637 66.8753 52.7195 66.1438C53.2276 65.7851 53.811 65.6116 54.3815 65.6116C54.9537 65.6116 55.5242 65.7966 55.9953 66.1567C56.963 66.9009 57.1252 68.7253 57.1252 68.7253H51.3791V68.7394H51.379ZM5.30628 66.7786C3.23445 65.5234 2.31518 64.6183 2.42758 63.551C2.74912 60.5983 6.39781 61.0067 8.41839 62.1239L8.43276 60.1374C8.43276 60.1374 7.31564 59.6536 5.7147 59.6279C3.2586 59.5909 1.67052 60.3963 0.926388 62.0356C-0.166584 64.4547 0.801184 66.2789 4.29901 68.314C6.26269 69.4565 7.13065 70.4485 7.13065 71.5299C7.13065 73.764 4.43694 74.5439 1.65786 73.1422C1.08591 72.8576 0.602027 72.6199 0.576435 72.6199C0.476758 73.2532 0.528138 74.7686 0.528138 74.7686C0.528138 74.7686 1.38199 75.1273 2.66257 75.3747C5.83859 76.0079 8.72883 74.5181 9.00201 72.099C9.23969 69.8279 8.41845 68.6368 5.30641 66.7769L5.30628 66.7786ZM82.6367 63.9467C82.2639 63.9467 81.8683 63.9979 81.4556 64.0847C78.9014 64.7535 77.4626 67.2012 77.5608 69.7199C77.5608 71.826 77.9692 72.8704 78.9866 73.9746C81.0714 75.6866 82.9569 75.8245 85.5141 74.9054C85.9466 74.7205 86.4177 74.5099 86.4177 74.5099V72.7967L85.5127 73.2689C83.4494 74.1626 81.8982 74.1626 80.6603 73.1068C79.8633 72.3014 79.5176 71.3451 79.3567 70.228H87.0495V68.7623C87.0495 65.7883 85.2507 63.8999 82.6324 63.9497L82.6367 63.9467ZM79.5203 68.7138C79.5203 68.7138 79.8078 66.8525 80.8622 66.1068C81.3688 65.7468 81.9522 65.5731 82.5228 65.5731C83.092 65.5731 83.6655 65.7581 84.1367 66.1195C85.1043 66.8638 85.2666 68.7009 85.2666 68.7009H79.5219L79.5203 68.7138ZM44.4916 66.8027C42.4198 65.5505 41.5033 64.6425 41.6143 63.5752C41.9358 60.621 45.5846 61.0309 47.6052 62.148L47.6195 60.1616C47.6195 60.1616 46.5024 59.6777 44.9014 59.6548C42.4453 59.6179 40.8572 60.4233 40.1117 62.0626C39.0203 64.4816 40.0007 66.306 43.487 68.3409C45.448 69.4823 46.316 70.4612 46.316 71.5427C46.316 73.7768 43.6237 74.5695 40.8445 73.1549C40.2753 72.8703 39.7916 72.6354 39.7631 72.6354C39.6634 73.2686 39.7148 74.7842 39.7148 74.7842C39.7148 74.7842 40.5585 75.1301 41.835 75.3904C45.014 76.0251 47.9055 74.5365 48.1774 72.1174C48.4136 69.8577 47.594 68.6667 44.4917 66.8053V66.8027H44.4916ZM93.8657 64.0463C92.7614 64.0463 91.9063 64.4945 91.347 65.3754L90.9 66.0698V64.2598H88.989V75.1287H90.8987V71.6538C90.8987 68.4776 90.937 68.1048 91.3826 67.2367C91.9945 66.0457 93.0473 65.4496 94.0648 65.7355L94.7478 65.9346V64.0464H93.8657V64.0463ZM29.294 66.7401V59.8156H27.3673V75.1529H35.47V73.3415H29.294V66.7401H29.294ZM73.8511 68.8987L72.263 73.0311L70.736 68.8759L69.185 64.2712H67.2128C68.4907 67.8942 69.8808 71.5797 71.2825 75.1529C71.8902 75.1671 72.4992 75.1529 73.1067 75.1529L75.2513 69.7682L77.4356 64.2725H75.5502C75.5502 64.2725 74.7176 66.4555 73.8497 68.9001L73.8511 68.8987ZM33.7337 55.6363C34.044 55.6363 34.3029 55.5368 34.5164 55.3233C34.7269 55.1126 34.8379 54.865 34.8379 54.5548C34.8379 54.2446 34.7269 53.9856 34.5164 53.7864C34.3029 53.5872 34.0567 53.4875 33.7479 53.4875C33.4349 53.4875 33.1759 53.5872 32.9652 53.7977C32.7518 54.0084 32.655 54.2674 32.655 54.5662C32.655 54.8793 32.7547 55.1382 32.9652 55.3347C33.1645 55.5338 33.4235 55.6335 33.7337 55.6335V55.6363ZM33.0507 53.8718C33.2356 53.6869 33.4605 53.6014 33.7479 53.6014C34.0184 53.6014 34.2432 53.6869 34.4311 53.8718C34.6161 54.0568 34.7157 54.2816 34.7157 54.5548C34.7157 54.828 34.6161 55.0643 34.4311 55.2492C34.2433 55.4341 34.0184 55.5224 33.7479 55.5224C33.4733 55.5224 33.2499 55.437 33.065 55.2492C32.88 55.0643 32.7804 54.828 32.7804 54.5548C32.7804 54.2816 32.8657 54.0568 33.0507 53.8718ZM33.5103 54.6545H33.6355C33.7238 54.6545 33.8105 54.7398 33.8845 54.9021L34.034 55.2378H34.2688L34.0839 54.8649C34.0085 54.7156 33.9345 54.6288 33.8476 54.6044C33.9572 54.5788 34.044 54.5419 34.1066 54.4678C34.1691 54.4039 34.1919 54.317 34.1919 54.2188C34.1919 54.105 34.1564 54.0197 34.081 53.957C33.9956 53.8859 33.859 53.8475 33.6825 53.8475H33.287V55.2378H33.4862V54.6544L33.5103 54.6545ZM33.5103 54.0084H33.684C33.8092 54.0084 33.8974 54.034 33.9458 54.0709C33.9928 54.108 34.0056 54.1565 34.0056 54.2446C34.0056 54.4053 33.9058 54.4809 33.721 54.4809H33.5076V54.0084H33.5103ZM1.68325 54.5306C1.68325 54.0468 1.66908 53.6869 1.65766 53.4748H1.66908C1.71882 53.7251 1.78004 53.9116 1.82985 54.0354L3.67968 58.1678H3.98994L5.83977 53.9984C5.88971 53.8847 5.93951 53.7138 6.00067 53.4762H6.01485C5.9779 53.8889 5.96511 54.2475 5.96511 54.5334V58.1807H6.59821V52.759H5.8042L4.10379 56.5299C4.04112 56.6793 3.9543 56.9029 3.84334 57.1988H3.81762C3.78067 57.0522 3.69386 56.8288 3.5701 56.5555L1.90794 52.7461H1.06419V58.1677H1.67321V54.5333L1.68325 54.5306ZM7.98575 54.5407H8.5323V57.9174H7.98575V54.5407ZM8.25899 53.3026C8.37291 53.3026 8.46964 53.2641 8.54359 53.1888C8.61905 53.1147 8.66892 53.018 8.66892 52.9042C8.66892 52.7932 8.63185 52.6935 8.5451 52.6196C8.46826 52.5442 8.37002 52.5056 8.25762 52.5056C8.14672 52.5056 8.04711 52.5442 7.97296 52.6196C7.89775 52.6935 7.84782 52.7932 7.84782 52.9042C7.84782 53.028 7.88627 53.1147 7.97296 53.1888C8.05852 53.2641 8.14665 53.3026 8.25762 53.3026H8.25899ZM12.4285 57.9915V57.3966C12.1296 57.62 11.808 57.7311 11.475 57.7311C11.0767 57.7311 10.7535 57.5946 10.5173 57.3328C10.2826 57.0738 10.1574 56.7136 10.1574 56.2654C10.1574 55.7958 10.2826 55.4229 10.5415 55.1383C10.7906 54.8651 11.1137 54.7285 11.5093 54.7285C11.8323 54.7285 12.1423 54.8282 12.4286 55.0275V54.3943C12.1682 54.2576 11.8708 54.195 11.5349 54.195C10.9144 54.195 10.4307 54.3943 10.0693 54.7786C9.71058 55.1627 9.5256 55.685 9.5256 56.3154C9.5256 56.876 9.68637 57.3471 10.0209 57.7072C10.3695 58.0771 10.815 58.2649 11.3614 58.2649C11.7839 58.2533 12.1296 58.165 12.4285 57.9915ZM13.9923 56.1913C13.9923 55.7459 14.0919 55.386 14.2769 55.1382C14.4506 54.9149 14.6611 54.8025 14.9101 54.8025C15.1208 54.8025 15.2701 54.8409 15.3796 54.9277V54.2816C15.2943 54.2446 15.1705 54.2318 15.0097 54.2318C14.7863 54.2318 14.5872 54.307 14.4121 54.4453C14.2272 54.5917 14.0792 54.8153 13.9924 55.0999H13.9782V54.3072H13.3592V58.1778H13.9796V56.1913H13.9923ZM17.5541 58.2546C18.1376 58.2546 18.6072 58.0668 18.9558 57.694C19.3029 57.3239 19.4765 56.8259 19.4765 56.2054C19.4765 55.5723 19.3173 55.0885 18.9928 54.7283C18.6712 54.3685 18.2243 54.1946 17.6408 54.1946C17.0573 54.1946 16.5877 54.3683 16.2391 54.7041C15.8664 55.0743 15.67 55.5965 15.67 56.2667C15.67 56.8502 15.8293 57.334 16.1653 57.694C16.5124 58.0668 16.9721 58.2532 17.5541 58.2532V58.2546ZM16.6718 55.1013C16.9081 54.8522 17.2184 54.7283 17.6025 54.7283C18.001 54.7283 18.2998 54.8522 18.5218 55.1013C18.7452 55.3617 18.8563 55.7332 18.8563 56.2297C18.8563 56.7021 18.7566 57.0735 18.546 57.3226C18.3354 57.583 18.0252 57.7209 17.6153 57.7209C17.2169 57.7209 16.9081 57.5829 16.6718 57.3226C16.4371 57.0607 16.3246 56.7021 16.3246 56.2297C16.3005 55.7601 16.4243 55.376 16.6718 55.1013ZM22.1932 57.9174C22.4294 57.7069 22.5547 57.4479 22.5547 57.1233C22.5547 56.8387 22.455 56.6025 22.27 56.4161C22.1191 56.2668 21.8859 56.1315 21.5486 55.9949C21.2496 55.8698 21.0647 55.7586 20.965 55.6718C20.8655 55.5723 20.8043 55.4486 20.8043 55.2734C20.8043 55.1127 20.8669 54.9888 20.9894 54.8892C21.1146 54.7898 21.274 54.7414 21.4875 54.7414C21.8219 54.7414 22.1078 54.8295 22.3696 55.016V54.3955C22.1192 54.2704 21.8474 54.2107 21.5371 54.2107C21.1387 54.2107 20.8029 54.3203 20.5552 54.5321C20.2947 54.7429 20.171 55.0161 20.171 55.3375C20.171 55.6221 20.2563 55.8584 20.4185 56.0319C20.5551 56.18 20.7887 56.3309 21.113 56.466C21.4233 56.6026 21.6339 56.7263 21.7462 56.8259C21.8572 56.9256 21.907 57.0493 21.907 57.196C21.907 57.5574 21.6594 57.7439 21.1756 57.7439C20.8027 57.7439 20.4684 57.6215 20.1694 57.3739V58.0425C20.4398 58.205 20.7643 58.2788 21.1229 58.2788C21.5825 58.2547 21.9425 58.1423 22.1901 57.9189L22.1932 57.9174ZM25.1474 54.1948C24.5638 54.1948 24.0943 54.3685 23.7456 54.7042C23.3757 55.0744 23.1765 55.5966 23.1765 56.2669C23.1765 56.8503 23.3374 57.3342 23.6717 57.6942C24.0203 58.0669 24.4785 58.2533 25.062 58.2533C25.6596 58.2533 26.1151 58.0656 26.4636 57.6926C26.8123 57.3227 26.9858 56.8246 26.9858 56.2041C26.9858 55.5709 26.8236 55.0871 26.502 54.7271C26.1663 54.367 25.7193 54.1934 25.1501 54.1934L25.1474 54.1948ZM26.3512 56.2298C26.3512 56.7021 26.2515 57.0736 26.041 57.3226C25.8303 57.5831 25.5201 57.721 25.1102 57.721C24.7116 57.721 24.403 57.5829 24.1667 57.3226C23.9319 57.0608 23.8195 56.7021 23.8195 56.2298C23.8195 55.7317 23.9434 55.3476 24.1924 55.0885C24.4271 54.8409 24.7375 54.7156 25.1231 54.7156C25.5072 54.7156 25.8161 54.8407 26.0394 55.0885C26.2387 55.3616 26.3497 55.7331 26.3497 56.2298H26.3512ZM28.0276 58.1664H28.6466V54.8153H29.553V54.2944H28.6465V53.6968C28.6465 53.1533 28.857 52.8801 29.2925 52.8801C29.4391 52.8801 29.5885 52.917 29.6996 52.9797V52.4205C29.5885 52.3707 29.4391 52.3594 29.2526 52.3594C28.9182 52.3594 28.6451 52.4591 28.4215 52.6696C28.1611 52.9171 28.0232 53.2388 28.0232 53.6743V54.309H27.3684V54.8298H28.0232V58.1683L28.0276 58.1664ZM30.5703 57.1105C30.5703 57.8677 30.9049 58.2533 31.5879 58.2533C31.8355 58.2533 32.0219 58.2135 32.1713 58.1252V57.593C32.0575 57.6785 31.9223 57.7184 31.7729 57.7184C31.5624 57.7184 31.4144 57.6684 31.3275 57.556C31.2392 57.4451 31.1895 57.2571 31.1895 56.9981V54.8139H32.1712V54.293H31.1895V53.1519C30.976 53.2258 30.7669 53.2885 30.569 53.351V54.2929H29.9002V54.8138H30.569V57.1092L30.5703 57.1105ZM97.1671 64.2454C96.9565 64.0463 96.7074 63.9467 96.3987 63.9467C96.0857 63.9467 95.8266 64.0463 95.616 64.2597C95.4054 64.4689 95.3057 64.7293 95.3057 65.0282C95.3057 65.3385 95.4054 65.5975 95.6144 65.7966C95.8251 65.9958 96.084 66.0955 96.3971 66.0955C96.7059 66.0955 96.9663 65.9958 97.1798 65.7852C97.389 65.5718 97.5 65.3256 97.5 65.0169C97.4886 64.7038 97.3762 64.4447 97.1656 64.2456L97.1671 64.2454ZM97.0675 65.7113C96.8824 65.8962 96.6576 65.9816 96.3844 65.9816C96.1141 65.9816 95.8893 65.8962 95.7014 65.7113C95.5165 65.5234 95.4168 65.2886 95.4168 65.0139C95.4168 64.7435 95.5021 64.5188 95.69 64.3309C95.8749 64.1461 96.0985 64.0605 96.3844 64.0605C96.6548 64.0605 96.8798 64.1461 97.0675 64.3309C97.2524 64.5188 97.352 64.7435 97.352 65.0139C97.352 65.3015 97.2667 65.5234 97.0675 65.7113ZM96.5096 65.078C96.6206 65.0524 96.7089 65.0026 96.77 64.9414C96.8327 64.8773 96.8555 64.7904 96.8555 64.6911C96.8555 64.58 96.8199 64.4918 96.7446 64.4306C96.6592 64.3594 96.5212 64.321 96.3463 64.321H95.9506V65.7097H96.1499V65.1263H96.2736C96.3591 65.1263 96.4445 65.2116 96.5212 65.3739L96.6691 65.7083H96.9055L96.7206 65.3354C96.6565 65.1732 96.5824 65.0991 96.5072 65.0749L96.5096 65.078ZM96.373 64.9528H96.1596V64.4833H96.3347C96.4585 64.4833 96.5452 64.5059 96.5951 64.5445C96.6448 64.5814 96.6563 64.6298 96.6563 64.7181C96.6563 64.8789 96.5566 64.9529 96.3717 64.9529L96.373 64.9528ZM61.7528 54.1337H61.9264V52.7434H62.3859V52.5698H61.2932V52.7434H61.7529V54.1337H61.7528ZM62.8058 53.0892C62.8058 52.9539 62.8058 52.8429 62.7958 52.7805C62.8072 52.8543 62.8328 52.9043 62.8442 52.9412L63.3779 54.1337H63.4633L63.9982 52.9297C64.0126 52.8928 64.024 52.8444 64.0481 52.7805C64.0367 52.9043 64.0367 53.0036 64.0367 53.0792V54.1323H64.2217V52.5698H63.9982L63.5145 53.6484C63.5031 53.6869 63.4645 53.7622 63.4405 53.8477H63.4262C63.4162 53.7978 63.3907 53.748 63.3551 53.6628L62.8713 52.5699H62.6209V54.1352H62.7958V53.0907L62.8058 53.0892Z" fill="#231F1F"/>
<defs>
<linearGradient id="paint0_linear" x1="43.4665" y1="48.7644" x2="47.34" y2="46.4756" gradientUnits="userSpaceOnUse">
<stop stop-color="#909CA9"/>
<stop offset="1" stop-color="#EDEDEE"/>
</linearGradient>
<linearGradient id="paint1_linear" x1="43.5548" y1="5.6137" x2="46.6715" y2="5.6137" gradientUnits="userSpaceOnUse">
<stop stop-color="#939FAB"/>
<stop offset="1" stop-color="#DCDEE1"/>
</linearGradient>
<radialGradient id="paint2_radial" cx="0" cy="0" r="1" gradientUnits="userSpaceOnUse" gradientTransform="translate(59.2827 19.9079) rotate(-171.457) scale(4.01835 8.0387)">
<stop stop-color="#EE352C"/>
<stop offset="1" stop-color="#A91D22"/>
</radialGradient>
</defs>
</svg>
