<svg xmlns="http://www.w3.org/2000/svg" viewBox="0 0 112 59" fill="none"  xmlns:v="https://vecta.io/nano"><path d="M.7 53.176h3.663V38.71l5.671 12.612c.669 1.526 1.585 2.066 3.382 2.066s2.677-.54 3.347-2.066l5.671-12.611v14.467h3.664V38.734c0-1.409-.564-2.09-1.726-2.442-2.783-.869-4.65-.118-5.495 1.761L13.311 50.5l-5.39-12.446c-.81-1.879-2.712-2.63-5.495-1.761C1.264 36.643.7 37.325.7 38.734v14.443zm28.445-11.775h3.662v7.97c-.034.433.139 1.449 2.146 1.481h7.966v-9.49h3.671c.017 0-.004 12.941-.003 12.996.02 3.192-3.96 3.885-5.795 3.938H29.224v-2.465l11.588-.001c2.358-.249 2.079-1.421 2.079-1.815v-.961h-7.787c-3.623-.033-5.93-1.614-5.958-3.433-.003-.169.078-8.142-.002-8.221z" fill="#00618a"/><path d="M49.413 53.176h10.532c1.233 0 2.431-.258 3.382-.705 1.585-.728 2.36-1.714 2.36-3.006v-2.677c0-1.057-.881-2.043-2.607-2.701-.916-.353-2.043-.54-3.135-.54h-4.439c-1.479 0-2.184-.446-2.36-1.432-.035-.118-.035-.212-.035-.329v-1.667c0-.094 0-.188.035-.306.176-.751.564-.963 1.867-1.08.106 0 .246-.024.352-.024h10.462v-2.442H55.542c-1.479 0-2.254.094-2.959.305-2.184.681-3.135 1.762-3.135 3.64v2.137c0 1.644 1.867 3.053 5.002 3.382l1.057.047h3.804c.141 0 .282 0 .388.024 1.163.094 1.655.305 2.008.728.211.211.282.423.282.658v2.137c0 .259-.176.587-.528.869-.317.282-.846.47-1.55.517-.141 0-.247.023-.387.023h-10.11v2.442zm39.129-4.25c0 2.513 1.867 3.922 5.636 4.204l1.057.047h9.546v-2.442h-9.617c-2.149 0-2.959-.54-2.959-1.832V36.268h-3.663v12.658zm-20.517.128v-8.707c0-2.212 1.553-3.554 4.624-3.977a7 7 0 0 1 .989-.071h6.954a7.5 7.5 0 0 1 1.024.071c3.071.424 4.624 1.765 4.624 3.977v8.707c0 1.795-.66 2.755-2.18 3.381l3.609 3.257h-4.254l-2.919-2.635-2.939.186h-3.918c-.671 0-1.377-.094-2.153-.306-2.329-.635-3.459-1.859-3.459-3.883zm3.954-.212c0 .118.035.235.07.377.212 1.012 1.165 1.577 2.612 1.577h3.328l-3.057-2.76h4.254l2.666 2.407c.491-.262.815-.662.928-1.177.035-.117.035-.235.035-.353v-8.354c0-.094 0-.212-.035-.33-.212-.941-1.165-1.482-2.577-1.482h-5.542c-1.624 0-2.682.706-2.682 1.812v8.284z" fill="#e48e00"/><g fill="#00618a"><path d="M108.004 32.216c-2.252-.061-3.973.148-5.443.769-.418.176-1.085.181-1.153.705.23.241.266.6.448.896.351.568.944 1.33 1.473 1.729l1.793 1.281c1.102.672 2.333 1.056 3.394 1.729.625.397 1.247.897 1.857 1.344.301.221.504.566.896.704v-.064c-.206-.262-.259-.623-.448-.897l-.833-.832c-.813-1.08-1.847-2.029-2.945-2.817-.876-.629-2.836-1.478-3.202-2.497l-.064-.064c.621-.07 1.348-.295 1.921-.448.963-.258 1.824-.191 2.818-.448l1.345-.384v-.256c-.503-.516-.861-1.198-1.409-1.665-1.434-1.221-2.999-2.441-4.611-3.458-.893-.564-1.998-.931-2.945-1.409-.319-.161-.878-.244-1.089-.512-.498-.634-.769-1.438-1.152-2.177l-2.305-4.867c-.486-1.11-.803-2.206-1.409-3.202-2.908-4.78-6.037-7.666-10.886-10.502-1.031-.603-2.274-.841-3.586-1.153l-2.113-.128c-.43-.18-.877-.706-1.281-.961-1.606-1.015-5.726-3.222-6.915-.32-.751 1.831 1.123 3.619 1.793 4.547.47.651 1.073 1.381 1.409 2.113.221.481.259.964.448 1.473.466 1.254.87 2.619 1.473 3.778.304.586.64 1.204 1.025 1.729.236.322.64.464.704.961-.395.553-.418 1.412-.64 2.113-1.001 3.156-.623 7.078.833 9.413.447.717 1.499 2.255 2.945 1.665 1.266-.515.983-2.113 1.345-3.522.082-.32.032-.554.192-.768v.064l1.153 2.305c.853 1.374 2.367 2.81 3.65 3.779.665.502 1.189 1.371 2.049 1.665v-.064h-.064c-.167-.26-.427-.367-.64-.576a14.67 14.67 0 0 1-1.473-1.665c-1.167-1.584-2.198-3.318-3.137-5.123-.449-.862-.839-1.812-1.217-2.689-.146-.338-.144-.849-.448-1.025-.414.643-1.024 1.162-1.345 1.921-.512 1.213-.578 2.692-.768 4.226-.112.04-.062.012-.128.064-.892-.215-1.205-1.133-1.537-1.921-.838-1.992-.994-5.199-.256-7.492.191-.593 1.053-2.462.704-3.01-.167-.547-.717-.863-1.024-1.281-.381-.517-.761-1.197-1.025-1.793-.686-1.553-1.006-3.297-1.729-4.866-.345-.751-.929-1.51-1.409-2.177-.531-.739-1.125-1.283-1.537-2.177-.146-.318-.345-.826-.128-1.153.069-.22.166-.312.384-.384.371-.286 1.406.095 1.793.256 1.027.427 1.884.833 2.754 1.409.418.277.84.812 1.344.961h.576c.901.207 1.911.064 2.753.32 1.489.452 2.823 1.156 4.034 1.921 3.691 2.33 6.709 5.648 8.773 9.605.332.637.476 1.245.768 1.921.59 1.363 1.334 2.765 1.921 4.098s1.157 2.672 1.985 3.778c.436.582 2.117.894 2.881 1.217.536.227 1.414.463 1.921.768.969.585 1.909 1.281 2.818 1.921.454.32 1.851 1.022 1.921 1.601z"/><path d="M79.38 7.819a4.58 4.58 0 0 0-1.153.128v.064h.064c.224.46.619.756.896 1.153l.64 1.344.064-.064c.397-.279.578-.727.576-1.409-.159-.167-.182-.377-.32-.576-.183-.266-.538-.417-.768-.64z" fill-rule="evenodd"/></g><path fill-rule="evenodd" d="M106.5 50.664c0 1.613 1.274 2.7 2.7 2.7s2.7-1.087 2.7-2.7-1.275-2.7-2.7-2.7-2.7 1.087-2.7 2.7zm4.795 0c0 1.224-.936 2.138-2.095 2.138-1.173 0-2.095-.915-2.095-2.138s.922-2.138 2.095-2.138c1.159 0 2.095.915 2.095 2.138zm-1.368 1.541h.605l-.885-1.353c.475-.05.834-.281.834-.842 0-.626-.395-.886-1.158-.886h-1.203v3.081h.518v-1.332h.483l.806 1.332zm-1.289-1.764v-.886h.598c.31 0 .684.058.684.418 0 .432-.338.468-.727.468h-.555z" fill="#e48e00"/></svg>