<svg xmlns="http://www.w3.org/2000/svg" viewBox="0 0 98 79" fill="none"  xmlns:v="https://vecta.io/nano"><path d="M66.263 25.536l-10.712 3.498-9.32 4.113-2.607.688-2.113 1.919-2.186 1.83c-.656.518-1.627 1.49-2.121 2.105-.737.923-1.32 1.903-1.571 2.656-.445 1.36-.227 2.737.632 4.008 1.101 1.619 3.295 3.271 5.854 4.397 1.304.575 3.498 1.312 5.15 1.725 2.745.696 8.056 1.449 10.979 1.563.591.024 1.385.024 1.417 0 .065-.041.518-.907 1.045-1.984 1.797-3.668 3.093-7.109 3.797-10.048.421-1.781.753-4.154.971-6.963.057-.785.081-3.417.032-4.308-.073-1.457-.202-2.639-.405-3.797-.032-.17-.041-.324-.024-.332.032-.024.129-.057 1.449-.437l-.267-.632h0zm-2.445 1.433c.097 0 .356 2.486.421 4.057.016.332.008.551-.008.551-.065 0-1.368-.769-2.299-1.352-.81-.51-2.348-1.53-2.591-1.725-.081-.057-.073-.065.591-.291 1.125-.381 3.797-1.239 3.886-1.239zm-5.457 1.797c.073 0 .259.105.704.381 1.668 1.044 3.935 2.308 4.907 2.729.3.129.332.081-.356.551-1.474 1.004-3.312 1.992-5.563 2.988-.397.178-.729.316-.737.316-.016 0 .032-.202.097-.445.543-2.016.85-4.057.867-5.692.008-.81.008-.81.081-.834zm-1.125.429c.048.048.016 1.862-.049 2.356-.146 1.182-.373 2.283-.745 3.522-.089.299-.17.55-.186.567-.033.04-1.142-1.045-1.506-1.466-.632-.729-1.125-1.458-1.49-2.17-.186-.364-.478-1.077-.453-1.101.13-.089 4.397-1.741 4.429-1.708zm-5.296 2.081c.008 0 .016 0 .024.008.016.016.073.146.121.291.259.704.842 1.741 1.344 2.405.55.729 1.271 1.506 1.87 2.016.194.162.372.316.397.34.049.049.065.04-1.255.543-1.53.583-3.198 1.166-5.109 1.781l-1.368.445c-.073.024-.049-.016.162-.348.947-1.482 2.389-4.389 3.198-6.445l.3-.793c.032-.113.073-.154.178-.211.057-.016.113-.032.138-.032zm-1.619.672c.024.016-.389.882-.794 1.676-.785 1.53-1.644 3.036-2.793 4.866l-.405.64c-.04.057-.057.04-.186-.211-.275-.542-.502-1.239-.624-1.879-.122-.632-.097-1.733.041-2.413.105-.502.097-.494.34-.615 1.036-.526 4.389-2.097 4.421-2.065zm13.967.567v.34a44.05 44.05 0 0 1-.478 6.089l-.097.583-.51-.146c-1.215-.381-2.534-.939-3.725-1.595-.785-.429-1.927-1.134-1.895-1.166.008-.008.348-.186.745-.397 1.587-.826 3.109-1.717 4.429-2.599.494-.332 1.239-.866 1.401-1.012l.129-.097zm-20.08 2.397c.032 0 .024.065-.024.356a11.48 11.48 0 0 0-.089.866c-.065 1.182.13 2.057.712 3.255.162.332.291.607.283.615-.057.049-5.417 1.62-7.101 2.081l-.972.267c-.057.016-.065.008-.04-.13.186-1.19 1.093-2.745 2.356-4.056.842-.874 1.514-1.384 2.664-2.04l2.194-1.206zm12.631 2.259c.008-.008.202.097.437.235 1.733 1.004 4.146 1.935 6.202 2.413l.186.04-.259.146c-1.077.599-4.615 2.073-8.234 3.425l-1.142.429c-.097.04-.186.065-.186.057s.146-.292.332-.64c1.012-1.895 2.032-4.202 2.551-5.806.065-.154.105-.291.113-.3zm-1.287.421c.008.008-.057.178-.138.373-.704 1.708-1.628 3.571-2.81 5.66l-.559.964c-.008 0-.251-.146-.542-.324-1.717-1.053-3.239-2.348-4.235-3.603l-.146-.178.737-.202c2.64-.721 4.882-1.498 7.109-2.453l.583-.235zm8 2.794c.008.186-.405 1.854-.745 3.06a87.79 87.79 0 0 1-.972 3.206l-.372 1.125c-.008 0-.057-.008-.105-.024-2.405-.437-4.558-1.045-6.583-1.854-.567-.227-1.377-.591-1.425-.632-.016-.016.47-.243 1.085-.51 3.684-1.611 7.506-3.441 8.817-4.227.154-.097.275-.146.3-.146zm-18.469.632c.016.016-1.012 1.498-2.454 3.514l-1.303 1.838c-.219.308-.551.794-.737 1.085l-.34.526-.364-.308a13.49 13.49 0 0 1-1.506-1.538c-.696-.866-1.166-1.781-1.352-2.615-.089-.389-.089-.583-.008-.607a606.51 606.51 0 0 1 4.308-1.012l2.899-.68.858-.202zm1.036.397l.259.292a15.2 15.2 0 0 0 3.798 3.109c.259.146.453.275.437.284-.056.041-5.004 1.797-7.295 2.591l-2.356.818a1.39 1.39 0 0 1-.162-.105l-.146-.105.235-.34c.761-1.101 1.717-2.308 3.798-4.818l1.433-1.725zm6.461 4.623c.008-.008.364.121.802.284a25.92 25.92 0 0 0 3.004.931c1.377.348 3.368.688 4.542.785.178.016.275.032.243.057-.057.032-1.247.429-2.121.704-1.393.437-5.643 1.692-9.109 2.688l-1.223.348c-.081.016-.348-.057-.348-.089 0-.016.194-.267.429-.542 1.166-1.393 2.324-2.947 3.287-4.421l.494-.745zm-1.425.041c.008.008-.567.931-1.571 2.518l-1.077 1.7-.543.891-.235.413-.121-.032c-.292-.081-2.34-.802-2.883-1.02-.672-.267-1.368-.591-1.887-.866-.648-.348-1.457-.866-1.393-.883.016-.008 1.125-.308 2.461-.672l6.801-1.927c.235-.073.437-.13.445-.121zm10.081 2.364h.008c.032.081-1.279 3.725-1.757 4.874-.105.259-.145.324-.202.316-.138-.008-2.04-.275-3.198-.445-2.016-.308-5.401-.899-6.251-1.093l-.194-.04 1.206-.275c2.591-.583 3.838-.899 5.101-1.287 1.595-.486 3.174-1.093 4.769-1.838.251-.113.462-.203.518-.211z" fill="url(#A)"/><path d="M55.218.565c-.178-.024-3.053 1.012-4.907 1.765-2.502 1.02-4.445 1.992-5.644 2.834-.445.316-1.004.875-1.093 1.093-.032.081-.049.178-.049.275l1.085 1.028 2.583.826 6.146 1.101 7.028 1.206.073-.607c-.024 0-.041-.008-.065-.008l-.923-.146-.186-.332-2.623-5.182c-.478-1.093-.931-2.356-1.182-3.263-.138-.551-.154-.583-.243-.591h0 0 0zm-.13.413h.008c.008.008.04.235.073.502.137 1.134.389 2.227.785 3.409.3.891.3.842-.049.737-.826-.227-4.526-.866-7.206-1.239l-.794-.121c-.032-.032 1.935-1.061 2.802-1.466l4.38-1.822zm-7.805 3.627l.316.105c1.716.583 6.032 1.409 8.413 1.603l.502.049c.008.008-.218.13-.51.267l-3.287 1.822c-.259.162-.494.291-.526.291s-.202-.032-.38-.057l-.324-.049-.81-.794-2.972-2.858-.421-.38zm-.324.251l1.142 1.425 1.393 1.725.243.316c-.032.024-1.652-.292-2.51-.486l-1.789-.47-.445-.146v-.113c.008-.543.696-1.352 1.862-2.178l.105-.073zm9.7 1.943c.032 0 .073.073.17.291.275.607 1.134 2.243 1.344 2.559.065.105.178.113-.963-.073l-3.627-.607c0-.008.081-.065.186-.121.85-.47 1.709-1.069 2.47-1.708l.389-.324c.008-.016.024-.024.032-.016z" fill="url(#B)"/><path d="M43.632 6.144s-.178.284-.008.705c.105.259.413.575.761.899l4.04 4.016c1.992 2.3 2.858 4.567 2.939 7.692.049 2.008-.332 3.773-1.279 5.822-1.684 3.676-5.239 7.733-10.72 12.235l.802-.267c.518-.389 1.223-.802 2.874-1.709 3.814-2.089 8.105-4.008 13.368-5.984 7.578-2.85 20.04-6.186 27.133-7.271l.737-.113-.113-.178c-.648-1.004-1.093-1.627-1.628-2.291-1.554-1.927-3.441-3.49-5.749-4.785-3.174-1.773-7.279-3.158-12.477-4.186-.98-.194-3.134-.567-4.882-.834l-8.745-1.425-3.304-.607c-.486-.105-1.417-.324-2.146-.575-.583-.227-1.425-.454-1.603-1.142zm2.089 2.024c.008-.008.138.04.308.097.308.105.704.227 1.174.356l1.069.283.899.235c.057.057.875 2.672 1.15 3.676.105.381.186.704.178.704-.008.008-.097-.13-.203-.316-.947-1.668-2.445-3.36-4.178-4.721-.227-.162-.397-.308-.397-.316zm3.984 1.101c.041 0 .219.024.437.073 1.377.308 3.846.777 5.425 1.045.267.04.478.089.478.105s-.097.073-.219.138c-.267.138-1.344.777-1.7 1.02-.899.599-1.708 1.247-2.291 1.83l-.437.429s-.049-.138-.089-.308c-.291-1.125-.899-2.793-1.449-3.967-.089-.186-.162-.356-.162-.372zm7.012 1.336c.049.016.13.291.291.899.3 1.174.437 2.486.389 3.708-.016.34-.032.656-.049.696l-.024.081-.421-.138c-.866-.275-2.275-.688-3.481-1.028-.688-.186-1.247-.356-1.247-.372 0-.049 1.004-1.053 1.433-1.433.818-.721 3.036-2.437 3.109-2.413zm.559.081c.024-.024 3.352.551 4.866.842l2.858.599c.048.016-.122.113-.664.356-2.138.964-3.725 1.83-5.303 2.883l-.769.502c-.008 0-.016-.235-.016-.518 0-1.538-.308-3.093-.875-4.405-.057-.13-.105-.251-.097-.259zm8.607 1.7c.024.024-.081.68-.178 1.069-.291 1.207-1.077 2.996-2.04 4.68-.17.3-.324.543-.34.55s-.235-.113-.486-.259c-.939-.551-2.008-1.069-3.174-1.555-.324-.138-.607-.251-.615-.267-.057-.049 2.55-1.773 3.927-2.599 1.093-.664 2.874-1.652 2.907-1.619zm.615.097c.073 0 1.547.405 2.316.632 1.903.567 4.089 1.368 5.514 2.016l.591.267-.413.097c-3.482.802-6.461 1.725-9.336 2.891-.235.097-.445.178-.461.178s.065-.186.17-.413c.866-1.838 1.425-3.757 1.563-5.393.008-.154.032-.275.057-.275zm-14.672 3.368c.024-.024 1.15.243 1.757.413.923.259 2.882.915 2.882.964 0 .008-.218.194-.477.421-1.061.883-2.081 1.814-3.304 2.996-.364.348-.672.632-.688.632s-.024-.049-.016-.114c.186-1.36.146-3.109-.113-4.882-.024-.227-.049-.421-.04-.429zm23.651.024c.016.016-.518.858-.858 1.336-.486.696-1.198 1.619-2.81 3.644l-2.121 2.68-.599.745c-.008 0-.113-.146-.227-.324-.907-1.36-1.992-2.55-3.279-3.619l-.599-.486c-.089-.065-.162-.13-.162-.138 0-.024 1.376-.615 2.421-1.036a83.01 83.01 0 0 1 6.194-2.211c.98-.308 2.024-.607 2.041-.591zm.623.162c.032-.008.227.089.462.227 1.968 1.125 3.895 2.575 5.417 4.065.429.421 1.49 1.522 1.474 1.53l-.81.065c-3.409.259-7.773.98-11.967 1.992l-.551.121c-.016 0 .3-.316.697-.696 2.461-2.372 3.587-3.87 4.915-6.542l.364-.761zm-18.032 1.846c.114.024 1.166.518 1.959.915.729.364 1.822.947 1.879.996.008.008-.381.211-.858.445a56.41 56.41 0 0 0-4.186 2.308l-.72.429c-.032 0-.024-.032.194-.429a16.91 16.91 0 0 0 1.644-4.461c.032-.121.065-.202.089-.202zm-1.053.194c.024.024-.251 1.02-.421 1.563a19.94 19.94 0 0 1-1.433 3.287l-.429.745-.202.324-.454-.437c-.526-.51-.956-.826-1.506-1.109-.219-.113-.389-.21-.389-.227 0-.065 1.385-1.32 2.445-2.227.761-.656 2.364-1.943 2.389-1.919zm6.437 2.648l.397.259a30.79 30.79 0 0 1 2.793 2.065c.461.38 1.352 1.182 1.53 1.377l.097.105-.656.186c-3.708 1.028-6.575 1.943-9.919 3.174-.372.138-.688.251-.713.251-.048 0-.089.04.745-.729 2.138-1.967 4.032-4.138 5.441-6.251l.283-.437zm-1.692.421c.016.016-1.093 1.579-1.757 2.461a109.67 109.67 0 0 1-3.174 3.967l-.769.883c-.024.008-.032-.113-.032-.3 0-.98-.251-2.024-.688-2.915-.186-.372-.219-.462-.178-.502.154-.138 2.51-1.482 4-2.283 1.004-.534 2.575-1.328 2.599-1.312zm-10.235 2.51c.024 0 .211.097.421.211.518.283.98.599 1.393.939.016.016-.194.186-.47.389-.769.551-1.935 1.433-2.615 1.976-.713.567-.737.583-.656.462.534-.818.802-1.279 1.085-1.87a15.08 15.08 0 0 0 .68-1.692c.065-.235.146-.413.162-.413zm2.729 2.138c.04-.008.089.065.308.389.462.688.818 1.611.907 2.356l.016.162-1.109.429c-1.984.769-3.814 1.53-5.053 2.097l-1.352.648c-.397.202-.721.356-.721.348s.251-.194.559-.421c2.421-1.757 4.518-3.684 6.089-5.611l.34-.397h.016zm-1.255.308c.032.032-.891 1.077-1.522 1.717-1.563 1.595-3.109 2.842-5.028 4.057l-.486.308c-.057.032.016-.049.858-.964a22.06 22.06 0 0 0 1.401-1.66c.308-.397.364-.453.81-.769 1.19-.858 3.935-2.721 3.968-2.688z" fill="url(#C)"/><path d="M17.938 59.629l-.447.014c-3.017.161-5.052 1.488-6.241 4.081-1.018 2.345-.906 5.41.011 7.769 1.067 2.305 2.792 3.522 5.671 3.981.609.1 1.017.434 2.197 1.812l1.451 1.7h2.633l-1.75-1.765-1.75-1.884c0-.074.37-.236.818-.373 1.477-.447 2.704-1.588 3.562-3.337.694-1.404.794-1.839.894-3.586.26-5.201-2.482-8.453-7.048-8.416v.002zm2.308 13.601c-1.281.62-3.14.744-4.354.299-1.255-.461-2.47-1.764-3.017-3.24-.607-1.614-.521-4.591.174-5.931 1.117-2.135 2.594-3.116 4.753-3.116 3.202 0 5.023 1.961 5.261 5.646.188 3.077-.842 5.385-2.815 6.341l-.001.001zm45.476-9.159c-1.104 0-1.949.447-2.519 1.328l-.447.697v-1.813h-1.911v10.872h1.91v-3.475c0-3.178.04-3.549.484-4.418.612-1.193 1.665-1.787 2.683-1.503l.683.199v-1.884h-.882v-.003zm-11.227-.1a5.5 5.5 0 0 0-1.167.137c-2.557.669-3.999 3.116-3.91 5.635 0 2.109.41 3.163 1.427 4.269 2.085 1.71 3.97 1.847 6.515.929l.906-.398v-1.71l-.906.47c-2.059.896-3.61.896-4.853-.159-.792-.807-1.141-1.775-1.302-2.879h7.706v-1.466c0-2.988-1.799-4.875-4.417-4.827h.002zm-3.116 4.767s.285-1.864 1.34-2.596a2.88 2.88 0 0 1 1.662-.532 2.66 2.66 0 0 1 1.614.545c.968.744 1.13 2.569 1.13 2.569h-5.746v.014h0zM5.306 66.779c-2.072-1.255-2.991-2.16-2.879-3.228.322-2.953 3.97-2.544 5.991-1.427l.014-1.986s-1.117-.484-2.718-.51c-2.456-.037-4.044.768-4.788 2.408-1.093 2.419-.125 4.243 3.373 6.278 1.964 1.143 2.832 2.135 2.832 3.216 0 2.234-2.694 3.014-5.473 1.612L.576 72.62c-.1.633-.048 2.149-.048 2.149s.854.359 2.134.606c3.176.633 6.066-.857 6.339-3.276.238-2.271-.584-3.462-3.696-5.322v.002zm77.33-2.832c-.373 0-.768.051-1.181.138-2.554.669-3.993 3.117-3.895 5.635 0 2.106.408 3.151 1.426 4.255 2.085 1.712 3.97 1.85 6.528.931l.904-.395v-1.713l-.905.472c-2.063.894-3.614.894-4.852-.162-.797-.805-1.143-1.762-1.304-2.879h7.693v-1.466c0-2.974-1.799-4.862-4.417-4.813l.004-.003zm-3.116 4.767s.287-1.861 1.342-2.607c.507-.36 1.09-.534 1.661-.534a2.66 2.66 0 0 1 1.614.546c.968.744 1.13 2.581 1.13 2.581h-5.745l-.002.013zm-35.029-1.911c-2.072-1.252-2.988-2.16-2.877-3.227.322-2.954 3.97-2.544 5.991-1.427l.014-1.986s-1.117-.484-2.718-.507c-2.456-.037-4.044.768-4.79 2.408-1.091 2.419-.111 4.243 3.375 6.278 1.961 1.141 2.829 2.12 2.829 3.202 0 2.234-2.692 3.027-5.472 1.612-.569-.285-1.053-.519-1.081-.519-.1.633-.048 2.149-.048 2.149a12.99 12.99 0 0 0 2.12.606c3.179.635 6.071-.854 6.342-3.273.236-2.26-.583-3.451-3.686-5.312v-.003h0zm49.374-2.756c-1.104 0-1.959.448-2.519 1.329l-.447.694v-1.81h-1.911v10.869h1.91v-3.475c0-3.176.038-3.549.484-4.417.612-1.191 1.665-1.787 2.682-1.501l.683.199v-1.888h-.882 0zM29.294 66.74v-6.924h-1.927v15.337h8.103v-1.811h-6.176V66.74zm44.557 2.159l-1.588 4.132-1.527-4.155-1.551-4.605h-1.972a337.29 337.29 0 0 0 4.07 10.882c.608.014 1.217 0 1.824 0l4.329-10.88H75.55l-1.699 4.626zM33.734 55.636c.31 0 .569-.099.783-.313s.322-.458.322-.769a1.02 1.02 0 0 0-.322-.768 1.07 1.07 0 0 0-.768-.299c-.313 0-.572.1-.783.31s-.31.47-.31.769c0 .313.1.572.31.768.199.199.458.299.768.299v.003zm-.683-1.764c.185-.185.41-.27.697-.27.27 0 .495.086.683.27a.93.93 0 0 1 .285.683c0 .273-.1.51-.285.694a.93.93 0 0 1-.683.273c-.275 0-.498-.085-.683-.273s-.285-.421-.285-.694.085-.498.27-.683zm.46.783h.125c.088 0 .175.085.249.248l.149.336h.235l-.185-.373c-.075-.149-.149-.236-.236-.261.11-.026.196-.062.259-.137.063-.064.085-.151.085-.249 0-.114-.035-.199-.111-.262-.085-.071-.222-.11-.399-.11h-.395v1.39h.199v-.583h.024zm0-.646h.174c.125 0 .213.026.262.063s.06.086.06.174c0 .161-.1.236-.285.236h-.213v-.472h.003zm-31.827.522a19.89 19.89 0 0 0-.026-1.056h.011c.05.25.111.437.161.561l1.85 4.132h.31l1.85-4.169a3.76 3.76 0 0 0 .161-.522h.014a11.97 11.97 0 0 0-.05 1.057v3.647h.633v-5.422h-.794l-1.7 3.771c-.063.149-.149.373-.26.669h-.026c-.037-.147-.124-.37-.248-.643l-1.662-3.809h-.844v5.422h.609v-3.634l.01-.003zm6.303.01h.547v3.377h-.547v-3.377zm.273-1.238c.114 0 .211-.038.285-.114s.125-.171.125-.285-.037-.211-.124-.285a.4.4 0 0 0-.287-.114.39.39 0 0 0-.285.114.4.4 0 0 0-.125.285c0 .124.038.21.125.285a.41.41 0 0 0 .285.114h.001zm4.17 4.689v-.595c-.299.223-.62.334-.953.334-.398 0-.721-.136-.958-.398s-.36-.619-.36-1.067c0-.47.125-.843.384-1.127.249-.273.572-.41.968-.41.323 0 .633.1.919.299v-.633c-.26-.137-.558-.199-.894-.199-.62 0-1.104.199-1.466.584s-.544.906-.544 1.537c0 .561.161 1.032.495 1.392.349.37.794.558 1.341.558.422-.012.768-.1 1.067-.273zm1.564-1.8c0-.445.1-.805.285-1.053.174-.223.384-.336.633-.336.211 0 .36.038.47.125v-.646c-.085-.037-.209-.05-.37-.05-.223 0-.423.075-.598.214-.185.146-.333.37-.42.655h-.014v-.793h-.619v3.871h.62v-1.986h.013zm3.562 2.063c.584 0 1.053-.188 1.402-.561s.521-.868.521-1.489c0-.633-.159-1.117-.484-1.477s-.768-.534-1.352-.534-1.053.174-1.402.509c-.373.37-.569.892-.569 1.563 0 .584.159 1.067.495 1.427.347.373.807.559 1.389.559v.001zm-.882-3.153c.236-.249.547-.373.931-.373.399 0 .697.124.919.373.223.26.335.632.335 1.128 0 .472-.1.844-.31 1.093-.211.26-.521.398-.931.398-.398 0-.707-.138-.944-.398s-.347-.62-.347-1.093c-.024-.47.1-.854.347-1.128zm5.521 2.816c.236-.211.361-.47.361-.794a.97.97 0 0 0-.285-.707c-.151-.149-.384-.285-.721-.421-.299-.125-.484-.236-.584-.323a.53.53 0 0 1-.161-.398.47.47 0 0 1 .185-.384c.125-.099.285-.148.498-.148a1.46 1.46 0 0 1 .882.275v-.62c-.25-.125-.522-.185-.832-.185-.398 0-.734.11-.982.321a.99.99 0 0 0-.384.805c0 .285.085.521.248.694.137.148.37.299.694.434.31.137.521.26.633.36s.161.223.161.37c0 .361-.248.548-.731.548-.373 0-.707-.122-1.006-.37v.669c.27.163.595.236.954.236.46-.024.82-.136 1.067-.36l.003-.002zm2.954-3.723c-.584 0-1.053.174-1.402.509-.37.37-.569.892-.569 1.563 0 .583.161 1.067.495 1.427.349.373.807.559 1.39.559.598 0 1.053-.188 1.402-.561s.522-.868.522-1.489c0-.633-.162-1.117-.484-1.477-.336-.36-.783-.534-1.352-.534l-.003.001zm1.204 2.035c0 .472-.1.844-.31 1.093-.211.261-.521.398-.931.398-.399 0-.707-.138-.944-.398s-.347-.62-.347-1.093c0-.498.124-.882.373-1.141.235-.248.545-.373.931-.373s.693.125.916.373c.199.273.31.645.31 1.141h.002zm1.676 1.937h.619v-3.351h.906v-.521h-.907v-.598c0-.544.21-.817.646-.817.147 0 .296.037.407.1v-.559c-.111-.05-.261-.061-.447-.061-.334 0-.608.1-.831.31-.26.247-.398.569-.398 1.005v.635h-.655v.521h.655v3.339l.004-.002zm2.543-1.056c0 .757.335 1.143 1.018 1.143.248 0 .434-.04.583-.128v-.532c-.114.085-.249.125-.398.125-.21 0-.358-.05-.445-.162s-.138-.299-.138-.558v-2.184h.982v-.521h-.982v-1.141c-.213.074-.423.137-.62.199v.942H29.9v.521h.669v2.295l.001.001zm66.597 7.135c-.211-.199-.46-.299-.768-.299s-.572.1-.783.313-.31.47-.31.769c0 .31.1.569.309.768s.47.299.783.299.569-.1.783-.31.32-.46.32-.768c-.011-.313-.124-.572-.334-.771h.002zm-.1 1.466c-.185.185-.41.27-.683.27s-.495-.085-.683-.27-.285-.423-.285-.697.085-.495.273-.683.409-.27.694-.27c.27 0 .495.086.683.27a.94.94 0 0 1 .285.683c0 .288-.085.509-.285.697zm-.558-.633c.111-.026.199-.075.26-.137s.086-.151.086-.25c0-.111-.036-.199-.111-.261-.085-.071-.223-.11-.398-.11h-.396v1.389h.199v-.583h.124c.085 0 .171.085.248.248l.148.334h.236l-.185-.373c-.064-.162-.138-.236-.213-.261l.002.003zm-.137-.125h-.213v-.469h.175c.124 0 .21.023.26.061s.061.085.061.174c0 .161-.1.235-.285.235h.001zm-34.62-10.819h.174v-1.39h.459v-.174h-1.093v.174h.46v1.39zm1.053-1.044c0-.135 0-.246-.01-.309.011.074.037.124.048.161l.534 1.192h.085l.535-1.204c.014-.037.026-.085.05-.149-.011.124-.011.223-.011.299v1.053h.185V52.57h-.224l-.484 1.079c-.011.038-.05.114-.074.199h-.014c-.01-.05-.035-.1-.071-.185l-.484-1.093h-.25v1.565h.175v-1.044l.01-.002z" fill="#231f1f"/><defs><linearGradient id="A" x1="43.467" y1="48.764" x2="47.34" y2="46.476" gradientUnits="userSpaceOnUse"><stop stop-color="#909ca9"/><stop offset="1" stop-color="#ededee"/></linearGradient><linearGradient id="B" x1="43.555" y1="5.614" x2="46.672" y2="5.614" gradientUnits="userSpaceOnUse"><stop stop-color="#939fab"/><stop offset="1" stop-color="#dcdee1"/></linearGradient><radialGradient id="C" cx="0" cy="0" r="1" gradientUnits="userSpaceOnUse" gradientTransform="translate(59.2827 19.9079) rotate(-171.457) scale(4.01835 8.0387)"><stop stop-color="#ee352c"/><stop offset="1" stop-color="#a91d22"/></radialGradient></defs></svg>