<svg xmlns="http://www.w3.org/2000/svg" width="79" height="78" fill="none"  xmlns:v="https://vecta.io/nano"><g fill="#000"><path d="M53.291 46.248c.402-3.348.282-3.84 2.776-3.297l.633.056c1.918.087 4.427-.309 5.9-.993 3.173-1.472 5.054-3.931 1.925-3.285-7.136 1.472-7.627-.944-7.627-.944 7.536-11.181 10.686-25.373 7.967-28.847C57.45-.539 44.613 3.942 44.398 4.059l-.069.013c-1.41-.293-2.987-.468-4.76-.496-3.229-.053-5.68.847-7.538 2.256 0 0-22.9-9.435-21.835 11.865.226 4.531 6.495 34.286 13.971 25.298 2.732-3.286 5.373-6.065 5.373-6.065 1.311.871 2.881 1.315 4.528 1.156l.127-.108a4.95 4.95 0 0 0 .052 1.279c-1.926 2.153-1.36 2.531-5.211 3.323-3.895.803-1.607 2.232-.113 2.606 1.812.454 6.002 1.096 8.834-2.869l-.113.452c.756.605.704 4.344.811 7.016s.286 5.165.831 6.636 1.187 5.256 6.248 4.172c4.229-.907 7.462-2.212 7.757-14.346z"/><path d="M43.886 63.234c-2.239 0-3.696-.865-4.581-1.702-1.336-1.261-1.866-2.885-2.183-3.855l-.137-.405c-.638-1.721-.853-4.199-.981-7.389l-.091-2.862c-.795.381-1.647.65-2.543.804-1.578.27-3.274.182-5.043-.26-1.248-.312-2.545-.958-3.283-1.957-2.154 1.887-4.209 1.63-5.328 1.257-1.974-.659-3.741-2.508-5.403-5.657-1.183-2.242-2.328-5.164-3.402-8.683-1.871-6.13-3.059-12.586-3.165-14.704-.332-6.635 1.453-11.379 5.307-14.101 6.08-4.294 15.291-1.77 18.648-.623 2.256-1.36 4.91-2.022 7.909-1.974 1.611.026 3.145.168 4.569.421 1.486-.467 4.422-1.138 7.782-1.096 6.191.074 11.322 2.487 14.836 6.978 2.508 3.204 1.268 9.933.305 13.659-1.353 5.24-3.726 10.815-6.641 15.667.792.006 1.938-.09 3.568-.426 3.216-.664 4.156 1.06 4.411 1.832 1.023 3.097-3.422 5.437-4.809 6.08-1.776.825-4.672 1.327-7.045 1.219l-.104-.007-.623-.055-.062.519-.059.508c-.159 6.149-1.038 10.044-2.846 12.617-1.894 2.697-4.528 3.454-6.847 3.951-.79.17-1.509.244-2.161.244zm-4.71-22.382c1.445 1.156 1.572 3.332 1.684 7.398l.045 1.436c.055 1.358.183 4.538.68 5.882.071.19.134.383.2.587.555 1.7.834 2.552 3.233 2.038 2.015-.431 3.05-.819 3.861-1.973 1.178-1.679 1.838-5.053 1.959-10.033l2.451.06-2.434-.292.071-.608c.233-2.003.402-3.451 1.741-4.408 1.074-.768 2.299-.694 3.274-.518-1.072-.809-1.368-1.759-1.447-2.149l-.204-1.007.574-.853c3.309-4.91 6.038-10.944 7.487-16.556 1.489-5.766 1.035-8.829.581-9.408C56.922 2.768 46.498 5.939 45.41 6.3l-.185.099-.923.172-.473-.098c-1.303-.27-2.75-.42-4.302-.445-2.438-.041-4.404.535-6.016 1.759l-1.119.848-1.299-.535c-2.773-1.134-10.92-3.414-15.219-.369-2.386 1.69-3.473 5.002-3.231 9.844.079 1.598 1.166 7.649 2.957 13.518 2.476 8.111 4.726 10.804 5.665 11.118.164.055.589-.276 1.012-.783 2.753-3.311 5.371-6.07 5.48-6.187l1.42-1.493 1.716 1.14c.692.46 1.455.72 2.238.769l4.093-3.491-.593 6.051c-.013.136-.02.321.034.664l.178 1.147-.861.964 2.249 1.038.943-1.179z"/></g><path d="M64.527 38.729c-7.137 1.472-7.627-.944-7.627-.944 7.535-11.181 10.685-25.373 7.967-28.847C57.45-.539 44.613 3.943 44.399 4.059l-.069.012c-1.41-.292-2.988-.466-4.761-.495-3.229-.053-5.679.846-7.538 2.256 0 0-22.901-9.434-21.836 11.865.226 4.531 6.495 34.286 13.971 25.298 2.732-3.286 5.372-6.065 5.372-6.065 1.312.871 2.881 1.315 4.527 1.156l.128-.108c-.039.408-.022.807.051 1.279-1.925 2.153-1.36 2.531-5.21 3.323-3.896.803-1.607 2.232-.113 2.606 1.812.454 6.002 1.096 8.834-2.869l-.113.452c.755.605 1.285 3.932 1.196 6.948s-.148 5.087.447 6.704 1.187 5.257 6.249 4.172c4.229-.907 6.42-3.255 6.726-7.172.216-2.785.706-2.373.737-4.864l.393-1.179c.452-3.776.072-4.994 2.678-4.427l.633.055c1.918.088 4.427-.309 5.9-.993 3.173-1.472 5.054-3.93 1.927-3.285z" fill="#336791"/><path d="M44.142 61.722c-4.219.001-5.556-3.341-6.103-4.707-.8-2.002-.973-9.772-.795-16.145.013-.452.386-.809.841-.795a.82.82 0 0 1 .795.841c-.206 7.35.087 14.01.678 15.492.925 2.311 2.326 4.333 6.291 3.484 3.764-.807 5.173-2.235 5.801-5.873.482-2.793 1.434-10.737 1.551-12.305.034-.45.424-.789.876-.755a.82.82 0 0 1 .755.876c-.122 1.632-1.07 9.561-1.571 12.462-.741 4.298-2.657 6.248-7.069 7.194a9.84 9.84 0 0 1-2.05.232zM21.266 45.404a3.4 3.4 0 0 1-1.084-.179c-2.741-.914-5.351-5.378-7.758-13.266-1.833-6.006-2.994-12.273-3.096-14.31-.302-6.039 1.253-10.311 4.623-12.699 6.666-4.723 17.88-.225 18.354-.032a.82.82 0 0 1 .447 1.066.82.82 0 0 1-1.066.447h0c-.108-.045-10.862-4.352-16.793-.146-2.881 2.043-4.204 5.838-3.932 11.281.086 1.715 1.171 7.834 3.027 13.914 2.149 7.042 4.596 11.487 6.712 12.192.331.111 1.342.448 2.788-1.289 2.718-3.271 5.216-5.881 5.241-5.907a.82.82 0 0 1 1.156-.025.82.82 0 0 1 .025 1.156c-.025.026-2.484 2.597-5.164 5.821-1.269 1.526-2.487 1.974-3.478 1.974zm35.582-6.891a.81.81 0 0 1-.456-.14.82.82 0 0 1-.221-1.135c7.617-11.303 10.291-24.96 8.001-27.886-2.883-3.683-6.953-5.607-12.098-5.717-3.81-.083-6.838.89-7.332 1.06l-.124.05c-.498.157-.879-.116-1.023-.435a.82.82 0 0 1 .323-1.038l.22-.09-.011.003.011-.004c.841-.307 3.915-1.23 7.723-1.186 5.693.06 10.395 2.256 13.599 6.348 1.516 1.937 1.519 6.399.01 12.243-1.539 5.957-4.434 12.36-7.942 17.567-.158.235-.416.361-.679.361zm.389 5.232c-1.301 0-2.466-.183-3.164-.601-.718-.43-.855-1.014-.872-1.324-.196-3.439 1.702-4.037 2.669-4.31-.135-.204-.327-.444-.525-.691-.564-.705-1.337-1.671-1.933-3.115-.093-.225-.386-.75-.724-1.357-1.834-3.289-5.651-10.134-3.199-13.639 1.135-1.622 3.394-2.26 6.723-1.904-.979-2.984-5.644-12.318-16.709-12.499-3.329-.056-6.058.968-8.109 3.038-4.592 4.638-4.425 13.03-4.424 13.113.012.452-.345.827-.796.839s-.827-.344-.839-.796c-.01-.372-.182-9.178 4.896-14.307 2.377-2.4 5.505-3.585 9.298-3.523 7.081.116 11.638 3.715 14.214 6.715 2.807 3.268 4.184 6.873 4.298 8.076.085.895-.557 1.074-.687 1.1l-.295.007c-3.267-.523-5.363-.16-6.23 1.079-1.865 2.665 1.745 9.139 3.287 11.905.394.705.678 1.215.808 1.53.506 1.228 1.167 2.053 1.698 2.716.466.584.871 1.089 1.016 1.683.067.118 1.02 1.526 6.674.359 1.417-.292 2.266-.042 2.526.743.511 1.546-2.356 3.348-3.943 4.085-1.424.661-3.694 1.079-5.658 1.079zm-2.406-2.06c.179.181 1.076.493 2.935.414 1.652-.071 3.395-.431 4.441-.916 1.338-.621 2.23-1.315 2.692-1.789l-.257.047c-3.615.746-6.172.647-7.599-.296a3.1 3.1 0 0 1-.277-.206c-.155.061-.298.101-.4.13-.81.227-1.647.462-1.535 2.616zm-23.351 4.568a11.57 11.57 0 0 1-2.808-.364c-1-.25-2.686-1.003-2.66-2.239.029-1.388 2.046-1.804 2.807-1.96 2.744-.565 2.923-.792 3.78-1.88.25-.318.561-.713.985-1.187.63-.704 1.318-1.062 2.046-1.062.506 0 .923.172 1.197.286.876.363 1.606 1.24 1.906 2.29.271.947.142 1.858-.364 2.566-1.66 2.324-4.042 3.552-6.89 3.552zm-3.701-2.533c.247.19.741.445 1.29.583a10 10 0 0 0 2.412.315c2.33 0 4.2-.965 5.559-2.867.283-.397.199-.9.123-1.166-.159-.555-.554-1.059-.96-1.229-.221-.092-.403-.162-.571-.162-.09 0-.365 0-.827.517-.391.437-.671.793-.92 1.108-1.068 1.356-1.557 1.816-4.735 2.471-.775.16-1.173.322-1.37.429zm6.288-3.772a.82.82 0 0 1-.808-.694c-.021-.136-.034-.272-.041-.41-2.083-.039-4.093-.933-5.618-2.525-1.929-2.013-2.807-4.801-2.408-7.65.433-3.094.271-5.825.184-7.292l-.04-.907c.001-.258.006-.945 2.3-2.108.816-.414 2.452-1.135 4.238-1.32 2.961-.305 4.913 1.013 5.497 3.714 1.577 7.292.125 10.518-.935 12.872-.198.438-.384.853-.533 1.254l-.132.354c-.56 1.502-1.044 2.799-.895 3.769a.82.82 0 0 1-.684.933l-.125.009zm-7.09-19.251l.032.584c.09 1.524.258 4.361-.197 7.616-.328 2.349.389 4.643 1.969 6.292 1.248 1.303 2.893 2.022 4.582 2.022h.035c.19-.797.503-1.639.841-2.545l.131-.352a22.09 22.09 0 0 1 .575-1.355c1.021-2.268 2.291-5.09.828-11.856-.29-1.339-.993-2.115-2.148-2.371-2.372-.524-5.907 1.26-6.649 1.966zm4.935-.347c-.041.289.53 1.061 1.273 1.164s1.378-.5 1.418-.788-.53-.608-1.274-.711-1.378.046-1.418.336zm1.444 1.449l-.209-.015c-.461-.064-.928-.355-1.247-.778-.112-.148-.295-.437-.259-.694.052-.377.512-.603 1.23-.603a3.7 3.7 0 0 1 .496.035c.392.055.757.168 1.026.318.466.261.501.551.48.702-.058.416-.721 1.035-1.518 1.035zm-1.173-1.401c.023.178.465.767 1.04.846l.133.01c.531 0 .928-.418.974-.555-.049-.093-.39-.325-1.038-.414a3 3 0 0 0-.421-.031c-.415-.001-.637.093-.689.144zm22.348-.638c.04.29-.529 1.061-1.273 1.165s-1.379-.499-1.42-.789.531-.608 1.274-.711 1.378.047 1.419.335zm-1.444 1.312c-.716 0-1.332-.557-1.383-.918-.059-.433.655-.763 1.39-.865a3.41 3.41 0 0 1 .477-.034c.634 0 1.054.187 1.096.486.027.195-.122.494-.379.764-.169.178-.526.487-1.011.554l-.191.013zm.483-1.544a3.28 3.28 0 0 0-.439.031c-.739.103-1.179.4-1.158.559.025.174.496.682 1.114.682l.152-.011c.403-.057.706-.319.851-.471.227-.239.317-.463.306-.54-.013-.1-.286-.25-.825-.25zm2.032 16.832c-.157 0-.314-.044-.454-.138a.82.82 0 0 1-.225-1.135c1.741-2.601 1.422-5.253 1.114-7.818-.132-1.093-.267-2.223-.232-3.308.036-1.115.177-2.035.314-2.926.162-1.054.316-2.051.252-3.234a.82.82 0 0 1 .772-.861.82.82 0 0 1 .861.773c.073 1.352-.101 2.479-.269 3.57-.13.842-.264 1.712-.297 2.73-.031.96.092 1.98.221 3.059.328 2.728.699 5.82-1.379 8.923a.82.82 0 0 1-.68.363z" fill="#fff"/><path d="M.38 63.497a16.69 16.69 0 0 1 2.763-.215c1.422 0 2.465.331 3.127.926.612.529.976 1.34.976 2.333 0 1.009-.298 1.803-.861 2.382-.761.811-2.002 1.224-3.408 1.224-.43 0-.827-.017-1.157-.099v4.468H.38v-11.02zm1.44 5.377c.314.083.711.116 1.191.116 1.736 0 2.796-.844 2.796-2.382 0-1.472-1.042-2.184-2.631-2.184-.629 0-1.108.05-1.357.116v4.335zm14.145 1.572c0 2.961-2.052 4.252-3.988 4.252-2.167 0-3.838-1.588-3.838-4.12 0-2.68 1.754-4.252 3.971-4.252 2.3-.001 3.855 1.671 3.855 4.12zm-6.353.083c0 1.754 1.009 3.077 2.432 3.077 1.39 0 2.431-1.307 2.431-3.11 0-1.357-.678-3.077-2.399-3.077s-2.464 1.588-2.464 3.11zm7.99 2.498c.43.281 1.191.579 1.919.579 1.059 0 1.555-.529 1.555-1.191 0-.695-.413-1.075-1.489-1.472-1.439-.513-2.118-1.307-2.118-2.266 0-1.29 1.042-2.349 2.763-2.349.811 0 1.523.232 1.969.496l-.364 1.059c-.314-.198-.893-.463-1.638-.463-.86 0-1.34.496-1.34 1.092 0 .662.48.96 1.523 1.357 1.39.529 2.101 1.224 2.101 2.415 0 1.406-1.092 2.399-2.995 2.399-.877 0-1.687-.215-2.25-.546l.363-1.108zm8.504-8.819v2.3h2.084v1.108h-2.084v4.318c0 .993.281 1.555 1.092 1.555.381 0 .662-.05.844-.099l.066 1.092c-.281.116-.728.199-1.29.199-.678 0-1.225-.215-1.572-.612-.413-.43-.562-1.141-.562-2.084v-4.368h-1.241v-1.108h1.241v-1.919l1.423-.38zm10.522 2.3l-.066 2.2v4.649c0 1.836-.364 2.961-1.141 3.657-.778.728-1.903.96-2.912.96-.959 0-2.018-.232-2.664-.662l.364-1.108c.529.331 1.357.629 2.349.629 1.489 0 2.581-.778 2.581-2.796v-.893h-.033c-.447.745-1.307 1.34-2.548 1.34-1.985 0-3.408-1.687-3.408-3.905 0-2.713 1.77-4.252 3.607-4.252 1.39 0 2.151.728 2.499 1.39h.033l.066-1.208h1.274zm-1.505 3.16c0-.248-.017-.463-.083-.662-.265-.844-.976-1.539-2.035-1.539-1.39 0-2.382 1.175-2.382 3.028 0 1.572.794 2.879 2.366 2.879.893 0 1.704-.562 2.018-1.489.083-.248.116-.529.116-.777l-.001-1.439zm3.755-.662l-.066-2.498h1.275l.049 1.572h.066c.364-1.075 1.241-1.754 2.217-1.754a1.57 1.57 0 0 1 .413.05v1.373a2.18 2.18 0 0 0-.496-.05c-1.026 0-1.754.778-1.952 1.87-.033.198-.066.43-.066.678v4.268h-1.439v-5.509zm6.056 1.77c.033 1.969 1.29 2.779 2.746 2.779 1.043 0 1.671-.182 2.217-.414l.248 1.042c-.513.232-1.39.496-2.664.496-2.465 0-3.937-1.621-3.937-4.037s1.423-4.319 3.756-4.319c2.614 0 3.309 2.3 3.309 3.772 0 .298-.033.529-.05.678h-5.624v.001zm4.268-1.042c.016-.926-.381-2.366-2.018-2.366-1.472 0-2.118 1.357-2.234 2.366h4.253z" fill="#000"/><path d="M52.262 72.762a5.1 5.1 0 0 0 2.581.728c1.472 0 2.333-.778 2.333-1.903 0-1.042-.596-1.638-2.101-2.217-1.82-.645-2.945-1.588-2.945-3.16 0-1.737 1.439-3.028 3.607-3.028 1.142 0 1.969.265 2.465.546l-.397 1.175a4.44 4.44 0 0 0-2.118-.529c-1.522 0-2.101.91-2.101 1.671 0 1.042.678 1.555 2.217 2.151 1.886.729 2.846 1.638 2.846 3.276 0 1.721-1.274 3.21-3.904 3.21-1.075 0-2.25-.314-2.846-.711l.365-1.208zm17.553 3.392l-4.268-1.29c-.232-.083-.463-.165-.678-.165-2.647-.099-4.914-2.052-4.914-5.641 0-3.574 2.184-5.873 5.195-5.873 3.028 0 4.997 2.349 4.997 5.642 0 2.862-1.324 4.699-3.177 5.344v.066l3.259.711-.414 1.208zm-1.191-7.263c0-2.233-1.157-4.534-3.524-4.534-2.432 0-3.623 2.25-3.607 4.666-.017 2.366 1.29 4.5 3.54 4.5 2.3 0 3.59-2.085 3.59-4.632zm3.391-5.526h1.44v9.943h4.765v1.208h-6.205V63.365z" fill="#336791"/></svg>