<svg xmlns="http://www.w3.org/2000/svg" width="25.952" height="21.078"  xmlns:v="https://vecta.io/nano"><path d="M23.284 5.253l.016.692A15.03 15.03 0 0 1 8.168 21.078 15.03 15.03 0 0 1 0 18.69a11 11 0 0 0 1.284.066 10.65 10.65 0 0 0 6.6-2.272 5.33 5.33 0 0 1-4.973-3.689c.331.052.665.08 1 .082.472-.001.943-.062 1.4-.181a5.32 5.32 0 0 1-4.265-5.22V7.41c.736.411 1.558.642 2.4.675A5.33 5.33 0 0 1 1.799.971a15.12 15.12 0 0 0 10.967 5.566 6 6 0 0 1-.132-1.219c.002-2.183 1.337-4.143 3.367-4.946s4.344-.285 5.838 1.307A10.47 10.47 0 0 0 25.215.395a5.3 5.3 0 0 1-2.338 2.931c1.056-.12 2.089-.398 3.063-.823-.728 1.06-1.63 1.99-2.668 2.75z" fill="#fff"/></svg>