<svg xmlns="http://www.w3.org/2000/svg" width="161" height="63" fill="#1b2738"  xmlns:v="https://vecta.io/nano"><path d="M59.168 24.61c-.553-2.672-1.106-3.563-4.177-3.563-1.29 0-2.365.369-3.072.983-.614.461-.952 1.198-.922 1.966a3.21 3.21 0 0 0 .891 2.089c.676.645 1.659 1.229 3.286 2.058 2.027 1.044 3.563 1.628 4.669 2.918.706.86 1.075 1.966 1.106 3.072.031 1.321-.491 2.58-1.444 3.44-1.106.983-2.795 1.628-5.099 1.628a15.41 15.41 0 0 1-4.853-.891c-.184-1.29-.461-2.58-.86-3.839l.922-.246c.768 3.164 2.242 3.932 4.976 3.932a5.08 5.08 0 0 0 3.102-.952c.86-.645 1.351-1.628 1.321-2.703.031-.86-.246-1.689-.829-2.304-.829-.983-2.242-1.597-3.747-2.365-1.597-.799-3.747-1.966-4.515-3.041-.522-.737-.768-1.597-.768-2.488a3.77 3.77 0 0 1 1.566-3.071c.952-.737 2.365-1.229 4.392-1.229a11.58 11.58 0 0 1 4.331.737l.614 3.624-.891.246zm5.713 8.324c0-1.996.369-3.286 1.075-4.208 1.351-1.413 3.563-1.444 4.976-.123l.123.123c.706.921 1.075 2.211 1.075 4.208 0 2.089-.43 3.44-1.106 4.239-1.29 1.382-3.471 1.474-4.853.154l-.154-.154c-.676-.829-1.136-2.15-1.136-4.239zm-1.843-.031c0 2.365.614 3.901 1.628 4.884 1.044.922 2.273 1.29 3.839 1.29 1.628 0 2.918-.43 3.932-1.351.983-.952 1.566-2.488 1.566-4.822 0-2.058-.584-3.624-1.566-4.638-1.014-.952-2.211-1.413-3.931-1.413-1.659 0-2.857.461-3.87 1.413-1.044.983-1.597 2.58-1.597 4.638zm14.466-4.945H75.6v-.829h1.904v-1.628c0-1.597.399-2.764 1.259-3.655 1.351-1.198 3.317-1.352 4.853-.399.737.491 1.106 1.136 1.106 1.597 0 .522-.276.799-.737.799-.614 0-.86-.553-1.137-1.106s-.614-1.106-1.413-1.106c-.492 0-.983.184-1.29.584-.522.614-.829 1.566-.829 3.409v1.536h3.256v.829h-3.287v8.477c0 1.566.092 1.72 2.058 1.72v.645h-5.774v-.676c1.812 0 1.935-.184 1.935-1.782v-8.416zm6.205-.615c1.628-.154 2.764-.768 3.072-3.501h.645v3.256h2.764v.829h-2.764v8.385c0 1.229.369 1.843 1.259 1.843.584 0 1.167-.215 1.597-.614l.43.614c-.706.614-1.597.952-2.549.921-1.321 0-2.549-.614-2.549-2.641v-8.477h-1.935l.031-.614zm12.47-5.037c0-.707.092-.922.768-.922h2.457c1.813 0 2.98.399 3.716 1.014.645.614 1.014 1.474 1.014 2.365 0 1.229-.43 2.15-1.198 2.764-.922.768-2.396 1.106-4.177 1.106h-2.611l.031-6.327zm-1.904 13.76c0 1.843-.153 1.966-2.089 1.966v.768h8.447c2.703 0 4.239-.614 5.252-1.597a4.91 4.91 0 0 0 1.444-3.594c0-1.259-.614-2.457-1.659-3.194-1.105-.86-2.61-1.29-4.3-1.351v-.061c1.628-.246 2.734-.768 3.502-1.444.829-.768 1.32-1.843 1.29-2.979 0-1.229-.615-2.365-1.659-3.041-1.413-.921-2.948-1.136-5.344-1.136h-6.972v.737c1.935 0 2.089.123 2.089 1.997v12.931zm1.904-6.419h3.225c2.12 0 3.563.369 4.454 1.075.922.676 1.444 1.72 1.444 2.856 0 1.352-.4 2.304-1.014 2.949-.891.922-2.058 1.29-3.931 1.29h-3.225c-.799 0-.952-.184-.952-1.29v-6.88zm19.75 7.095c-.645.645-1.536 1.351-2.795 1.351-.645.031-1.259-.184-1.72-.614-.399-.461-.614-1.044-.584-1.628 0-1.198.738-1.874 1.72-2.396.953-.584 2.243-.952 3.348-1.259l.031 4.546zm1.812-6.297c0-1.136-.184-1.843-.86-2.58s-1.566-1.014-3.102-1.014c-1.044-.031-2.058.215-2.949.737-.829.492-1.351 1.198-1.351 1.812-.031.369.246.707.645.737h.092c.399.031.799-.215.922-.614a2.85 2.85 0 0 1 .798-1.259c.492-.399 1.137-.614 1.751-.584.86 0 1.474.246 1.874.768.337.43.43 1.229.43 1.812v1.106l-1.536.368c-1.352.246-2.672.768-3.84 1.474-1.136.737-1.597 1.689-1.597 2.887-.03.86.369 1.689 1.045 2.242.675.522 1.535.799 2.395.768a4.75 4.75 0 0 0 3.625-1.444h.092c.246.86.768 1.321 1.689 1.321.553 0 1.106-.123 1.567-.369l-.154-.584a1.43 1.43 0 0 1-.706.184c-.523 0-.768-.522-.768-1.689l-.062-6.082zm13.207 6.021c0 1.444.123 1.659 1.26 1.659v.645h-4.393v-.614c1.26 0 1.321-.154 1.321-1.72V30.63c0-1.014-.123-1.843-.614-2.365-.399-.369-.952-.553-1.505-.522-1.106 0-2.273.983-3.287 2.427v6.235c0 1.566.031 1.72 1.229 1.72v.645h-4.546v-.614c1.382 0 1.505-.154 1.505-1.72v-6.327c0-1.505-.123-1.689-1.505-1.659v-.584c1.137-.184 2.027-.43 2.887-1.075l.246.154.092 1.997h.062c1.044-1.321 2.365-2.15 3.777-2.15 1.106 0 1.905.276 2.488.829s.922 1.505.922 2.887l.061 5.959zM137 32.411l3.716-3.624c.707-.645.891-1.044-.368-1.044v-.645h3.839v.645c-.676 0-1.321.277-1.751.768l-2.733 2.58 3.962 6.02c.583.922 1.136 1.014 1.904.983v.645h-2.948l-4.208-6.542-1.444 1.444v2.734c0 1.505.061 1.72 1.474 1.72v.645h-4.822v-.584c1.505 0 1.536-.215 1.536-1.72V24.149c0-1.505-.154-1.689-1.536-1.689v-.584c1.106-.123 2.181-.491 3.102-1.075l.246.153v11.457H137zM40.923 20.033H15v6.389h25.923v-6.389zm0 12.747H15v6.389h25.923V32.78zm77.248 11.395c1.382 0 2.335 1.014 2.335 2.396.061 1.29-.953 2.365-2.243 2.427s-2.365-.952-2.426-2.242v-.184c0-1.413.952-2.396 2.334-2.396zm0 4.116c.983 0 1.444-.891 1.444-1.72 0-.86-.522-1.72-1.444-1.72s-1.443.86-1.443 1.72c0 .829.46 1.72 1.443 1.72zm3.379-5.836h.86v2.457h.031c.276-.43.706-.737 1.535-.737 1.321 0 1.997 1.106 1.997 2.334s-.584 2.488-1.966 2.488a1.79 1.79 0 0 1-1.566-.768h-.031v.645h-.799l-.061-6.419zm2.181 2.396c-.922 0-1.352.86-1.352 1.72 0 .768.399 1.72 1.352 1.72s1.29-1.014 1.259-1.751c.031-.829-.338-1.689-1.259-1.689zm5.466-.676c1.383 0 2.335 1.014 2.335 2.396.061 1.29-.952 2.365-2.243 2.427s-2.365-.952-2.426-2.242v-.184c-.031-1.413.921-2.396 2.334-2.396zm0 4.116c.983 0 1.444-.891 1.444-1.72 0-.86-.522-1.72-1.444-1.72s-1.443.86-1.443 1.72c0 .829.43 1.72 1.443 1.72zm5.836-3.317h-1.228v2.519c-.062.399.246.768.645.829h.092c.215 0 .399-.062.584-.154v.706c-.246.062-.461.123-.707.123-.86 0-1.413-.399-1.413-1.321v-2.672h-1.044v-.676h1.044v-1.044l.86-.276v1.321h1.229l-.062.645zm2.181-1.567h-.952v-.952h.952v.952zm-.891.86h.86v4.607h-.86v-4.607zm5.253.768c-.277-.123-.615-.184-.922-.215-.952 0-1.474.86-1.474 1.72 0 .829.43 1.72 1.536 1.72a1.87 1.87 0 0 0 .921-.246l.061.768c-.337.123-.706.215-1.075.184-1.29 0-2.334-1.014-2.334-2.304v-.092c0-1.382.922-2.396 2.334-2.396a2.82 2.82 0 0 1 1.014.184l-.061.676zm-30.746-2.579h1.567c1.259 0 2.487.215 2.487 1.72 0 .737-.583 1.382-1.32 1.474v.031c.276.123.43.246.614.645l1.198 2.549h-1.044l-.983-2.212c-.277-.614-.584-.614-1.075-.614h-.522v2.826h-.922v-6.419zm.922 2.764h.767c.86 0 1.383-.369 1.383-.983s-.43-.952-1.29-.952h-.86v1.935zm30.899 2.733c.338.184.737.307 1.137.338.43 0 .921-.154.921-.645 0-.829-2.119-.768-2.119-2.058 0-.952.768-1.413 1.72-1.413a3.66 3.66 0 0 1 1.136.184l-.061.737a3.55 3.55 0 0 0-.983-.246c-.461 0-.891.184-.891.553 0 .921 2.12.676 2.12 2.119 0 .983-.768 1.444-1.659 1.444-.461.031-.921-.061-1.351-.246l.03-.768z"/></svg>