<svg xmlns="http://www.w3.org/2000/svg" width="112" height="63" fill="#1b2738"  xmlns:v="https://vecta.io/nano"><path d="M85.302 18h.268c.32.203.441.585.617.901l7.28 13.636L97 39.174v.043c-.069.125-.124.322-.303.304-1.179.004-2.36.006-3.539-.001-.283.011-.359-.298-.466-.497l-.639-1.223-.923-1.722-.839-1.625-.523-.98-.759-1.464-.963-1.802c-.239-.529-.558-1.017-.799-1.544-.169-.363-.395-.697-.562-1.061l-.718-1.385c-.104-.185-.175-.441-.394-.515-.141-.011-.338-.047-.417.104-.367.591-.637 1.236-.991 1.835l-.839 1.624c-.151.322-.35.619-.503.94a9.08 9.08 0 0 1-.371.712c-.242.409-.415.854-.66 1.261-.214.357-.366.747-.579 1.104-.224.369-.38.772-.601 1.142-.252.421-.43.881-.683 1.301-.213.357-.364.747-.578 1.104-.224.369-.38.773-.601 1.142-.237.396-.412.825-.635 1.228-.076.12-.15.27-.3.305-.231.041-.467.017-.7.02-.902-.001-1.803-.004-2.705.003-.163-.003-.359-.001-.471-.141-.035-.153-.022-.319.061-.454l11.045-20.691c.056-.106.158-.175.256-.241h0zM15 21.314c.252-.266.635-.179.961-.188l9.852.001a7.46 7.46 0 0 1 2.85.452c1.526.548 2.839 1.778 3.333 3.342.219.593.266 1.232.31 1.857-.04.67-.121 1.35-.374 1.977-.303.734-.741 1.441-1.394 1.913-.157.152-.401.216-.516.408.869.314 1.616.908 2.179 1.634.926 1.212 1.184 2.816 1.027 4.304-.083.981-.365 1.955-.876 2.8-.342.525-.763 1.007-1.275 1.372-1.117.83-2.5 1.212-3.866 1.37-.28.038-.567.017-.842.094H15.251c-.093-.075-.178-.157-.251-.253V21.314zm3.686 3.082c-.105.129-.076.304-.082.458l.012 4.792a.5.5 0 0 0 .407.197l6.369.003c.296.013.586-.049.878-.09.661-.096 1.321-.358 1.782-.857.315-.314.459-.749.565-1.17.026-.341.135-.683.04-1.023a2.64 2.64 0 0 0-.669-1.563c-.546-.495-1.277-.732-1.998-.82-.231-.023-.465.012-.694-.034-.285-.061-.576-.032-.864-.035-1.743-.002-3.485.002-5.227-.002a1 1 0 0 0-.518.145h0zm.118 8.654c-.071.022-.139.064-.16.141-.128.248-.102.533-.1.802l.002 4.931c.004.235.134.568.418.539l6.729.001a3.12 3.12 0 0 0 .673-.041c.789-.067 1.606-.226 2.271-.681.535-.379.828-1.005.942-1.636a4.52 4.52 0 0 0-.117-2.2c-.189-.548-.563-1.048-1.087-1.314-.692-.381-1.486-.495-2.262-.562h-7.091a.99.99 0 0 0-.219.019h0zM36.89 21.142c.25-.041.505-.012.758-.017l10.454-.001c1.575.081 3.175.632 4.313 1.756.865.855 1.386 2.03 1.511 3.234l-.013 1.431c-.15 1.022-.551 2.051-1.32 2.767-.217.228-.453.44-.73.593-.057.048-.178.072-.142.17.884.361 1.683.964 2.232 1.749.236.324.406.69.57 1.055.325.734.386 1.546.433 2.338-.04.612-.077 1.229-.223 1.828A5.41 5.41 0 0 1 53.22 40.8c-.309.256-.622.512-.969.715-.979.6-2.119.877-3.247 1.026-.315.054-.639.025-.95.108H36.943c-.173-.101-.34-.26-.318-.48V21.606c-.007-.189.106-.367.265-.463h0zm3.722 3.131c-.115.027-.241.069-.303.179-.107.152-.077.347-.081.522l.001 4.39c-.01.191.117.355.262.464.432.038.867.004 1.301.015l5.528-.001c.618-.07 1.258-.15 1.8-.48.559-.251.912-.796 1.102-1.359.143-.456.094-.937.096-1.407-.041-.333-.147-.661-.299-.96-.433-.744-1.267-1.154-2.095-1.275-.325-.082-.664-.014-.991-.082-.25-.049-.505-.024-.756-.027-1.783-.002-3.566.002-5.348-.002-.074.001-.146.008-.218.023h0zm-.121 8.777c-.179.039-.27.228-.26.399l-.001 5.172c.002.219-.022.448.064.657.043.147.223.181.356.184l6.849.003c.302.015.597-.062.897-.076.769-.096 1.559-.318 2.153-.841.468-.472.697-1.133.747-1.785.06-.324.074-.655.007-.978-.058-.732-.314-1.514-.921-1.971-.734-.567-1.686-.698-2.582-.782h-6.849c-.154.004-.31-.013-.461.02h0zm14.596-11.468c-.109-.22.107-.485.34-.458l3.367-.002c.131-.006.275.012.344.14.266.409.481.849.695 1.288l.443.82.819 1.584.922 1.723.919 1.785.685 1.301c.28.454.476.952.752 1.408l.535 1.029c.253.42.43.881.683 1.3l.69 1.294c.121.227.516.228.637 0 .268-.41.439-.873.69-1.294.223-.368.381-.771.601-1.142.252-.421.43-.881.683-1.301l.708-1.334.982-1.903.685-1.3c.266-.429.449-.901.709-1.332l.62-1.188c.231-.381.392-.799.623-1.18.309-.52.508-1.106.874-1.592.083-.128.246-.099.376-.107l3.308.003c.15-.017.276.083.347.207.07.207-.08.396-.175.567l-10.505 19.67c-.201.375-.37.782-.681 1.082h-.264c-.398-.25-.532-.736-.76-1.122L55.087 21.582z"/></svg>