<svg xmlns="http://www.w3.org/2000/svg" width="145" height="63" fill="#1b2738"  xmlns:v="https://vecta.io/nano"><path d="M20.794 41.327c0-1.901.467-3.701 1.388-5.238l.067-.085.073-.123.109-.187.444-.597a4.93 4.93 0 0 0-.499.247l-.232.137c-.204.122-.458.122-.66 0l-.229-.136c-1.508-.887-3.43-.887-4.965.016-.684.358-1.246.874-1.646 1.51l-.093.114c-.026.031-.047.067-.062.105l-.092.128c-.706 1.21-1.085 2.632-1.085 4.063 0 4.609 3.805 8.363 8.458 8.363h.208c.877-.03 1.69-.163 2.433-.4-2.299-2.025-3.659-4.889-3.616-7.918l-.001.003zm1.3.009c-.041 2.975 1.472 5.785 3.977 7.557.405.286.357.903-.088 1.123-1.171.579-2.5.886-3.986.937h-.231c-5.373 0-9.766-4.336-9.766-9.673 0-1.681.451-3.352 1.294-4.776l.063-.081c.067-.127.126-.217.215-.312.522-.805 1.233-1.458 2.079-1.896.933-.544 1.991-.835 3.071-.845s2.143.262 3.085.789a6.32 6.32 0 0 1 3.31-.767.66.66 0 0 1 .293 1.224c-.76.436-1.388 1.039-1.869 1.743a2.77 2.77 0 0 1-.117.204l-.068.116-.094.13c-.778 1.316-1.176 2.866-1.176 4.526l.008-.001z"/><path d="M40.805 41.281c0-1.35-.364-2.758-.983-3.897-.022-.041-.04-.084-.053-.128l-.032-.04c-.152-.271-.329-.528-.528-.768-1.542-1.775-4.17-2.245-6.208-1.056l-.231.137c-.1.06-.214.091-.33.091s-.23-.032-.33-.091l-.232-.137c-.786-.466-1.717-.684-2.729-.643-.088 0-.192.007-.306.023l-.365.059-.352.069-.259.073-.468.204-.43.218c-.704.415-1.276.942-1.673 1.57l-.092.114c-.026.032-.047.067-.062.105l-.085.117c-.682 1.249-1.042 2.649-1.048 4.072a8.29 8.29 0 0 0 .938 3.854c.704 1.305 1.73 2.416 2.945 3.151.087.035.171.076.252.123l.192.12.444.222a8.46 8.46 0 0 0 3.595.802h.222c4.578-.132 8.19-3.819 8.19-8.363h.019zm1.3 0c0 5.26-4.173 9.525-9.481 9.673h-.232a9.76 9.76 0 0 1-4.171-.937c-.011-.005-.352-.183-.352-.176l-.035-.011-.154-.075a3.4 3.4 0 0 0-.175-.111c-.028-.017-.057-.031-.087-.043l-.128-.058c-1.446-.859-2.655-2.157-3.482-3.692a9.72 9.72 0 0 1-1.092-4.472c.005-1.666.431-3.304 1.239-4.761l.07-.092a1.39 1.39 0 0 1 .217-.318c.51-.785 1.215-1.437 2.089-1.947a7.03 7.03 0 0 1 .534-.271c.143-.065.264-.114.518-.225.141-.056.291-.099.467-.138a14.91 14.91 0 0 1 .384-.078l.02-.003.414-.066c.176-.023.32-.035.452-.034 1.181-.051 2.324.206 3.312.766 2.572-1.438 5.824-.833 7.747 1.388.229.264.425.553.623.88.114.121.179.282.179.451a.58.58 0 0 0-.067-.285.51.51 0 0 1 .102.237 9.71 9.71 0 0 1 1.075 4.397h.015zm-7.909-4.564c-.174 0-.34-.069-.463-.192s-.192-.289-.192-.463.069-.34.192-.463.289-.192.463-.192c2.025 0 3.879 1.081 4.91 2.802.484.85.733 1.789.733 2.797s-.25 1.947-.733 2.797c-.179.314-.576.423-.887.243a.66.66 0 0 1-.242-.894 4.27 4.27 0 0 0 .562-2.148 4.26 4.26 0 0 0-.554-2.134 4.43 4.43 0 0 0-3.79-2.157l.001.003zm-4.888-7.711a19.95 19.95 0 0 0 1.803 2.377l.792.85c.262.246.277.66.032.924s-.657.279-.919.033l-.253-.251-.636-.69a22.04 22.04 0 0 1-1.917-2.537c-1.021-1.585-1.803-3.21-2.289-4.886-.97 1.544-1.725 3.031-2.286 4.447-.389.981-.654 1.854-.819 2.606l-.147.875a.65.65 0 0 1-.22.448.65.65 0 0 1-.473.16c-.358-.025-.628-.337-.605-.698.014-.202.064-.563.176-1.067.18-.822.467-1.763.88-2.811.722-1.822 1.743-3.746 3.106-5.747-.172-1.156-.194-2.327-.044-3.507.379-2.956 1.338-5.27 2.71-7.011 1.122-1.393 2.246-2.163 3.032-2.475a.65.65 0 0 1 .435-.015c.25.088.578.264.901.57 1.69 1.645 1.049 4.707-3.058 9.456-.97 1.122-1.829 2.223-2.585 3.299.37 1.937 1.203 3.825 2.377 5.65h.008zm-.78-9.807c3.711-4.292 4.199-6.62 3.136-7.654a1.47 1.47 0 0 0-.197-.162 5.74 5.74 0 0 0-.488.304c-.59.405-1.185.953-1.743 1.661-1.232 1.552-2.091 3.643-2.439 6.365-.073.572-.102 1.149-.085 1.725a44.72 44.72 0 0 1 1.816-2.239zm33.024 29.469c-1.301 0-2.465-.285-3.49-.857s-1.831-1.373-2.415-2.405-.876-2.196-.876-3.488.292-2.452.876-3.476a6.2 6.2 0 0 1 2.415-2.393c1.026-.57 2.189-.857 3.49-.857 1.134 0 2.148.223 3.04.667a5.06 5.06 0 0 1 2.115 1.952l-1.326.907c-.434-.655-.984-1.146-1.652-1.474s-1.393-.491-2.177-.491c-.951 0-1.805.214-2.564.643a4.5 4.5 0 0 0-1.776 1.826c-.425.789-.638 1.688-.638 2.694 0 1.024.213 1.937.638 2.707.407.761 1.024 1.39 1.776 1.813.759.429 1.614.643 2.564.643.792 0 1.51-.159 2.177-.479a4.07 4.07 0 0 0 1.652-1.461l1.326.907c-.504.844-1.243 1.522-2.127 1.952-.901.445-1.91.667-3.028.667l.001.003zm14.511-13.474c1.651 0 2.965.482 3.94 1.448s1.464 2.371 1.464 4.218v7.682h-1.776v-7.514c0-1.377-.341-2.426-1.026-3.148s-1.659-1.083-2.927-1.083c-1.409 0-2.54.424-3.365 1.272s-1.239 2.019-1.239 3.521v6.951h-1.774V29.854h1.776v7.747a4.82 4.82 0 0 1 2.002-1.787c.851-.419 1.827-.629 2.927-.629l-.003.009zm21.115 7.278H86.173c.1 1.377.616 2.489 1.585 3.345s2.151 1.272 3.603 1.272c.817 0 1.567-.147 2.252-.44a4.92 4.92 0 0 0 1.776-1.297l1.001 1.159c-.584.704-1.313 1.232-2.189 1.611s-1.849.555-2.89.555c-1.351 0-2.548-.291-3.59-.869a6.24 6.24 0 0 1-2.439-2.405c-.584-1.024-.876-2.183-.876-3.476s.279-2.452.838-3.475a6.09 6.09 0 0 1 2.302-2.393c.976-.57 2.072-.857 3.29-.857s2.31.285 3.277.857 1.725 1.364 2.276 2.38.826 2.179.826 3.488l-.025.555-.011-.01zm-6.356-5.742c-1.268 0-2.331.408-3.19 1.222s-1.347 1.875-1.464 3.187H95.5c-.117-1.31-.605-2.372-1.464-3.187s-1.931-1.222-3.215-1.222h.002zm11.092 1.158a4.44 4.44 0 0 1 1.864-2.025c.824-.463 1.846-.68 3.065-.68v1.738l-.425-.026c-1.385 0-2.469.428-3.253 1.285s-1.176 2.056-1.176 3.609v6.749h-1.777V35.294h1.702v2.593zm9.208 0a4.44 4.44 0 0 1 1.864-2.025c.825-.463 1.847-.68 3.065-.68v1.738l-.425-.026c-1.385 0-2.469.428-3.253 1.285s-1.176 2.056-1.176 3.609v6.749h-1.777V35.294h1.702v2.593zm18.839 4.584h-11.004c.1 1.377.616 2.489 1.584 3.345s2.152 1.272 3.604 1.272c.816 0 1.566-.147 2.251-.44a4.92 4.92 0 0 0 1.777-1.297l1.001 1.159c-.584.704-1.314 1.232-2.19 1.611s-1.848.555-2.89.555c-1.351 0-2.547-.291-3.59-.869-1.021-.559-1.866-1.392-2.439-2.405-.584-1.024-.876-2.183-.876-3.476s.279-2.452.838-3.475 1.326-1.822 2.302-2.393 2.072-.857 3.29-.857 2.31.285 3.277.857 1.726 1.364 2.277 2.38.826 2.179.826 3.488l-.025.555-.013-.01zm-6.356-5.742c-1.268 0-2.331.408-3.19 1.222s-1.347 1.875-1.464 3.187h9.328c-.117-1.31-.604-2.372-1.464-3.187s-1.93-1.222-3.215-1.222h.005z"/></svg>