<svg xmlns="http://www.w3.org/2000/svg" width="136" height="63" fill="#1b2738"  xmlns:v="https://vecta.io/nano"><path d="M21.027 39.833c-3.33 0-6.027-2.697-6.027-6.008v-4.632c0-3.33 2.697-6.027 6.027-6.027h3.423a1.62 1.62 0 0 1 1.618 1.618 1.62 1.62 0 0 1-1.618 1.618h-3.423a2.78 2.78 0 0 0-2.772 2.772v4.632a2.78 2.78 0 0 0 2.772 2.772h3.423a1.62 1.62 0 0 1 1.618 1.618 1.62 1.62 0 0 1-1.618 1.618h-3.423v.019zM72.31 23.167c-3.33 0-6.027 2.697-6.027 6.027v4.632c0 3.33 2.697 6.027 6.027 6.027s6.027-2.697 6.027-6.027v-4.632c0-3.33-2.697-6.027-6.027-6.027zm2.772 10.659a2.78 2.78 0 0 1-2.772 2.772 2.78 2.78 0 0 1-2.772-2.772v-4.632a2.78 2.78 0 0 1 2.772-2.772 2.78 2.78 0 0 1 2.772 2.772v4.632zm-47.378 4.389a1.62 1.62 0 0 0 1.618 1.618 1.62 1.62 0 0 0 1.618-1.618v-9.022a2.78 2.78 0 0 1 2.771-2.771h2.083a1.62 1.62 0 0 0 1.618-1.618 1.62 1.62 0 0 0-1.618-1.618h-2.083c-3.33 0-6.027 2.697-6.027 6.027v9.003h.019zm22.434-9.022c0-3.33-2.697-6.027-6.027-6.027s-6.027 2.697-6.027 6.027v4.632c0 3.33 2.697 6.027 6.027 6.027 1.097 0 2.121-.298 3.013-.8a1.6 1.6 0 0 0 1.395.8 1.62 1.62 0 0 0 1.618-1.618v-9.04zm-3.237 4.632a2.78 2.78 0 0 1-2.772 2.772 2.78 2.78 0 0 1-2.772-2.772v-4.632a2.78 2.78 0 0 1 2.772-2.772 2.78 2.78 0 0 1 2.772 2.772v4.632zm15.718-10.658a1.62 1.62 0 0 0-1.618 1.618v9.022a2.78 2.78 0 0 1-2.772 2.772 2.78 2.78 0 0 1-2.772-2.772v-9.022a1.62 1.62 0 0 0-1.618-1.618 1.62 1.62 0 0 0-1.618 1.618v9.022a6.01 6.01 0 0 0 4.408 5.785v2.772a1.62 1.62 0 0 0 1.618 1.618 1.62 1.62 0 0 0 1.618-1.618v-2.772c2.53-.707 4.39-3.032 4.39-5.785v-9.022c-.019-.893-.744-1.618-1.637-1.618zm57.46 8.333l-6.25 6.25v-12.5l6.25 6.25z"/><path d="M107.561 37.75l6.268-6.25h-6.268v6.25z"/><path d="M113.829 25.25h-6.25v6.25h6.25v-6.25z"/><path d="M113.829 25.25h-6.268V19l6.268 6.25z"/><path d="M107.562 31.5L95.062 19h12.501v12.5z"/><path d="M95.061 44l12.501-12.5V44H95.061z"/><path d="M113.829 31.5v6.25L107.561 44v-6.25l6.268-6.25zM83.62 26.403h2.772a2.78 2.78 0 0 1 2.772 2.772v9.022a1.62 1.62 0 0 0 1.618 1.618 1.62 1.62 0 0 0 1.618-1.618v-9.003c0-3.33-2.697-6.027-6.027-6.027h-4.39a1.62 1.62 0 0 0-1.618 1.618v13.43a1.62 1.62 0 0 0 1.618 1.618 1.62 1.62 0 0 0 1.618-1.618V26.403h.019z"/></svg>