<svg xmlns="http://www.w3.org/2000/svg" width="175" height="63" fill="#1b2738"  xmlns:v="https://vecta.io/nano"><path d="M23.394 42.545l-1.448-.395c-4.475-1.382-7.304-5.527-6.909-10.199.329-4.474 3.817-8.16 8.291-8.752 1.777-.263 3.553-.132 5.33-.066 1.382.066 2.303 1.382 2.237 2.895-.066 1.25-1.25 2.369-2.5 2.369h-3.488c-2.632.066-4.606 1.908-4.606 4.409 0 2.303 1.843 4.277 4.146 4.343 1.579.066 3.224 0 4.804 0 .526 0 .79-.329.987-.79l3.422-9.081c.987-2.764 3.619-4.343 6.12-4.277 1.513.066 2.961 0 4.474 0 5.001 0 9.278 3.948 9.673 8.883.329 5.198-3.224 9.739-8.225 10.463-.066 0-.197 0-.263.132h-5.396c-.066-.132-.132-.066-.197-.132-1.316-.526-1.974-1.777-1.711-3.027.263-1.316 1.316-2.106 2.764-2.106h3.487c2.435-.066 4.343-1.974 4.343-4.409 0-2.369-1.843-4.343-4.343-4.409-1.448-.066-2.961 0-4.409 0-.724 0-.921.197-1.184.855L35.37 38.4c-.461 1.185-1.119 2.106-2.106 2.895-.856.658-1.843.987-2.83 1.25h-7.041zM160 40.308c-.197.263-.395.592-.724.79-.921.395-1.908-.197-1.908-1.25V25.7c0-.658.395-1.119.921-1.316.593-.197 1.119.066 1.514.526.066.132.131.197.197.329v15.069zm-9.739-10.726l-4.541 5.659c-.789.987-1.645.987-2.434 0l-4.277-5.33c-.066-.066-.132-.132-.264-.329v10.134c0 .921-.46 1.513-1.316 1.513s-1.316-.526-1.316-1.513V25.897c0-.724.263-1.184.856-1.382s1.118-.066 1.579.526l5.659 7.041c.263.329.329.263.592 0l5.593-6.975c.527-.658.988-.79 1.646-.592.592.197.921.658.921 1.448v13.884c0 .724-.395 1.184-.987 1.382-.592.132-1.251-.132-1.58-.658-.131-.263-.131-.526-.131-.79V29.582zm-53.497 3.225v-6.909c0-.987.526-1.448 1.513-1.448h9.41c.921 0 1.513.526 1.513 1.316 0 .855-.526 1.316-1.447 1.316h-7.699c-.527 0-.592.132-.592.592.066 1.119 0 2.237 0 3.29 0 .395.066.526.526.526h5.988c.921 0 1.514.526 1.514 1.316 0 .855-.527 1.316-1.448 1.316h-5.988c-.461 0-.527.132-.527.526v3.356c0 .395.066.526.527.526h7.699c.921 0 1.513.526 1.513 1.316 0 .856-.526 1.316-1.447 1.316h-9.476c-.921 0-1.448-.526-1.448-1.448l-.132-6.909zm-6.844 2.632l2.895 3.422c.197.263.395.526.461.921 0 .592-.263 1.119-.856 1.316s-1.119.066-1.579-.461l-3.29-4.014-.987-1.119c-.395-.461-.526-.921-.263-1.513.197-.527.658-.79 1.25-.79 1.777-.132 3.093-1.448 3.027-3.158 0-1.711-1.316-2.961-3.158-3.027-1.448-.066-2.895 0-4.277 0-.395 0-.461.132-.461.461v12.239c0 .724-.395 1.185-.987 1.382-.592.132-1.184-.132-1.514-.658-.132-.197-.132-.461-.132-.658V25.7c0-.855.526-1.382 1.382-1.382h6.383c2.83 0 5.396 2.632 5.462 5.462 0 2.632-1.119 4.409-3.356 5.659zM73.47 41.23c-1.382 0-2.764.066-4.145-.461-3.685-1.25-5.988-4.869-5.659-8.752.329-3.817 3.29-6.909 7.107-7.501 1.645-.263 3.356-.066 5.001-.066.658 0 1.185.658 1.119 1.382a1.25 1.25 0 0 1-1.25 1.25h-3.422c-2.895.066-5.067 1.711-5.791 4.409-.856 3.488 1.711 6.909 5.264 7.107 1.25.066 2.501 0 3.751 0 .855 0 1.382.526 1.382 1.316s-.526 1.316-1.382 1.316H73.47zm42.179-16.846c1.645-.066 3.29 0 4.803.658 3.554 1.579 5.528 5.264 4.935 9.212-.592 3.619-3.75 6.58-7.501 6.843-1.513.132-2.961.066-4.475 0-.723 0-1.184-.592-1.184-1.316s.526-1.316 1.25-1.316h3.751c2.895-.066 5.264-2.303 5.593-5.264.263-2.764-1.776-5.462-4.54-6.054-1.053-.197-2.106-.132-3.159-.132h-1.513c-.856 0-1.448-.526-1.448-1.316s.592-1.316 1.448-1.316h2.04zm16.055 8.423v6.909c0 .921-.526 1.514-1.316 1.514-.855 0-1.316-.526-1.316-1.448V25.897c0-.921.527-1.448 1.316-1.448s1.316.592 1.316 1.514v6.843z"/></svg>