<svg xmlns="http://www.w3.org/2000/svg" width="165" height="63" fill="#1b2738"  xmlns:v="https://vecta.io/nano"><path d="M37.112 20.802l-.186.618 2.685 4.907.494.186L41 26.2V47H30.76c3.072-3.239 4.775-7.54 4.752-12.004a17.83 17.83 0 0 0-1.387-6.912c1.451-1.11 1.883-1.387 3.332-2.16l.74-.093.062-.186-1.451-2.654h-.213l-.401.556c-1.243.834-1.984 1.019-3.621 1.636-3.146-4.783-8.64-7.9-14.841-7.9-3.073-.015-6.092.806-8.733 2.375V15h32v3.733l-3.888 2.068zm-3.765 14.225c0 4.783-2.036 9.072-5.333 11.973H9V21.881a15.68 15.68 0 0 1 8.702-2.592c8.64 0 15.645 7.036 15.645 15.738zM27.638 30.8c0-3.456-2.53-5.12-7.561-5.12h-8.022v1.573l1.821.401v13.885l-1.821.401v1.6h8.826v-1.6l-3.086-.401v-5.154h2.222c4.876 0 7.621-1.971 7.621-5.585zm-4.165.124c0 2.191-1.173 3.549-3.086 3.549h-2.592V27.56h2.716c1.882-.001 2.962 1.234 2.962 3.363zm26.352-2.048l2.081.246v.96h-5.982v-.96l1.202-.308V18.808l-1.202-.308v-.926h5.381c3.485 0 5.212 1.203 5.212 3.669 0 2.544-1.897 3.963-5.257 3.963h-1.435v3.67zm0-4.811h1.557c1.465 0 2.389-1.049 2.389-2.744 0-1.634-.848-2.606-2.298-2.606h-1.649v5.35zm19.173 5.057v.96h-3.376l-3.638-4.691h-.571v3.423l1.202.308v.96h-5.103v-.96l1.202-.308v-8.295l-1.141-.308v-.925h5.614c2.389 0 3.994 1.156 3.994 2.88 0 1.911-1.311 2.773-2.498 3.084l3.069 3.592 1.247.28zm-7.585-4.872h1.018c1.311 0 2.004-.724 2.004-2.02 0-1.218-.647-1.804-2.004-1.804h-1.018v3.824zm7.189.432c0-3.361 2.24-5.628 5.843-5.628s5.843 2.267 5.843 5.628-2.24 5.628-5.843 5.628-5.843-2.251-5.843-5.628zm8.853 0c0-2.205-.74-4.364-3.007-4.364s-3.01 2.159-3.01 4.364.74 4.364 3.007 4.364 3.007-2.159 3.007-4.364h.003zm7.462 4.194l2.081.246v.96h-5.982v-.96l1.202-.308V18.808l-1.202-.308v-.926h5.382c3.485 0 5.212 1.203 5.212 3.669 0 2.544-1.897 3.963-5.258 3.963h-1.435v3.67zm0-4.811h1.557c1.465 0 2.389-1.049 2.389-2.744 0-1.634-.848-2.606-2.298-2.606h-1.649v5.35zm19.157-3.855l-1.126.308V25.9c0 2.929-1.772 4.41-4.564 4.41-3.099 0-4.718-1.789-4.718-4.548v-5.243l-1.125-.308v-.925h5.013v.925l-1.156.308v5.547c0 1.65.987 2.744 2.606 2.744 1.557 0 2.56-1.017 2.56-2.575v-5.716l-1.157-.308v-.925h3.67l-.003.925zm11.413 6.877c0 2.02-1.619 2.987-5.013 2.987h-5.517v-.96l1.264-.308v-8.287l-1.114-.308v-.925h5.44c2.868 0 4.44.864 4.44 2.667 0 1.403-.925 2.066-2.482 2.251v.062c1.95.217 2.982 1.203 2.982 2.822zm-6.568-3.161h1.307c1.387 0 2.051-.632 2.051-1.773 0-1.187-.71-1.727-2.051-1.727h-1.307v3.5zm3.824 3.053c0-1.28-.865-1.973-2.56-1.973h-1.264v3.932h1.511c1.465-.001 2.313-.694 2.313-1.958zm13.291-.709l-1.002 3.808h-8.805v-.96l1.204-.308v-8.291l-1.281-.308v-.925h5.181v.925l-1.202.308v8.418l3.222-.184 1.758-2.791.925.308zm5.544 2.852v.96h-5.102v-.96l1.202-.308v-8.295l-1.202-.308v-.925h5.102v.925l-1.202.308v8.295l1.202.308zm.522-4.409c0-3.608 2.759-5.653 6.151-5.653 1.468.007 2.905.413 4.16 1.173l-.463 3.007h-.96l-.385-2.066c-.555-.633-1.403-.941-2.297-.941-2.081 0-3.347 1.493-3.347 4.147 0 3.007 1.558 4.395 3.469 4.395 1.403 0 2.329-.771 3.053-2.174l.972.447c-.972 2.267-2.652 3.268-4.8 3.268-3.194-.006-5.553-2.257-5.553-5.603zm21.92 4.409v.96h-5.179v-.96l1.264-.262-.648-1.851h-3.777l-.709 1.866 1.233.262-.016.96-3.762-.016v-.96l.971-.246 3.392-8.495-.909-.293v-.801h3.114l3.9 9.574 1.126.262zm-6.275-7.061l-.106-.354-.107.354-1.419 3.808h2.941l-1.309-3.808zM47.091 34.556h1.837v9.798h-1.837v-9.798zm5.067 0h1.823v8.346h4.179v1.453h-6.002v-9.798zm8.356 0h1.819v8.346h4.179v1.453h-5.998v-9.798zm8.38 0h1.837v9.798h-1.837v-9.798zm5.066 0h2.179l4.125 7.085v-7.085h1.659v9.798h-1.89l-4.413-7.509v7.509h-1.66v-9.798zm10.694 4.961v-.107c0-2.864 2.055-4.988 4.961-4.988s4.931 2.065 4.931 4.943v.107c0 2.864-1.959 5.013-4.933 5.013-3 .005-4.959-2.146-4.959-4.969zm8-.028v-.107c0-2.014-1.124-3.508-3.042-3.508s-3.056 1.411-3.056 3.52v.107c0 2.133 1.302 3.52 3.084 3.52 1.853.004 3.017-1.408 3.017-3.532h-.003zm4.65-4.933h1.837v9.798h-1.837v-9.798zm4.516 6.757h1.754c.124.987.52 1.813 2.179 1.813 1.083 0 1.85-.603 1.85-1.507s-.453-1.247-2.042-1.507c-2.347-.32-3.454-1.028-3.454-2.864 0-1.6 1.371-2.81 3.413-2.81 2.11 0 3.371.96 3.563 2.836h-1.671c-.179-1.028-.767-1.467-1.892-1.467s-1.685.533-1.685 1.288c0 .795.328 1.192 2.027 1.439 2.301.32 3.494.973 3.494 2.932 0 1.699-1.439 3.028-3.604 3.028-2.672-.004-3.794-1.336-3.932-3.183z"/></svg>